<?xml version="1.0" standalone="no"?>
<!DOCTYPE svg PUBLIC "-//W3C//DTD SVG 1.1//EN" "http://www.w3.org/Graphics/SVG/1.1/DTD/svg11.dtd" >
<svg xmlns="http://www.w3.org/2000/svg">
<metadata></metadata>
<defs>
<font id="minion_proregular" horiz-adv-x="1415" >
<font-face units-per-em="2048" ascent="1489" descent="-559" />
<missing-glyph horiz-adv-x="464" />
<glyph horiz-adv-x="2048" />
<glyph horiz-adv-x="2048" />
<glyph unicode="&#xd;" horiz-adv-x="681" />
<glyph unicode=" "  horiz-adv-x="464" />
<glyph unicode="&#x09;" horiz-adv-x="464" />
<glyph unicode="&#xa0;" horiz-adv-x="464" />
<glyph unicode="!" horiz-adv-x="565" d="M166 96q0 51 32.5 85t82.5 34q51 0 83.5 -34t32.5 -85q0 -55 -32.5 -88t-85.5 -33q-49 0 -81 33t-32 88zM168 1300q0 62 113 62q106 0 106 -62q0 -47 -14 -161q-20 -180 -60 -736q-8 -10 -35.5 -10t-33.5 10q-53 680 -60 736q-16 131 -16 161z" />
<glyph unicode="&#x22;" horiz-adv-x="651" d="M86 1399l158 55l12 -10q-2 -12 -22.5 -194.5t-30.5 -254.5l-58 -24q-39 352 -59 428zM391 1399l158 55l12 -10q0 -2 -21.5 -188.5t-31.5 -260.5l-57 -24q-45 375 -60 428z" />
<glyph unicode="#" horiz-adv-x="983" d="M49 412l23 118h202l60 279h-191l19 119h198l70 317h78l-70 -317h221l68 317h80l-68 -317h179l-19 -119h-186l-62 -279h176l-18 -118h-184l-78 -357h-78l76 357h-221l-78 -357h-78l78 357h-197zM354 530h219l62 279h-221z" />
<glyph unicode="$" horiz-adv-x="983" d="M92 373l62 16q84 -276 315 -303v496l-74 32q-258 111 -258 314q0 127 87 220t245 112v159h72v-155q102 0 182 -27q12 -2 34.5 -8t35.5 -8q6 -39 20 -124t23 -132l-58 -15q-33 109 -80 169.5t-157 76.5v-453l59 -22q289 -104 289 -342q0 -145 -93.5 -240.5t-254.5 -115.5 v-179h-72v174q-190 0 -319 84q-23 66 -58 271zM279 991q0 -147 190 -221v426q-92 -8 -141 -67.5t-49 -137.5zM541 88q92 12 143 72.5t51 146.5q0 80 -35.5 137.5t-134.5 102.5l-24 10v-469z" />
<glyph unicode="%" horiz-adv-x="1548" d="M100 928q0 143 77 257.5t220.5 114.5t219 -114.5t75.5 -256t-76.5 -257t-220 -115.5t-219.5 115.5t-76 255.5zM250 929.5q0 -65.5 9 -129t45 -123t93 -59.5q45 0 77 33t45 86.5t18.5 98.5t5.5 92q-1 311 -148 311q-57 0 -92 -59.5t-44 -122t-9 -128zM326 -18l823 1353 l68 -47l-828 -1354zM862 346q0 88 30 170t100.5 142.5t168.5 60.5q141 0 217 -115t76 -256t-75.5 -257t-219 -116t-220.5 116t-77 255zM1012 348q0 -47 6 -94t21.5 -99.5t47 -85t74.5 -32.5q57 0 92 60.5t43.5 122t8.5 126.5q0 49 -5.5 95t-19.5 99.5t-45 86t-76 32.5 q-57 0 -92 -58t-45 -121.5t-10 -131.5z" />
<glyph unicode="&#x26;" horiz-adv-x="1456" d="M111 342q0 84 39.5 153.5t90 111.5t144.5 110q23 14 33 22q-147 137 -148 285q0 137 99.5 230.5t236.5 93.5q127 0 215 -81t88 -202q0 -106 -86 -180q-82 -70 -166 -125q205 -174 344 -318q63 98 123 236q31 72 7.5 98.5t-132.5 40.5v57h469v-57q-100 -12 -140 -40.5 t-97 -112.5q-33 -47 -95.5 -143.5t-82.5 -129.5q82 -80 187.5 -205t145.5 -204l-14 -19q-78 6 -153.5 34t-96.5 50q-80 94 -178 195q-203 -270 -430 -271q-182 0 -292.5 113t-110.5 258zM285 401q0 -137 85.5 -213.5t198.5 -76.5q96 0 184.5 54t143.5 132q-170 188 -426 397 q-186 -133 -186 -293zM418 1073q0 -76 44 -136t142 -136q152 113 152 262q0 90 -48 152.5t-124 62.5q-72 0 -119 -57.5t-47 -147.5z" />
<glyph unicode="'" horiz-adv-x="346" d="M86 1399l158 55l12 -10q-2 -14 -22.5 -194.5t-30.5 -254.5l-58 -24q-37 350 -59 428z" />
<glyph unicode="(" horiz-adv-x="708" d="M143 555v2q0 285 108.5 517.5t326.5 379.5l36 -49q-152 -127 -236.5 -355.5t-84.5 -496.5q0 -266 84.5 -496.5t236.5 -357.5l-36 -45q-217 145 -326 379.5t-109 521.5z" />
<glyph unicode=")" horiz-adv-x="708" d="M92 -301q154 127 239 356.5t85 497.5t-86 497.5t-238 354.5l39 49q432 -295 432 -899v-4q0 -604 -432 -899z" />
<glyph unicode="*" horiz-adv-x="827" d="M82 1212l31 43l247 -163l119 270l49 -12l-55 -285l272 -4v-51l-270 -52l80 -282l-47 -19l-143 267l-250 -158l-29 45l209 193z" />
<glyph unicode="+" horiz-adv-x="1187" d="M106 471v102h431v424h118v-424h428v-102h-428v-471h-118v471h-431z" />
<glyph unicode="," horiz-adv-x="466" d="M90 -180q158 63 158 174q0 53 -36 88t-91 49q-8 0 -17.5 13.5t-9.5 35.5q0 37 31 61.5t70 24.5q63 0 124.5 -61.5t61.5 -159.5q0 -109 -78 -179.5t-190 -105.5z" />
<glyph unicode="-" horiz-adv-x="729" d="M117 406l28 112h469l-28 -112h-469z" />
<glyph unicode="." horiz-adv-x="466" d="M119 94q0 49 32.5 83t82 34t82 -34t32.5 -83q0 -53 -33 -86t-84 -33q-49 0 -80.5 33t-31.5 86z" />
<glyph unicode="/" horiz-adv-x="677" d="M51 -90l443 1452h116l-444 -1452h-115z" />
<glyph unicode="0" horiz-adv-x="983" d="M72 639q0 119 23.5 230.5t70.5 211t132 159.5t196 60q109 0 192.5 -58t129.5 -155.5t68.5 -210t22.5 -237.5q0 -119 -22.5 -230.5t-69.5 -212t-130 -161t-193.5 -60.5t-194.5 57.5t-132 154t-70.5 210t-22.5 242.5zM254 641q0 -156 20.5 -284t76 -220t141.5 -92 q66 0 113.5 51t72 140.5t36 187.5t11.5 215t-11.5 216t-37 188.5t-73.5 139.5t-116 50q-66 0 -113.5 -51.5t-72.5 -139.5t-36 -186t-11 -215z" />
<glyph unicode="1" horiz-adv-x="983" d="M223 0v55q137 10 167 38t30 140v789q0 78 -15.5 97.5t-82.5 21.5l-99 4v49q174 31 365 106v-1067q0 -113 29.5 -140t168.5 -38v-55h-563z" />
<glyph unicode="2" horiz-adv-x="983" d="M66 0v47q229 229 329 348q121 143 188.5 260t67.5 236q0 129 -63.5 200.5t-175.5 71.5q-154 0 -281 -190l-45 41l117 166q113 121 276 120q141 0 242.5 -95t101.5 -251q0 -127 -60.5 -233.5t-209.5 -265.5l-289 -305h381q86 0 120 21.5t79 115.5l57 -19q0 -4 -72 -268 h-763z" />
<glyph unicode="3" horiz-adv-x="983" d="M94 119q2 33 47 67q27 20 49 0q119 -104 254 -104q113 0 180.5 82t67.5 229q0 131 -80 197.5t-180 66.5q-59 0 -131 -22l-12 59q158 51 241.5 118t83.5 173q0 92 -54 142.5t-140 50.5q-137 0 -246 -162l-41 41l88 129q104 115 260 114h2q135 0 219 -75.5t84 -194.5 q0 -86 -63 -145q-45 -48 -139 -111v-4q133 -27 208.5 -112t75.5 -199q0 -117 -62.5 -214.5t-151.5 -153.5t-175 -86t-147 -30q-63 0 -121.5 22.5t-83.5 47.5q-39 37 -33 74z" />
<glyph unicode="4" horiz-adv-x="983" d="M41 365v57q373 555 614 872h82v-833h197v-96h-197v-148q0 -104 25.5 -127.5t148.5 -34.5v-55h-524v55q133 10 159.5 35t26.5 127v148h-532zM168 461h405v604h-4q-219 -303 -401 -604z" />
<glyph unicode="5" horiz-adv-x="983" d="M100 117q4 33 45 67q29 18 54 -2q125 -102 254 -102q123 0 190.5 89t67.5 214q0 141 -85 225t-249 84q-109 0 -209 -41l78 625h585l13 -16l-53 -134h-478l-53 -381q162 63 227 64q184 0 290 -104.5t106 -243.5q0 -190 -183 -340q-174 -141 -354 -146q-66 0 -126 24 t-85 48q-37 35 -35 70z" />
<glyph unicode="6" horiz-adv-x="983" d="M76 487q0 129 34.5 244t88 196t126 147.5t141.5 106.5t138 64q127 45 262 68l13 -66q-115 -23 -222 -71q-304 -146 -376 -474l137 68q76 35 129 35q162 0 265 -108.5t103 -268.5q0 -188 -118.5 -320.5t-301 -132.5t-301 139.5t-118.5 372.5zM258 492q0 -190 74 -318.5 t196 -128.5q109 0 160 93t51 216q0 139 -71.5 237.5t-202.5 98.5q-96 0 -195 -55q-12 -47 -12 -143z" />
<glyph unicode="7" horiz-adv-x="983" d="M96 973q20 123 37 303h782l17 -25q-102 -219 -295 -638.5t-285 -616.5l-151 -21l-15 23q356 580 609 1128h-443q-98 0 -127.5 -24.5t-68.5 -128.5h-60z" />
<glyph unicode="8" horiz-adv-x="983" d="M92 322q0 106 92 194q59 57 183 131q-223 127 -224 318q0 135 103.5 235t263.5 100q143 0 237.5 -88t94.5 -215q0 -94 -58 -163q-45 -51 -163 -132q127 -72 198.5 -153.5t71.5 -202.5q0 -166 -129 -268.5t-277 -102.5q-170 0 -281.5 93.5t-111.5 253.5zM256 334 q0 -137 73 -215t179 -78q94 0 156.5 68.5t62.5 183.5q0 102 -80 175t-225 146q-166 -111 -166 -280zM297 1024q0 -102 66.5 -162.5t201.5 -128.5q125 98 125 254q0 121 -60.5 184.5t-142.5 63.5q-86 0 -138 -63.5t-52 -147.5z" />
<glyph unicode="9" horiz-adv-x="983" d="M78 864q0 164 117 300t305 136q184 0 292.5 -147t108.5 -362q0 -272 -133 -470t-350 -286q-162 -66 -287 -66l-10 62q223 37 378.5 186.5t207.5 380.5l-140 -74q-59 -33 -123 -32q-162 0 -264 105t-102 267zM254 938q0 -141 74.5 -236.5t199.5 -95.5q109 0 185 58 q8 63 8 135q0 104 -19.5 195t-80 165t-154.5 74q-106 0 -159.5 -93t-53.5 -202z" />
<glyph unicode=":" horiz-adv-x="466" d="M121 727q0 51 33 84t84 33q47 0 78.5 -33t31.5 -84t-31.5 -85t-81 -34t-82 34t-32.5 85zM123 94q0 49 32.5 83t80.5 34q49 0 81.5 -34t32.5 -83q0 -53 -33 -86t-84 -33q-47 0 -78.5 33t-31.5 86z" />
<glyph unicode=";" horiz-adv-x="466" d="M92 -180q156 66 156 174q0 53 -36 89t-91 48q-27 6 -27 49q0 39 30 62.5t71 23.5q63 0 124.5 -61.5t61.5 -159.5q0 -109 -78 -180.5t-188 -106.5zM119 727q0 51 31.5 84t82.5 33q47 0 80 -33t33 -84t-32.5 -85t-82 -34t-81 34t-31.5 85z" />
<glyph unicode="&#x3c;" horiz-adv-x="1130" d="M123 471v96l885 471v-114l-764 -404v-4l764 -401v-115z" />
<glyph unicode="=" horiz-adv-x="1187" d="M106 283v102h977v-102h-977zM106 657v103h977v-103h-977z" />
<glyph unicode="&#x3e;" horiz-adv-x="1130" d="M123 0v115l766 401v4l-766 404v114l885 -471v-96z" />
<glyph unicode="?" horiz-adv-x="776" d="M119 1210q0 39 43 74q43 37 99 57.5t87 20.5h2q129 0 229.5 -100.5t100.5 -227.5q0 -98 -98 -180l-78 -59q-80 -57 -116 -99.5t-36 -87.5q1 -82 97 -166l-37 -47q-74 27 -151 105t-77 162q0 53 38 105t134 124q4 4 34 25.5t41 30.5t36 29.5t37 35t27.5 34t21.5 37t6 35.5 q0 53 -32.5 83t-90 30t-110 -27.5t-85 -55.5t-38.5 -28q-23 0 -53.5 28t-30.5 62zM266 94q0 49 33 83t80 34t80 -34t33 -83q0 -53 -33 -86t-82 -33q-47 0 -79 33t-32 86z" />
<glyph unicode="@" horiz-adv-x="1542" d="M106 426q0 229 115 406.5t290 265.5t376 88q264 0 418.5 -152.5t154.5 -374.5q0 -211 -139 -359t-344 -148q-74 0 -92.5 40.5t0.5 104.5l22 119l-4 2q-55 -84 -168.5 -175t-179.5 -91q-41 0 -69.5 44t-28.5 128q0 94 41 199.5t123 185.5q160 150 329 151q31 0 103 -16 q39 -8 69 -8q-51 -209 -98 -465q-14 -82 -7 -108.5t46 -24.5q117 4 208 115.5t91 305.5q0 207 -135 327t-350 120q-285 0 -462 -185.5t-177 -474.5q0 -106 29.5 -200t92 -176t172 -129t256.5 -47q84 0 182.5 25t145.5 52l23 -57q-193 -113 -418 -113q-258 0 -436.5 164 t-178.5 461zM612 375q0 -92 43 -92q33 0 110 64.5t161 180.5q29 98 51 228q-50 22 -113 22q-76 0 -133 -61q-47 -51 -83 -149.5t-36 -192.5z" />
<glyph unicode="A" d="M41 0v57q102 14 140 48t89 165l424 1073l64 19q45 -127 183 -512t212 -586q47 -129 85 -162.5t140 -44.5v-57h-501v57q97 12 119 33q12 11 11 32q0 20 -10 48q-14 41 -112 315h-436q-63 -180 -91 -264q-19 -57 -19 -90q0 -23 9 -35q23 -28 139 -39v-57h-446zM479 573h377 l-180 523h-4q-33 -86 -96.5 -261.5t-96.5 -261.5z" />
<glyph unicode="B" horiz-adv-x="1204" d="M74 0v57q133 10 160.5 39t27.5 156v827q0 129 -24.5 158t-147.5 37v57h526q209 0 308 -69q53 -37 83.5 -99.5t30.5 -134.5q0 -227 -276 -307v-4q360 -55 360 -326q0 -203 -194 -309q-150 -82 -402 -82h-452zM436 256q0 -111 35 -148.5t135 -37.5q137 2 226.5 75.5 t89.5 225.5q0 301 -394 301h-92v-416zM436 741h96q164 0 241 65.5t77 197.5q0 115 -67.5 188.5t-204.5 73.5q-84 0 -115 -21q-27 -16 -27 -102v-402z" />
<glyph unicode="C" horiz-adv-x="1361" d="M90 647q0 322 221 518.5t568 196.5q74 0 146.5 -10.5t141 -27.5t74.5 -17q31 -209 41 -308l-59 -16q-41 162 -136.5 233.5t-263.5 71.5q-244 0 -384 -176t-140 -424q0 -287 150.5 -466t386.5 -179q150 0 244.5 76.5t176.5 238.5l60 -20q-68 -223 -117 -315 q-248 -53 -377 -54q-184 0 -328.5 59.5t-230.5 158t-130 216t-44 244.5z" />
<glyph unicode="D" horiz-adv-x="1505" d="M70 0v55q133 10 162.5 40t29.5 159v823q0 92 -12 128t-44 49.5t-118 19.5v57h574q397 0 577 -174q174 -168 174 -440q0 -354 -252 -547q-219 -170 -608 -170h-483zM436 268q0 -113 50.5 -153.5t166.5 -40.5q272 0 415.5 176t143.5 438q0 164 -61 293t-180 199 q-135 84 -348 84q-127 0 -160 -27q-27 -19 -27 -117v-852z" />
<glyph unicode="E" horiz-adv-x="1163" d="M59 0v57q139 10 171 41t32 158v815q0 135 -26.5 164t-149.5 39v57h913q0 -16 17 -295l-60 -8q-23 104 -65 174q-23 35 -72 47.5t-160 12.5h-155q-47 0 -57.5 -10.5t-10.5 -55.5v-467h193q137 0 169.5 24.5t51.5 129.5h59v-391h-59q-20 111 -53 134t-166 23h-195v-387 q0 -133 49 -166q38 -26 201 -26h12q117 0 170.5 14t87.5 55q58 68 103 193l59 -8q-37 -205 -71 -324h-988z" />
<glyph unicode="F" horiz-adv-x="1083" d="M82 0v57q125 10 152.5 40t27.5 161v817q0 131 -26.5 160t-147.5 39v57h901q3 -82 21 -301l-60 -8q-27 115 -57 164q-27 45 -73 60.5t-161 15.5h-155q-45 0 -56.5 -10.5t-11.5 -55.5v-487h211q135 0 169 24.5t52 126.5h60v-395h-60q-18 111 -52 137.5t-169 26.5h-211v-371 q0 -131 31 -160.5t172 -40.5v-57h-557z" />
<glyph unicode="G" horiz-adv-x="1464" d="M90 657q0 172 65.5 309.5t176 221.5t249 129t291.5 45q59 0 128 -8t107 -15.5t97.5 -21.5t63.5 -14q14 -156 30 -320l-57 -12q-35 178 -136 248.5t-263 70.5q-240 0 -391.5 -164.5t-151.5 -443.5q0 -115 35 -225.5t101.5 -205.5t179 -152.5t253.5 -57.5q109 0 179 35 q35 18 50 47t15 88v174q0 111 -31.5 138.5t-183.5 37.5v57h520v-57q-92 -12 -111.5 -34.5t-19.5 -112.5v-176q0 -127 14 -195q-14 -4 -65 -15.5t-75.5 -16.5t-73 -15t-83 -14.5t-78.5 -8.5t-83 -4q-338 0 -545 190.5t-207 497.5z" />
<glyph unicode="H" horiz-adv-x="1568" d="M78 1274v57h530v-57q-119 -10 -145.5 -39t-26.5 -156v-331h699v331q0 125 -28 155t-149 40v57h535v-57q-127 -10 -155.5 -40t-28.5 -155v-827q0 -127 27.5 -155.5t154.5 -39.5v-57h-549v57q133 10 163 39t30 156v407h-699v-407q0 -127 29 -155.5t156 -39.5v-57h-539v57 q125 10 152.5 39t27.5 156v827q0 127 -28.5 156t-155.5 39z" />
<glyph unicode="I" horiz-adv-x="698" d="M78 0v57q127 10 155.5 40t28.5 159v819q0 129 -28.5 159t-155.5 40v57h543v-57q-127 -10 -156 -40t-29 -159v-819q0 -131 29 -159.5t156 -39.5v-57h-543z" />
<glyph unicode="J" horiz-adv-x="673" d="M55 -279q160 78 197 267q20 123 20 391v696q0 129 -28.5 159t-153.5 40v57h531v-57q-119 -10 -147 -40t-28 -159v-764q0 -203 -37.5 -320.5t-138.5 -209.5q-100 -90 -190 -119z" />
<glyph unicode="K" horiz-adv-x="1378" d="M84 1274v57h528v-57q-121 -10 -149.5 -42t-28.5 -167v-358q59 12 144 92q207 199 342 364q41 48 41 70q-1 3 -1 6q-6 21 -73 29l-47 6v57h491v-57q-117 -10 -176 -38t-156 -116q-82 -72 -362 -358q199 -254 481 -557q80 -84 126 -110.5t122 -37.5v-57h-313 q-119 131 -508 596q-49 57 -96 57q-8 0 -15 -2v-389q0 -133 30 -163.5t159 -41.5v-57h-533v57q119 10 145.5 41t26.5 164v803q0 98 -12 136t-45 52.5t-121 20.5z" />
<glyph unicode="L" horiz-adv-x="1101" d="M74 0v57q129 10 158.5 41t29.5 160v819q0 129 -26.5 158t-153.5 39v57h534v-57q-125 -10 -152.5 -39t-27.5 -158v-809q0 -84 10.5 -120.5t36.5 -51.5q47 -26 187 -26h10q174 0 229 63q62 68 105 201l61 -12q-39 -203 -74 -322h-927z" />
<glyph unicode="M" horiz-adv-x="1824" d="M53 0v57q92 10 128 35t46 88q23 133 39 375l29 426q6 74 7 113v11q0 33 -5 65q-6 38 -13.5 51.5t-34 27t-52 16.5t-80.5 9v57h336l467 -1026l475 1026h348v-57q-139 -12 -166 -44q-24 -28 -24 -150q0 -18 1 -38l19 -741q4 -164 30.5 -198.5t159.5 -45.5v-57h-538v57 q125 10 149.5 45t24.5 199l-8 836h-9l-499 -1123h-41l-459 1094h-4l-31 -584q-7 -144 -7 -256q0 -45 1 -84q2 -70 40 -92t148 -35v-57h-477z" />
<glyph unicode="N" horiz-adv-x="1521" d="M41 1274v57h301l856 -1028h6v504q0 240 -14 340q-8 70 -50 96.5t-151 30.5v57h484v-57q-88 -4 -127 -30.5t-46 -90.5q-12 -96 -12 -346v-825h-63l-873 1073h-4v-514q0 -227 12 -346q8 -76 49.5 -104t147.5 -34v-57h-485v57q92 4 132 33t48 100q12 127 12 351v450 q0 111 -6 140.5t-35 66.5q-33 39 -70.5 54.5t-111.5 21.5z" />
<glyph unicode="O" horiz-adv-x="1529" d="M90 651q0 291 189.5 501t500.5 210q268 0 464 -190.5t196 -489.5q0 -324 -196.5 -518.5t-487.5 -194.5q-281 0 -473.5 194.5t-192.5 487.5zM299 709q0 -289 141.5 -477.5t358.5 -188.5q184 0 308 151.5t124 432.5q0 311 -141.5 486t-354.5 175q-182 0 -309 -152.5 t-127 -426.5z" />
<glyph unicode="P" horiz-adv-x="1153" d="M82 0v57q123 10 151.5 41t28.5 158v819q0 133 -25.5 162t-142.5 37v57h506q229 0 346 -84q131 -100 131 -289q0 -186 -115.5 -292.5t-283.5 -126.5q-28 -4 -56 -4q-18 0 -36 2l-152 38v-321q0 -129 32 -157.5t171 -39.5v-57h-555zM434 643q63 -25 150 -25q121 0 209 78 t88 254q0 158 -87 237t-223 79q-90 0 -114 -25q-23 -16 -23 -96v-502z" />
<glyph unicode="Q" horiz-adv-x="1525" d="M90 645q0 190 81 352t242.5 263.5t372.5 101.5q266 0 460 -192.5t194 -491.5q0 -258 -134.5 -435t-330.5 -239q252 -174 500 -287l-17 -43h-16q-128 0 -246 31q-145 39 -469 266q-256 14 -426 179q-96 90 -153.5 219t-57.5 276zM299 700q0 -258 116 -435t298 -214l139 45 q8 -6 26.5 -19.5t28.5 -19.5q135 39 229.5 184.5t94.5 376.5q0 311 -138.5 490.5t-355.5 179.5q-182 0 -310 -154.5t-128 -433.5z" />
<glyph unicode="R" horiz-adv-x="1271" d="M78 0v57q127 10 155.5 40t28.5 159v823q0 127 -26.5 156t-149.5 39v57h508q223 0 326 -69q137 -86 137 -269q0 -236 -260 -352q55 -106 182 -295q100 -145 166 -213q63 -73 147 -96l-8 -53q-49 0 -72 2q-117 6 -189.5 47t-141.5 139q-43 61 -207 328q-27 45 -63 63.5 t-111 18.5h-66v-326q0 -129 29 -158.5t151 -40.5v-57h-536zM434 647h98q150 0 222 60q112 85 112 251q0 159 -86 232.5t-213 73.5q-84 0 -110 -21q-23 -14 -23 -90v-506z" />
<glyph unicode="S" horiz-adv-x="970" d="M84 360l61 15q14 -55 37 -106.5t62 -105.5t100.5 -87t136.5 -33q115 0 180.5 66.5t65.5 179.5q0 104 -64.5 167.5t-201.5 137.5q-164 90 -225 149q-113 109 -113 254q0 154 114.5 259.5t307.5 105.5q109 0 258 -47q10 -84 35 -283l-60 -10q-33 123 -91 196.5t-177 73.5 q-111 0 -169 -65.5t-58 -157.5q0 -104 62.5 -168.5t197.5 -134.5q53 -27 72.5 -37t67.5 -40t68.5 -48t55.5 -52t50 -65.5t27.5 -74.5t12.5 -93q0 -164 -127 -275.5t-328 -111.5q-96 0 -200 31q-45 14 -103 43q-16 47 -55 317z" />
<glyph unicode="T" horiz-adv-x="1263" d="M57 1014q20 238 25 368h41q20 -33 42.5 -42t70.5 -9h808q39 0 58.5 10.5t44.5 40.5h43q4 -182 22 -362l-61 -6q-27 129 -64 182q-27 39 -68.5 52.5t-154.5 13.5h-143v-1010q0 -123 32.5 -154.5t176.5 -40.5v-57h-586v57q139 8 171 40t32 155v1010h-127q-123 0 -170 -14.5 t-68 -49.5q-25 -35 -65 -184h-60z" />
<glyph unicode="U" horiz-adv-x="1507" d="M68 1274v57h528v-57q-121 -8 -148.5 -39t-27.5 -168v-465q0 -250 98 -385t287 -135q387 0 387 586v153q0 227 -14 338q-8 59 -49.5 83t-149.5 32v57h487v-57q-94 -6 -133 -31.5t-45 -89.5q-12 -111 -12 -332v-168q0 -377 -154 -540q-139 -141 -368 -142q-201 0 -328 99 q-180 137 -180 487v510q0 135 -28 166t-150 41z" />
<glyph unicode="V" horiz-adv-x="1439" d="M35 1274v57h502v-57q-106 -10 -126 -32q-9 -9 -9 -26q0 -24 16 -63q113 -322 340 -895h4q246 621 323 862q17 51 17 81q0 22 -10 33q-22 26 -146 40v57h461v-57q-106 -12 -146 -47t-98 -170q-291 -709 -426 -1080h-63q-244 666 -424 1117q-43 111 -81 140.5t-134 39.5z " />
<glyph unicode="W" horiz-adv-x="1988" d="M33 1274v57h497v-57q-109 -14 -129 -38q-9 -10 -9 -30q0 -27 16 -71q160 -553 249 -844h5q51 160 163.5 502t167.5 520h60q68 -201 358 -1024h4q178 567 232 821q13 47 13 77q0 29 -12 44q-24 29 -141 43v57h451v-57q-106 -14 -141 -46t-80 -159q-123 -358 -338 -1092 h-64q-35 102 -358 1022h-4q-55 -174 -168 -511.5t-166 -510.5h-64q-49 166 -335 1096q-37 123 -74 157t-133 44z" />
<glyph unicode="X" horiz-adv-x="1339" d="M14 0v57q90 10 143.5 35t96.5 82q96 121 336 490q-53 86 -275 438q-68 102 -110.5 131t-151.5 41v57h504v-57q-90 -10 -106.5 -28.5t10.5 -57.5q66 -113 233 -373q135 209 203 332q27 47 27 73q0 12 -6 18q-18 24 -117 36v57h467v-57q-115 -12 -164 -40t-119 -118 q-92 -127 -248 -366q207 -328 322 -504q72 -109 124 -143.5t158 -45.5v-57h-538v57q93 9 113 29q8 8 8 20q0 20 -19 52q-184 303 -270 438q-141 -213 -250 -414q-27 -46 -27 -71q0 -11 6 -18q18 -23 119 -36v-57h-469z" />
<glyph unicode="Y" horiz-adv-x="1298" d="M31 1274v57h489v-57q-104 -12 -122 -37q-5 -8 -5 -19q0 -22 23 -55q27 -51 276 -485q178 317 244 461q25 51 25 78q0 14 -7 21q-18 24 -137 36v57h453v-57q-104 -12 -144.5 -39t-99.5 -123q-139 -225 -258 -448q-35 -66 -35 -129v-279q0 -129 32 -158.5t173 -40.5v-57 h-578v57q137 10 168 40t31 159v272q0 45 -43 123q-227 395 -258 449q-63 109 -100 137.5t-127 36.5z" />
<glyph unicode="Z" horiz-adv-x="1234" d="M59 31q639 903 861 1226h-355q-158 0 -209 -14t-80 -59q-39 -59 -71 -178l-60 2q18 227 25 374h49q18 -33 39 -42t70 -9h817l14 -28q-571 -809 -846 -1217q98 -12 334 -12q193 0 269.5 15t119.5 61q58 58 113 210l59 -12q-51 -266 -73 -348h-1059z" />
<glyph unicode="[" horiz-adv-x="706" d="M246 -334v1774h348v-58q-162 -12 -192.5 -38.5t-30.5 -147.5v-1286q0 -121 29.5 -146.5t193.5 -39.5v-58h-348z" />
<glyph unicode="\" horiz-adv-x="681" d="M74 1362h114l424 -1452h-116z" />
<glyph unicode="]" horiz-adv-x="706" d="M115 -279q162 14 192.5 41t30.5 150v1284q0 121 -31 147.5t-192 40.5v56h348v-1774h-348v55z" />
<glyph unicode="^" horiz-adv-x="1159" d="M143 432l392 844h88l393 -844h-121l-317 709l-322 -709h-113z" />
<glyph unicode="_" horiz-adv-x="1024" d="M0 -154h1024v-102h-1024v102z" />
<glyph unicode="`" horiz-adv-x="819" d="M211 1333l6 17q16 8 77.5 19t82.5 7q20 -49 65.5 -173t63.5 -171l-55 -26q-131 184 -240 327z" />
<glyph unicode="a" horiz-adv-x="899" d="M80 225q0 145 166 203q262 88 317 133v35q0 111 -47 171t-127 60q-57 0 -92 -38.5t-59 -135.5q-14 -47 -60 -47q-31 0 -59.5 26.5t-28.5 61.5t64 82q51 39 140 83t167 61q100 0 168 -56q92 -80 92 -252v-379q0 -122 71 -122h1q37 0 73 22l21 -53l-174 -105q-55 0 -97 41 q-33 33 -49 90q-10 -6 -49 -33.5t-55.5 -37.5t-47 -27.5t-51 -25t-38.5 -7.5q-106 0 -176 75t-70 175zM254 254q0 -72 46 -114t99 -42q39 0 86 21.5t78 52.5v320q-25 -12 -100.5 -47t-83.5 -39q-63 -29 -94 -64t-31 -88z" />
<glyph unicode="b" horiz-adv-x="1040" d="M14 1339v47q162 20 297 72v-631l166 72q47 20 84 21q166 0 285 -126t119 -307q0 -219 -153 -365.5t-361 -146.5q-145 0 -301 74v1137q0 98 -19.5 121.5t-116.5 31.5zM311 238q0 -41 13 -72q14 -39 61 -76t119 -37q129 0 203.5 102.5t74.5 280.5q0 168 -89 268.5 t-222 100.5q-90 0 -160 -39v-528z" />
<glyph unicode="c" horiz-adv-x="866" d="M76 403q0 242 207 400q152 117 305 117h2q121 0 184 -56q33 -29 33 -61q0 -31 -24.5 -59.5t-43.5 -28.5q-16 0 -39 22q-90 84 -206 84q-106 0 -179 -87t-73 -240q0 -100 30.5 -178t79.5 -119t100.5 -61.5t98.5 -20.5q68 0 124 24.5t124 87.5l35 -43 q-70 -92 -164.5 -150.5t-182.5 -58.5q-186 0 -298.5 127t-112.5 301z" />
<glyph unicode="d" horiz-adv-x="1081" d="M78 412q0 211 157.5 359.5t368.5 148.5q74 0 137 -25v293q0 98 -23.5 119.5t-133.5 29.5v52q162 18 319 69v-1222q0 -78 15.5 -98.5t74.5 -26.5l66 -7v-51q-207 -37 -318 -78v134l-125 -74q-102 -59 -159 -60q-139 0 -259 119t-120 318zM262 467q0 -170 86 -266.5 t197 -96.5q104 0 196 70v563q-72 104 -211 105q-41 0 -82.5 -17.5t-86 -57.5t-72 -118t-27.5 -182z" />
<glyph unicode="e" horiz-adv-x="870" d="M76 412q0 211 135 358q137 150 299 150h2q125 0 216 -95.5t91 -216.5q0 -33 -9 -46t-38 -19q-111 -20 -536 -35q2 -195 94 -294t213 -99q124 0 235 102l31 -45q-86 -106 -178 -151.5t-156 -45.5q-182 0 -290.5 127t-108.5 310zM246 592q170 0 348 6q29 0 39 9t10 32v6 q0 81 -48 139q-50 60 -134 60q-72 0 -132.5 -66.5t-82.5 -185.5z" />
<glyph unicode="f" horiz-adv-x="606" d="M55 836l56 59h96v43q0 98 22 170q47 147 158 242q113 94 225 108q109 -6 162 -69q17 -20 17 -43q0 -14 -7 -29q-10 -27 -38.5 -49.5t-55.5 6.5q-76 76 -166 76q-70 0 -108 -60q-47 -73 -47 -295v-18v-82h241q10 -14 3 -43t-23 -39h-221v-588q0 -113 26.5 -137.5 t149.5 -36.5v-51h-484v53q100 10 123 34t23 124v602h-144z" />
<glyph unicode="g" horiz-adv-x="958" d="M59 -276q0 66 50 114q43 43 170 144q-100 31 -152 112q-24 36 -24 74q0 6 1 12q115 43 181 125q-76 33 -128.5 104.5t-52.5 170.5q0 160 116 250t251 90h2q104 0 197 -56q145 8 278 31l10 -16q-43 -78 -92 -105l-116 6q61 -72 61 -180q0 -156 -107.5 -242t-250.5 -86 q-49 0 -105 11q-61 -43 -61 -86q0 -33 32.5 -55.5t96.5 -22.5q39 0 110.5 1t106.5 1q74 0 134 -16.5t109.5 -74t49.5 -151.5q0 -158 -154 -281.5t-356 -123.5q-162 0 -258.5 76.5t-98.5 173.5zM221 -225q0 -84 78 -140.5t193 -56.5q141 0 217.5 63.5t76.5 163.5 q0 106 -92 146q-67 26 -200 26q-127 0 -179 -43q-94 -80 -94 -159zM281 612q0 -121 54 -197.5t138 -76.5q72 2 121 65.5t49 178.5q0 121 -53 197.5t-141 76.5q-70 0 -119 -65.5t-49 -178.5z" />
<glyph unicode="h" horiz-adv-x="1093" d="M37 0l2 53q94 8 116.5 33t22.5 125v977q0 98 -19.5 119.5t-119.5 29.5v49q129 18 301 72v-688q150 150 293 150q131 0 206.5 -86t75.5 -265v-358q0 -100 23 -125t113 -33v-53h-433v53q90 10 113 35t23 123v340q0 252 -201 252q-121 0 -213 -105v-487q0 -98 20.5 -124 t112.5 -34v-53h-436z" />
<glyph unicode="i" horiz-adv-x="548" d="M66 0v53q98 10 120.5 35t22.5 129v422q0 96 -18.5 118.5t-110.5 37.5v49q160 25 291 80v-707q0 -104 23.5 -129t121.5 -35v-53h-450zM174 1202q0 45 31 76t74 31t72.5 -31t29.5 -76q0 -43 -31 -73.5t-74 -30.5q-41 0 -71.5 31.5t-30.5 72.5z" />
<glyph unicode="j" horiz-adv-x="524" d="M-53 -436q0 39 43 47q111 27 149 78q33 41 51 147q16 117 17 395v400q0 104 -20.5 128t-116.5 38v47q172 27 299 80v-697q0 -199 -47 -329q-47 -135 -123 -247t-125 -155q-32 -22 -52 -22h-2q-23 0 -48 27.5t-25 62.5zM174 1202q0 45 31 76t74 31q41 0 70.5 -31t29.5 -76 q0 -43 -30 -73.5t-73 -30.5q-41 0 -71.5 31.5t-30.5 72.5z" />
<glyph unicode="k" horiz-adv-x="1015" d="M29 0v53q102 8 125.5 35t23.5 125v967q0 102 -20.5 125.5t-114.5 31.5v49q117 12 295 72v-964q76 14 129 71q63 63 145 180q25 35 25 54q0 7 -3 11q-11 18 -83 26v53l418 18v-51q-104 -16 -153.5 -39.5t-110.5 -81.5q-63 -63 -177 -194q27 -43 143.5 -179.5t174.5 -195.5 q98 -106 205 -113v-53l-281 -4q-33 37 -336 405q-39 45 -63 45q-14 0 -33 -6v-227q0 -100 23.5 -125t123.5 -35v-53h-456z" />
<glyph unicode="l" horiz-adv-x="518" d="M31 0v53q98 10 122.5 35t24.5 125v969q0 102 -21.5 123.5t-119.5 31.5v49q150 16 303 72v-1245q0 -100 23.5 -125t123.5 -35v-53h-456z" />
<glyph unicode="m" horiz-adv-x="1677" d="M55 0v53q102 10 128 35t26 123v424q0 98 -18.5 121.5t-106.5 38.5v47q162 29 285 84v-166q6 4 59 42t90 60q92 58 166 58h2q74 0 134 -46q62 -46 93 -124q51 41 170 116q80 53 156 54q121 0 190.5 -82t69.5 -232v-395q0 -100 21.5 -124t111.5 -34v-53h-438v53 q94 10 118.5 36t24.5 130v342q0 238 -180 238q-98 0 -229 -107q6 -37 6 -86v-399q0 -94 22.5 -119t108.5 -35v-53h-438v53q98 10 121.5 35t23.5 123v352q0 236 -180 236q-96 0 -223 -107v-481q0 -96 20.5 -122t97.5 -36v-53h-432z" />
<glyph unicode="n" horiz-adv-x="1120" d="M59 0v53q104 10 127 35t23 125v422q0 96 -19.5 119.5t-103.5 40.5v47q168 31 285 82v-162q43 31 137 96q96 61 170 62q123 0 193.5 -82t70.5 -230v-395q0 -102 20.5 -126t110.5 -34v-53h-428v53q90 10 112.5 37t22.5 133v342q0 233 -186 234q-102 0 -223 -105v-481 q0 -102 20.5 -126t112.5 -34v-53h-445z" />
<glyph unicode="o" horiz-adv-x="1044" d="M76 428q0 121 43 218t111.5 154.5t145 88.5t150.5 31q188 0 315.5 -133.5t127.5 -323.5q0 -229 -137.5 -358.5t-307.5 -129.5q-201 0 -324.5 136.5t-123.5 316.5zM266 494q0 -197 78 -324t203 -127q104 0 167.5 89t63.5 286q0 186 -73.5 310t-204.5 124q-98 0 -166 -96.5 t-68 -261.5z" />
<glyph unicode="p" horiz-adv-x="1073" d="M35 -436q100 10 124.5 34.5t24.5 125.5v925q0 98 -19.5 120t-115.5 34v49q135 23 297 88v-162l189 109q53 33 100 33q164 0 263 -115t99 -273q0 -221 -148.5 -369.5t-361.5 -187.5q-78 2 -141 37v-268q0 -117 26.5 -143.5t145.5 -36.5v-56h-483v56zM346 156 q76 -80 193 -80q129 0 207.5 102.5t78.5 274.5q0 160 -78.5 252t-195.5 92q-92 0 -205 -88v-553z" />
<glyph unicode="q" horiz-adv-x="1046" d="M78 403q0 217 166 368q164 149 377 149h6q98 -10 141 -29q37 -10 55 -8q27 0 72 22l8 -6q-6 -129 -6 -219v-950q0 -106 24.5 -131t133.5 -35v-56h-494v56q121 8 147.5 34.5t26.5 135.5v327l-217 -86q-207 0 -323.5 132.5t-116.5 295.5zM262 471q0 -174 98.5 -277.5 t223.5 -103.5q81 0 151 33v627q-35 39 -91 62.5t-107 23.5q-113 0 -194 -96.5t-81 -268.5z" />
<glyph unicode="r" horiz-adv-x="759" d="M68 0v53q96 10 118.5 35t22.5 125v424q0 100 -18.5 123.5t-108.5 34.5v47q152 25 289 82v-224h4q129 219 248 220q49 0 83.5 -33t34.5 -70q0 -70 -65 -100q-35 -14 -53 4q-43 41 -88 41q-41 0 -86.5 -45t-77.5 -129v-375q0 -102 25.5 -127t142.5 -33v-53h-471z" />
<glyph unicode="s" horiz-adv-x="751" d="M84 287l55 10q29 -109 95.5 -181.5t154.5 -72.5q59 0 102.5 40t43.5 103.5t-40 105.5t-122 81q-57 25 -94 46t-79 55t-62.5 79t-20.5 100q0 111 87 189t224 78q98 0 180 -37q12 -31 26.5 -103.5t18.5 -113.5l-51 -15q-68 203 -211 203q-59 0 -96 -40t-37 -101.5 t45 -101.5t127 -74q129 -53 194.5 -117t65.5 -162q0 -131 -102.5 -207t-235.5 -76q-72 0 -138.5 21.5t-94.5 48.5q-10 23 -22.5 104.5t-12.5 137.5z" />
<glyph unicode="t" horiz-adv-x="624" d="M35 836l57 59h92v147l133 138l29 -4v-281h232q16 -16 12 -43t-25 -39h-219v-524q0 -197 121 -197q59 0 125 35l18 -53l-139 -72q-51 -27 -86 -27q-201 0 -201 244v594h-141z" />
<glyph unicode="u" horiz-adv-x="1087" d="M59 825v47q39 2 148 15q121 18 145 22q-6 -63 -6 -297v-276q0 -231 180 -232q121 0 222 99v479q0 78 -16.5 100.5t-69.5 30.5l-74 12v47q90 4 184 17q76 8 137 20v-684q0 -76 17.5 -96t79.5 -25l55 -2v-53q-66 -8 -158 -33q-27 -8 -76 -22t-67 -19l-12 13v145 q-115 -86 -152 -106q-88 -51 -158 -52q-113 0 -183.5 75t-70.5 231v401q0 78 -13 99.5t-54 31.5z" />
<glyph unicode="v" horiz-adv-x="948" d="M-4 842v53h420v-53q-82 -8 -96 -30q-4 -7 -4 -19q0 -24 18 -68q84 -236 194 -506q88 207 183 488q15 43 15 69q0 19 -8 30q-18 25 -104 36v53h365v-53q-80 -10 -108.5 -36t-71.5 -118q-139 -305 -291 -711h-57q-96 262 -283 717q-35 88 -62.5 111.5t-109.5 36.5z" />
<glyph unicode="w" horiz-adv-x="1402" d="M18 842v53h424v-53q-92 -14 -110 -35q-8 -9 -7 -27q0 -24 13 -63q96 -305 151 -475h5q78 203 237 643h53q80 -227 246 -652h4q102 319 142 474q10 39 10 64q0 24 -10 35q-20 21 -119 36v53h368v-53q-76 -10 -103.5 -38t-57.5 -114q-74 -197 -246 -713h-60 q-49 131 -142 366t-107 271q-27 -70 -112 -289t-132 -348h-57q-145 469 -238 732q-27 80 -52.5 101t-99.5 32z" />
<glyph unicode="x" horiz-adv-x="966" d="M8 0v53q94 12 131 35t98.5 100.5t174.5 245.5l-179 279q-47 74 -81.5 96t-118.5 33v53h407v-53q-62 -8 -74 -26q-3 -5 -4 -11q0 -18 23 -49l121 -191q76 115 119 193q18 32 18 49q1 9 -3 13q-12 14 -83 22v53h375v-53q-96 -10 -133 -27.5t-92 -81.5q-49 -59 -160 -225 l198 -303q57 -88 95.5 -113.5t130.5 -38.5v-53h-439v53q66 8 80.5 24.5t-10.5 57.5l-151 240q-80 -119 -132 -217q-24 -37 -24 -58q-1 -8 3 -14q12 -20 91 -33v-53h-381z" />
<glyph unicode="y" horiz-adv-x="940" d="M4 842v53h414l2 -53q-72 -10 -86 -33q-6 -9 -6 -23q0 -22 14 -57l184 -512q117 281 189 510q10 28 10 48q0 21 -11 33q-20 23 -106 34v53h371v-53q-80 -12 -108.5 -36t-71.5 -112q-25 -49 -54.5 -121.5t-90 -220t-113.5 -274.5q-176 -420 -211 -553q-12 -51 -66 -51 q-43 0 -78.5 30.5t-35.5 67.5q0 39 51 76q82 49 153 180q37 70 64 141q6 18 6 38q0 25 -10 54q-137 391 -234 627q-35 88 -64.5 115.5t-111.5 38.5z" />
<glyph unicode="z" horiz-adv-x="860" d="M63 31q223 330 510 794h-182q-106 0 -146 -27.5t-85 -117.5l-29 -55l-51 18q41 143 70 295h43q16 -43 112 -43h471l12 -29q-244 -381 -499 -798h203q111 0 160.5 33.5t113.5 131.5l27 50l53 -27q-41 -113 -94 -256h-674z" />
<glyph unicode="{" horiz-adv-x="710" d="M131 584q63 4 104 21.5t57.5 47t20.5 52t4 57.5q0 63 -8 206.5t-6 213.5q0 270 297 270v-57q-104 -14 -138 -61.5t-34 -129.5q0 -66 13.5 -204t13.5 -205q0 -199 -170 -236v-8q170 -41 170 -240q0 -70 -13.5 -204t-13.5 -197q0 -84 34 -134.5t138 -64.5v-57 q-297 0 -297 262q0 72 8 217.5t6 212.5q0 35 -4 57.5t-20.5 52t-56 47t-103.5 21.5z" />
<glyph unicode="|" horiz-adv-x="538" d="M203 -512v2048h131v-2048h-131z" />
<glyph unicode="}" horiz-adv-x="710" d="M111 -289q102 14 138 63.5t36 129.5q0 68 -14.5 205t-14.5 200q0 197 172 240v8q-172 41 -172 236q0 70 14.5 210t14.5 201q0 82 -36 129t-138 62v57q57 0 102 -8t93 -34t76 -82t28 -140q0 -76 -8.5 -218.5t-8.5 -201.5q0 -37 4 -61.5t20.5 -55t58 -48t104.5 -21.5v-60 q-63 -4 -104.5 -21.5t-58 -48t-20.5 -55t-4 -61.5q0 -57 8.5 -199.5t8.5 -220.5q0 -262 -299 -262v57z" />
<glyph unicode="~" horiz-adv-x="1187" d="M113 399q90 225 266 226q104 0 239.5 -80t208.5 -80q61 0 101 39t73 127l74 -43q-68 -225 -260 -226q-106 0 -258 93q-113 68 -186 67q-121 0 -187 -174z" />
<glyph unicode="&#xa1;" horiz-adv-x="565" d="M164 795q0 53 33 86.5t86 33.5q49 0 81.5 -33.5t32.5 -86.5q0 -51 -33.5 -85t-82.5 -34q-51 0 -84 33.5t-33 85.5zM174 -406q0 45 14 162q20 180 60 733q8 10 36.5 10.5t37.5 -10.5q43 -623 57 -733q14 -147 14 -162q1 -61 -110 -61q-109 0 -109 61z" />
<glyph unicode="&#xa2;" horiz-adv-x="983" d="M104 610q0 229 191 377q100 76 217 100v173h72v-162q14 2 37 2q129 0 206 -56q29 -20 29 -50.5t-24.5 -58.5t-49.5 -30q-10 2 -30 19q-74 74 -168 88v-684q143 -6 270 121l35 -48q-61 -80 -145.5 -134t-159.5 -66v-201h-72v197q-178 4 -293 126.5t-115 286.5zM264 694 q0 -162 76 -251t172 -109v678q-94 -2 -171 -83t-77 -235z" />
<glyph unicode="&#xa3;" horiz-adv-x="983" d="M50 16.5q-11 26.5 11 71.5q18 31 97 119q86 94 86 276q0 35 -6 121h-181v78h170q-10 129 -10 168q0 221 170 358q47 39 108.5 65.5t104.5 26.5q63 0 120.5 -27.5t78.5 -55.5q23 -31 8 -64q-10 -23 -39 -47q-29 -18 -57 4q-98 86 -191 86q-147 0 -147 -197q0 -96 41 -317 h356v-78h-352q2 -16 2 -45q0 -190 -178 -356q94 0 215 -56q168 -78 245 -77q119 0 119 94q0 37 -14 65q-8 20 6 45q35 53 74 54q20 0 33.5 -27t13.5 -57q0 -66 -47 -130.5t-111 -107.5q-100 -63 -186 -63q-80 0 -277 110q-82 49 -118 49q-51 0 -84 -88q-8 -25 -25 -24 q-25 0 -36 26.5z" />
<glyph unicode="&#xa4;" horiz-adv-x="983" d="M57 276l142 136q-88 106 -88 254q0 145 88 249l-142 140l82 82l131 -154q96 78 217 78h2q119 0 216 -78l129 154l84 -82l-142 -137q88 -104 88 -252q0 -145 -90 -252l144 -138l-84 -83l-132 155q-96 -80 -215 -80q-127 0 -219 78l-129 -153zM236 666q0 -131 72.5 -214 t181 -83t180 83t71.5 214t-72.5 213t-181 82t-180 -82t-71.5 -213z" />
<glyph unicode="&#xa5;" horiz-adv-x="983" d="M14 1223v53h420v-53l-53 -11q-43 -8 -53.5 -20t2.5 -45q53 -135 180 -428q135 279 180 401q18 43 10 62.5t-55 29.5l-57 11v53h366v-53q-78 -10 -109.5 -36t-78.5 -110q-70 -121 -203 -399h264v-74h-278v-61v-76h278v-76h-278v-172q0 -104 28.5 -130t155.5 -34v-55h-526 v55q125 8 152.5 34t27.5 130v172h-268v76h268v63v74h-266v74h246q-72 176 -179 399q-41 88 -70.5 111.5t-103.5 34.5z" />
<glyph unicode="&#xa6;" horiz-adv-x="538" d="M203 -358v716h131v-716h-131zM203 666v716h131v-716h-131z" />
<glyph unicode="&#xa7;" horiz-adv-x="976" d="M111 756q0 180 161 352q80 88 148.5 134t161.5 69q82 0 135 -45q25 -25 24 -47q0 -41 -36 -68q-23 -18 -41 -2q-66 53 -154 53q-63 0 -97 -33.5t-34 -72.5q0 -74 76 -142q31 -27 225 -194q192 -166 192 -348q-2 -213 -202 -437q-129 -141 -283 -188q-84 0 -141 45 q-41 31 -41 62q0 29 43 65q23 16 43 6q92 -57 162 -57q57 0 99 31.5t44 91.5q0 84 -137 213l-100.5 100.5t-102.5 99.5q-145 141 -145 312zM213 842q0 -160 182 -330q207 -188 250 -260q45 -74 39 -158l4 -4q78 119 78 234q0 160 -164 303q-201 184 -227 211q-94 90 -82 200 l-6 2q-74 -100 -74 -194v-4z" />
<glyph unicode="&#xa8;" horiz-adv-x="819" d="M139 1202q0 43 29 72t70 29t68.5 -29t27.5 -72q0 -41 -28.5 -69.5t-69.5 -28.5q-39 0 -68 29.5t-29 68.5zM485 1202q0 43 29 72t70 29t68.5 -29t27.5 -72q0 -41 -28.5 -69.5t-69.5 -28.5q-39 0 -68 29.5t-29 68.5z" />
<glyph unicode="&#xa9;" horiz-adv-x="1437" d="M104 659q0 262 176.5 442.5t440.5 180.5q260 0 436 -180t176 -443q0 -260 -176 -439t-438 -179t-438.5 179t-176.5 439zM201 661.5q0 -235.5 147.5 -393t372.5 -157.5q223 0 369.5 157.5t146.5 393t-146.5 393t-371.5 157.5q-223 0 -370.5 -157.5t-147.5 -393zM375 655 q0 164 115.5 262.5t281.5 98.5q123 0 213 -35q14 -90 23 -186l-43 -9q-51 172 -207 172q-109 0 -171.5 -80.5t-62.5 -207.5q0 -135 69 -220t171 -85q147 0 221 174l45 -11q-41 -156 -53 -184q-111 -39 -213 -39q-186 0 -287.5 104.5t-101.5 245.5z" />
<glyph unicode="&#xaa;" horiz-adv-x="624" d="M68 707q0 88 98 124q188 70 215 91v20q0 51 -27.5 82t-74.5 31q-66 0 -97 -109q-10 -31 -43 -31q-23 0 -43 17.5t-20 40.5q0 31 41 57q98 70 200 88q180 0 181 -182v-221q0 -70 43 -70q20 0 49 12l14 -39l-129 -67q-70 2 -90 80q-127 -80 -160 -80q-68 0 -112.5 47 t-44.5 109zM195 729q0 -41 26.5 -65.5t63.5 -24.5q55 0 96 41v186q-25 -12 -127 -55q-59 -33 -59 -82z" />
<glyph unicode="&#xab;" horiz-adv-x="909" d="M100 453q121 121 326 376l45 -30l-190 -346l190 -342l-47 -33q-213 270 -324 375zM440 453q141 147 324 376l47 -30l-190 -346l190 -342l-47 -33q-203 258 -324 375z" />
<glyph unicode="&#xac;" horiz-adv-x="1187" d="M106 651v103h977v-555h-118v452h-859z" />
<glyph unicode="&#xad;" horiz-adv-x="729" d="M117 406l28 112h469l-28 -112h-469z" />
<glyph unicode="&#xae;" horiz-adv-x="657" d="M66 1085q0 106 77.5 185.5t188.5 79.5q113 0 188.5 -78t75.5 -187q0 -106 -77 -184t-189.5 -78t-188 76t-75.5 186zM125 1085.5q0 -92.5 59.5 -154t147.5 -61.5t147.5 61.5t59.5 153.5q0 90 -60.5 154t-148.5 64t-146.5 -62.5t-58.5 -155zM203 948v31q29 2 34 7t5 32v139 q0 27 -5.5 32t-31.5 7v31h139q98 0 98 -72q0 -49 -55 -70q23 -41 68 -96q3 -4 26 -18l-6 -25q-70 0 -100 41q-10 16 -23 41l-14 25q-6 14 -27 14h-8v-49q0 -27 5 -32t32 -7v-31h-137zM303 1098h16q16 0 37 8q20 14 21 43q0 47 -49 47q-25 0 -25 -25v-73z" />
<glyph unicode="&#xaf;" horiz-adv-x="819" d="M184 1122v113h451v-113h-451z" />
<glyph unicode="&#xb0;" horiz-adv-x="702" d="M66 1079q0 125 84.5 203t203.5 78q115 0 200 -79t85 -202q0 -129 -84 -204.5t-203 -75.5t-202.5 75.5t-83.5 204.5zM188 1079q0 -86 46.5 -139t119.5 -53q72 0 117 53t45 137q0 88 -45 141.5t-119 53.5q-72 0 -118 -53.5t-46 -139.5z" />
<glyph unicode="&#xb1;" horiz-adv-x="1187" d="M106 0v102h977v-102h-977zM106 637v102h431v391h118v-391h428v-102h-428v-418h-118v418h-431z" />
<glyph unicode="&#xb2;" horiz-adv-x="698" d="M82 821v45l41 33q41 33 51 42t49 43t53.5 50.5t46 49t45 55t32 53.5t25.5 58.5t7 54.5q0 74 -39 111.5t-98 37.5q-90 0 -174 -113l-35 37l66 88q74 92 198 93q92 0 158.5 -59.5t66.5 -160.5q0 -72 -48 -138t-169 -173l-106 -96v-4h186q61 0 87 15.5t57 74.5l45 -14 q-27 -90 -47 -183h-498z" />
<glyph unicode="&#xb3;" horiz-adv-x="698" d="M94 907q8 29 37 49q18 16 43 -2q88 -68 156 -67q57 0 94 38t37 115q0 66 -47 102t-111 36q-41 0 -84 -15l-12 49q203 66 203 160q0 41 -29 67.5t-78 26.5q-88 0 -153 -102l-35 33l61 84q27 31 76 53t100 22h2q86 0 139.5 -46t53.5 -111q0 -55 -39 -84q-45 -35 -88 -58 l2 -4q84 -16 131 -60t47 -110q0 -68 -41 -123t-99.5 -86.5t-112.5 -49t-91 -17.5q-82 0 -139 43q-33 27 -23 57z" />
<glyph unicode="&#xb4;" horiz-adv-x="819" d="M342 1038q16 37 48 110t59.5 139.5t31.5 74.5q14 6 81 14t85 4l6 -18l-258 -350z" />
<glyph unicode="&#xb5;" horiz-adv-x="1048" d="M139 883l166 37q4 -47 4 -215v-351q0 -133 56.5 -192.5t130.5 -59.5q115 0 204 109v672l164 37v-687q0 -143 84 -143q35 1 72 21l20 -54q-27 -33 -76 -57.5t-98 -24.5q-63 0 -106 44t-53 116h-5q-141 -160 -274 -160q-106 0 -166 86h-8v-32q-2 -115 24.5 -290t51.5 -241 l-27 -24q-33 2 -81 28.5t-72 51.5q-4 14 -5 530v602q0 123 -6 197z" />
<glyph unicode="&#xb6;" horiz-adv-x="1017" d="M102 659q0 199 136 328q63 59 147 94t156 35h405l8 -24l-61 -56l-180 -20v-971q0 -236 -138 -379q-41 -43 -99 -72.5t-79 -29.5q-88 0 -135 47q-33 31 -20 61q8 27 41 56q18 14 39 0q68 -45 129 -45q158 0 157 321v307l-137 -59q-12 -6 -35 -6q-102 0 -218 118.5 t-116 294.5z" />
<glyph unicode="&#xb7;" horiz-adv-x="462" d="M115 477q0 49 32.5 83t83.5 34q49 0 83 -34t34 -83q0 -53 -34 -87t-85 -34q-49 0 -81.5 34t-32.5 87z" />
<glyph unicode="&#xb8;" horiz-adv-x="819" d="M291 -436q123 53 123 123q0 33 -47 80q-41 37 -46.5 62.5t23.5 66.5l78 102h80l-43 -55q-20 -27 -17.5 -43.5t29.5 -40.5q80 -82 80 -142q0 -63 -63.5 -118.5t-172.5 -87.5z" />
<glyph unicode="&#xb9;" horiz-adv-x="698" d="M154 1450v47q133 14 272 59v-565q0 -72 23.5 -91t109.5 -30v-47h-403v47q86 6 110.5 27t24.5 94v365q0 59 -12.5 73.5t-63.5 18.5z" />
<glyph unicode="&#xba;" horiz-adv-x="684" d="M55 825q0 135 91.5 213t197.5 78q123 0 203 -80t80 -194q0 -133 -87 -211t-196 -78q-131 0 -210 82t-79 190zM197 858q0 -109 45 -179.5t110 -70.5q59 0 96 50.5t37 152.5q0 111 -41.5 180.5t-117.5 69.5q-51 0 -90 -54.5t-39 -148.5z" />
<glyph unicode="&#xbb;" horiz-adv-x="911" d="M100 109l193 344l-193 346l47 30q197 -250 324 -376q-121 -117 -324 -375zM438 109l191 344l-191 346l47 30q197 -250 324 -376q-121 -117 -324 -375z" />
<glyph unicode="&#xbc;" horiz-adv-x="1560" d="M160 1194v45q139 18 272 61v-565q0 -72 23.5 -91t109.5 -30v-47l-403 -2v47q86 8 110.5 29t24.5 92v367q0 57 -12.5 72.5t-63.5 17.5zM340 -4l827 1345l68 -47l-832 -1347zM829 203v47q229 305 377 485h80v-456h121v-76h-121v-60q0 -59 20.5 -75.5t92.5 -20.5v-47h-371 v47q88 6 110.5 21.5t22.5 74.5v60h-332zM934 279h227v305h-6q-94 -121 -221 -305z" />
<glyph unicode="&#xbd;" horiz-adv-x="1560" d="M147 1194v45q141 18 271 61v-565q0 -72 23.5 -91t109.5 -30v-47l-401 -2v47q86 8 110.5 29t24.5 92v367q0 57 -12.5 72.5t-63.5 17.5zM311 -6l828 1347l67 -47l-831 -1349zM895 0v45q182 147 248 221q104 119 104 215q0 74 -39 112t-98 38q-90 0 -174 -113l-37 37l68 88 q70 92 198 92q92 0 158 -59.5t68 -159.5q0 -72 -48.5 -138.5t-168.5 -170.5l-109 -96v-5h188q59 0 86 17t58 74l45 -15q-33 -106 -49 -182h-498z" />
<glyph unicode="&#xbe;" horiz-adv-x="1560" d="M152 651q8 31 34 49q20 14 43 -2q86 -68 156 -67q57 0 94 38t37 113q0 68 -47 104t-113 36q-41 0 -84 -15l-12 49q100 33 151.5 71t51.5 91q0 41 -27.5 66.5t-77.5 25.5q-88 0 -153 -102l-33 33l59 84q27 31 76 53t101 22h2q86 0 140 -45t52 -110q0 -51 -37 -84 q-45 -37 -88 -60v-4q84 -14 131 -59t47 -111q0 -68 -41 -123t-99 -86.5t-112.5 -49t-89.5 -17.5q-84 0 -141 43q-31 25 -20 57zM346 -4l828 1345l67 -47l-831 -1347zM817 203v47q229 305 377 485h80v-456h121v-76h-121v-60q0 -59 20.5 -75.5t91.5 -20.5v-47h-368v47 q86 6 108.5 21.5t22.5 74.5v60h-332zM922 279h227v305h-6q-94 -121 -221 -305z" />
<glyph unicode="&#xbf;" horiz-adv-x="776" d="M94 -143q0 104 99 182q12 10 61 47t78.5 62.5t58.5 65.5t29 75q0 49 -22.5 83t-73.5 79l36 47q74 -25 152 -103t78 -162q0 -53 -39 -105t-135 -126q-45 -33 -65.5 -49t-59.5 -51t-56.5 -66t-17.5 -61q0 -111 121 -111q57 0 109.5 26.5t84 54.5t39.5 28q25 0 54.5 -28 t29.5 -62.5t-43 -73.5q-43 -37 -99 -56.5t-89 -19.5h-2q-127 0 -227.5 99.5t-100.5 224.5zM279 801q0 51 31.5 84t80.5 33q47 0 79 -33t32 -84q0 -49 -33 -83t-80 -34t-78.5 34t-31.5 83z" />
<glyph unicode="&#xc0;" d="M41 0v57q102 14 140 48t89 165l424 1073l64 19q45 -127 183 -512t212 -586q47 -129 85 -162.5t140 -44.5v-57h-501v57q96 12 118.5 33t1.5 80q-14 41 -112 315h-436q-63 -180 -91 -264q-33 -96 -10 -124.5t139 -39.5v-57h-446zM420 1546q6 23 37.5 67t50.5 50 q257 -168 323 -211l-26 -51l-381 129zM479 573h377l-180 523h-4q-33 -86 -96.5 -261.5t-96.5 -261.5z" />
<glyph unicode="&#xc1;" d="M41 0v57q102 14 140 48t89 165l424 1073l64 19q45 -127 183 -512t212 -586q47 -129 85 -162.5t140 -44.5v-57h-501v57q96 12 118.5 33t1.5 80q-14 41 -112 315h-436q-63 -180 -91 -264q-33 -96 -10 -124.5t139 -39.5v-57h-446zM479 573h377l-180 523h-4 q-33 -86 -96.5 -261.5t-96.5 -261.5zM623 1452q35 23 321 209q18 -2 51 -46t37 -67l-4 -16l-379 -131z" />
<glyph unicode="&#xc2;" d="M41 0v57q102 14 140 48t89 165l424 1073l64 19q45 -127 183 -512t212 -586q47 -129 85 -162.5t140 -44.5v-57h-501v57q96 12 118.5 33t1.5 80q-14 41 -112 315h-436q-63 -180 -91 -264q-33 -96 -10 -124.5t139 -39.5v-57h-446zM451 1452q190 145 258 219h45 q74 -78 256 -219l-33 -51q-104 43 -248 127q-162 -92 -246 -127zM479 573h377l-180 523h-4q-33 -86 -96.5 -261.5t-96.5 -261.5z" />
<glyph unicode="&#xc3;" d="M41 0v57q102 14 140 48t89 165l424 1073l64 19q45 -127 183 -512t212 -586q47 -129 85 -162.5t140 -44.5v-57h-501v57q96 12 118.5 33t1.5 80q-14 41 -112 315h-436q-63 -180 -91 -264q-33 -96 -10 -124.5t139 -39.5v-57h-446zM459 1448q64 166 164 166q41 0 127 -37 q63 -33 110 -33q53 0 94 86l52 -26q-53 -174 -168 -174q-43 0 -144 43q-53 29 -90 28q-47 0 -96 -90zM479 573h377l-180 523h-4q-33 -86 -96.5 -261.5t-96.5 -261.5z" />
<glyph unicode="&#xc4;" d="M41 0v57q102 14 141 48t90 165l422 1073l64 19q45 -127 183 -512t212 -586q47 -129 85 -162.5t140 -44.5v-57h-504v57q96 12 119 33t2 80q-39 115 -110 315h-436q-33 -92 -91 -264q-33 -96 -10 -124.5t139 -39.5v-57h-446zM430 1524q0 43 28.5 72.5t69.5 29.5t69 -29.5 t28 -72.5q0 -41 -29 -70t-70 -29q-39 0 -67.5 30t-28.5 69zM481 573h375l-180 523h-4q-39 -102 -109.5 -297t-81.5 -226zM821 1524q0 43 29 72.5t70 29.5t68.5 -29.5t27.5 -72.5q0 -41 -29 -70t-69 -29q-39 0 -68 30t-29 69z" />
<glyph unicode="&#xc5;" d="M41 0v57q102 14 140 48t89 165l424 1073l64 19q45 -127 183 -512t212 -586q47 -129 85 -162.5t140 -44.5v-57h-501v57q96 12 117.5 33t2.5 80q-14 41 -112 315h-436q-63 -180 -91 -264q-33 -96 -10 -124.5t137 -39.5v-57h-444zM479 573h377l-180 523h-4 q-25 -66 -193 -523zM545 1581q0 76 54 123t128 47q72 0 126 -47t54 -123q0 -78 -55 -127t-127 -47q-72 0 -126 48t-54 126zM635 1581q0 -49 25.5 -81t64.5 -32q41 0 65.5 32t24.5 81q0 47 -24.5 77t-67.5 30q-39 0 -63.5 -30t-24.5 -77z" />
<glyph unicode="&#xc6;" horiz-adv-x="1779" d="M-23 0v55q100 14 142.5 44t99.5 130q109 190 492 924q35 63 23.5 85t-87.5 30l-84 10v53h1051q6 -143 20 -291l-61 -8q-31 127 -66 170q-25 33 -67.5 45.5t-147.5 12.5h-170q-45 0 -55 -9.5t-10 -54.5v-510h182q137 0 171 25.5t54 132.5h62v-400h-62q-16 80 -32.5 109 t-56.5 41t-136 12h-182v-340q0 -139 49 -170q41 -25 209 -24q113 0 170 14t92 55q51 62 100 197l60 -14q-41 -209 -74 -324h-969v57q131 8 162 43t31 174v332h-363q-121 -225 -196 -397q-39 -80 -18.5 -109.5t136.5 -44.5v-55h-469zM561 686h326v563q-25 0 -58 -39 q-133 -250 -268 -524z" />
<glyph unicode="&#xc7;" horiz-adv-x="1353" d="M94 643q0 317 218 518t558 201q143 0 365 -55q29 -201 41 -316l-62 -10q-47 166 -138 235.5t-263 69.5q-229 0 -368.5 -169t-139.5 -427q0 -283 143.5 -463t380.5 -180q154 0 247 75t179 243l58 -23q-53 -205 -111 -319q-205 -47 -338 -50l-22 -28q-18 -27 -15.5 -43.5 t27.5 -42.5q78 -78 78 -139.5t-62.5 -119t-169.5 -89.5l-28 57q125 55 125 123q0 31 -47 78q-39 37 -44.5 62.5t21.5 64.5l55 75q-139 4 -255.5 45t-194.5 107.5t-133.5 152.5t-80 178.5t-24.5 188.5z" />
<glyph unicode="&#xc8;" horiz-adv-x="1163" d="M59 0v57q139 8 171 40t32 159v815q0 135 -26.5 164t-149.5 39v57h913q0 -16 17 -295l-60 -8q-23 104 -65 174q-23 35 -72 47.5t-160 12.5h-155q-47 0 -57.5 -10.5t-10.5 -55.5v-467h193q137 0 169.5 24.5t51.5 129.5h59v-391h-59q-20 111 -53 134t-166 23h-195v-385 q0 -133 49 -168q43 -27 213 -26q117 0 170.5 14t87.5 55q60 74 103 193l59 -8q-37 -205 -71 -324h-988zM303 1546q6 23 38 67t50 50q191 -123 324 -211l-27 -51l-381 131z" />
<glyph unicode="&#xc9;" horiz-adv-x="1163" d="M59 0v57q139 8 171 40t32 159v815q0 135 -26.5 164t-149.5 39v57h913q0 -16 17 -295l-60 -8q-23 104 -65 174q-23 35 -72 47.5t-160 12.5h-155q-47 0 -57.5 -10.5t-10.5 -55.5v-467h193q137 0 169.5 24.5t51.5 129.5h59v-391h-59q-20 111 -53 134t-166 23h-195v-385 q0 -133 49 -168q43 -27 213 -26q117 0 170.5 14t87.5 55q60 74 103 193l59 -8q-37 -205 -71 -324h-988zM473 1452q35 23 322 209q18 -2 51 -46t37 -67l-4 -16l-379 -131z" />
<glyph unicode="&#xca;" horiz-adv-x="1163" d="M59 0v57q139 8 171 40t32 159v815q0 135 -26.5 164t-149.5 39v57h913q0 -16 17 -295l-60 -8q-23 104 -65 174q-23 35 -72 47.5t-160 12.5h-155q-47 0 -57.5 -10.5t-10.5 -55.5v-467h193q137 0 169.5 24.5t51.5 129.5h59v-391h-59q-20 111 -53 134t-166 23h-195v-385 q0 -133 49 -168q43 -27 213 -26q117 0 170.5 14t87.5 55q60 74 103 193l59 -8q-37 -205 -71 -324h-988zM309 1452q184 141 258 219h45q80 -84 256 -219l-32 -51q-102 43 -248 127q-162 -92 -246 -127z" />
<glyph unicode="&#xcb;" horiz-adv-x="1163" d="M59 0v57q139 8 171 40t32 159v815q0 135 -26.5 164t-149.5 39v57h913q0 -16 17 -295l-60 -8q-23 104 -65 174q-23 35 -72 47.5t-160 12.5h-155q-47 0 -57.5 -10.5t-10.5 -55.5v-467h193q137 0 169.5 24.5t51.5 129.5h59v-391h-59q-20 111 -53 134t-166 23h-195v-385 q0 -133 49 -168q43 -27 213 -26q117 0 170.5 14t87.5 55q60 74 103 193l59 -8q-37 -205 -71 -324h-988zM301 1530q0 43 29.5 72.5t70.5 29.5t69 -29.5t28 -72.5q0 -41 -29 -69.5t-70 -28.5q-39 0 -68.5 29.5t-29.5 68.5zM692 1532q0 43 29 71.5t69.5 28.5t68.5 -28.5 t28 -71.5q0 -41 -29 -70.5t-70 -29.5q-39 0 -67.5 29.5t-28.5 70.5z" />
<glyph unicode="&#xcc;" horiz-adv-x="698" d="M72 1546q6 23 37.5 67t50.5 50q257 -168 323 -211l-26 -51l-381 129zM78 0v57q127 10 155.5 40t28.5 159v819q0 129 -28.5 159t-155.5 40v57h543v-57q-127 -10 -156 -40t-29 -159v-819q0 -131 29 -159.5t156 -39.5v-57h-543z" />
<glyph unicode="&#xcd;" horiz-adv-x="698" d="M78 0v57q127 10 155.5 40t28.5 159v819q0 129 -28.5 159t-155.5 40v57h543v-57q-127 -10 -156 -40t-29 -159v-819q0 -131 29 -159.5t156 -39.5v-57h-543zM229 1452q35 23 322 209q18 -2 51 -46t37 -67l-4 -16l-379 -131z" />
<glyph unicode="&#xce;" horiz-adv-x="698" d="M70 1452q190 145 258 219h45q74 -78 256 -219l-33 -51q-104 43 -248 127q-162 -92 -246 -127zM78 0v57q127 10 155.5 40t28.5 159v819q0 129 -28.5 159t-155.5 40v57h543v-57q-127 -10 -156 -40t-29 -159v-819q0 -131 29 -159.5t156 -39.5v-57h-543z" />
<glyph unicode="&#xcf;" horiz-adv-x="698" d="M57 1526q0 43 29 72.5t70 29.5t68.5 -29.5t27.5 -72.5q0 -41 -28.5 -70t-69.5 -29q-39 0 -68 30t-29 69zM78 0v57q127 10 155.5 40t28.5 159v819q0 129 -28.5 159t-155.5 40v57h540v-57q-125 -10 -153.5 -40t-28.5 -159v-819q0 -131 28 -159.5t154 -39.5v-57h-540z M446 1526q0 43 29 72.5t70 29.5t68.5 -29.5t27.5 -72.5q0 -41 -28.5 -70t-69.5 -29q-39 0 -68 30t-29 69z" />
<glyph unicode="&#xd0;" horiz-adv-x="1509" d="M76 655v84h209v312q0 80 -4.5 117.5t-26 63t-50 31t-95.5 11.5v57h565q385 0 567 -174q176 -170 176 -440q0 -356 -256 -547q-225 -170 -600 -170h-469v57q133 10 163 44t30 180v374h-209zM459 270q0 -111 38 -152.5t160 -41.5q272 0 413.5 173t141.5 437q0 350 -235 498 q-127 80 -332 80q-121 0 -162 -21q-25 -14 -24 -88v-416h321v-84h-321v-385z" />
<glyph unicode="&#xd1;" horiz-adv-x="1521" d="M41 1274v57h301l856 -1026h6v502q0 240 -14 340q-8 70 -50 95.5t-151 31.5v57h484v-57q-88 -4 -127 -30.5t-46 -90.5q-12 -96 -12 -346v-825h-63l-873 1073h-4v-514q0 -227 12 -346q8 -76 49.5 -104t147.5 -34v-57h-485v57q92 6 132 34t48 99q12 127 12 351v450 q0 111 -6 140.5t-35 66.5q-33 39 -70.5 54.5t-111.5 21.5zM498 1446q68 168 168 168q41 0 125 -39q70 -33 112 -33q51 0 94 88l50 -28q-55 -174 -168 -175q-47 0 -144 46q-57 29 -90 28q-51 0 -96 -90z" />
<glyph unicode="&#xd2;" horiz-adv-x="1529" d="M90 651q0 291 189.5 501t500.5 210q268 0 464 -190.5t196 -489.5q0 -324 -196.5 -518.5t-487.5 -194.5q-281 0 -473.5 194.5t-192.5 487.5zM299 709q0 -289 141.5 -477.5t358.5 -188.5q184 0 308 151.5t124 432.5q0 311 -141.5 486t-354.5 175q-182 0 -309 -152.5 t-127 -426.5zM500 1565q6 23 37.5 66.5t50.5 49.5q257 -168 323 -211l-26 -51l-381 129z" />
<glyph unicode="&#xd3;" horiz-adv-x="1529" d="M90 651q0 291 189.5 501t500.5 210q268 0 464 -190.5t196 -489.5q0 -324 -196.5 -518.5t-487.5 -194.5q-281 0 -473.5 194.5t-192.5 487.5zM299 709q0 -289 141.5 -477.5t358.5 -188.5q184 0 308 151.5t124 432.5q0 311 -141.5 486t-354.5 175q-182 0 -309 -152.5 t-127 -426.5zM621 1466q35 23 321 209q18 -2 51 -45.5t37 -66.5l-4 -17l-379 -131z" />
<glyph unicode="&#xd4;" horiz-adv-x="1529" d="M90 651q0 291 189.5 501t500.5 210q268 0 464 -190.5t196 -489.5q0 -324 -196.5 -518.5t-487.5 -194.5q-281 0 -473.5 194.5t-192.5 487.5zM299 709q0 -289 141.5 -477.5t358.5 -188.5q184 0 308 151.5t124 432.5q0 311 -141.5 486t-354.5 175q-182 0 -309 -152.5 t-127 -426.5zM483 1466q190 145 258 220h45q74 -79 256 -220l-32 -51q-104 43 -248 127q-162 -92 -246 -127z" />
<glyph unicode="&#xd5;" horiz-adv-x="1529" d="M90 651q0 291 189.5 501t500.5 210q268 0 464 -190.5t196 -489.5q0 -324 -196.5 -518.5t-487.5 -194.5q-281 0 -473.5 194.5t-192.5 487.5zM299 709q0 -289 141.5 -477.5t358.5 -188.5q184 0 308 151.5t124 432.5q0 311 -141.5 486t-354.5 175q-182 0 -309 -152.5 t-127 -426.5zM494 1464q67 168 165 168q43 0 127 -39q70 -33 111 -32q53 0 94 88l51 -27q-53 -174 -168 -174q-43 0 -143 43q-57 29 -90 29q-49 0 -98 -90z" />
<glyph unicode="&#xd6;" horiz-adv-x="1529" d="M90 651q0 186 81 347t241.5 262.5t367.5 101.5q268 0 464 -190.5t196 -489.5q0 -324 -196.5 -518.5t-487.5 -194.5q-281 0 -473.5 194.5t-192.5 487.5zM299 709q0 -289 142.5 -477.5t359.5 -188.5q182 0 306 151.5t124 432.5q0 311 -141.5 486t-354.5 175 q-180 0 -308 -152.5t-128 -426.5zM471 1534q0 43 28.5 72.5t69.5 29.5t69 -29.5t28 -72.5q0 -41 -29 -69.5t-70 -28.5q-39 0 -67.5 29.5t-28.5 68.5zM862 1534q0 43 29 72.5t69.5 29.5t68.5 -29.5t28 -72.5q0 -41 -29 -69.5t-70 -28.5q-39 0 -67.5 29.5t-28.5 68.5z" />
<glyph unicode="&#xd7;" horiz-adv-x="1187" d="M123 96l395 408l-395 405l72 78l399 -407l399 409l76 -76l-399 -409l399 -408l-76 -78l-399 408l-399 -408z" />
<glyph unicode="&#xd8;" horiz-adv-x="1533" d="M102 653q0 289 193.5 499t503.5 210q190 0 334 -94l102 153l61 -41l-100 -151q117 -96 187.5 -236.5t70.5 -306.5q0 -324 -197.5 -520.5t-490.5 -196.5q-195 0 -354 103l-115 -164l-55 47l108 160q-115 96 -181.5 235t-66.5 303zM307 705q0 -271 137 -453l615 907 q-121 129 -307.5 129t-315.5 -153.5t-129 -429.5zM492 188q115 -145 309 -145q221 0 334.5 164t113.5 418q0 280 -141 475z" />
<glyph unicode="&#xd9;" horiz-adv-x="1507" d="M68 1274v57h528v-57q-121 -8 -148.5 -39t-27.5 -168v-465q0 -250 98 -385t287 -135q387 0 387 586v153q0 227 -14 338q-8 59 -49.5 83t-149.5 32v57h487v-57q-94 -6 -133 -31.5t-45 -89.5q-12 -111 -12 -332v-168q0 -377 -154 -540q-139 -141 -368 -142q-201 0 -328 99 q-180 137 -180 487v510q0 135 -28 166t-150 41zM485 1546q6 23 38 67t50 50q258 -168 324 -211l-27 -51l-381 129z" />
<glyph unicode="&#xda;" horiz-adv-x="1507" d="M68 1274v57h528v-57q-121 -8 -148.5 -39t-27.5 -168v-465q0 -250 98 -385t287 -135q387 0 387 586v153q0 227 -14 338q-8 59 -49.5 83t-149.5 32v57h487v-57q-94 -6 -133 -31.5t-45 -89.5q-12 -111 -12 -332v-168q0 -377 -154 -540q-139 -141 -368 -142q-201 0 -328 99 q-180 137 -180 487v510q0 135 -28 166t-150 41zM653 1452q35 23 322 209q18 -2 51 -46t37 -67l-4 -16l-379 -131z" />
<glyph unicode="&#xdb;" horiz-adv-x="1507" d="M68 1274v57h528v-57q-121 -8 -148.5 -39t-27.5 -168v-465q0 -250 98 -385t287 -135q387 0 387 586v153q0 227 -14 338q-8 59 -49.5 83t-149.5 32v57h487v-57q-94 -6 -133 -31.5t-45 -89.5q-12 -111 -12 -332v-168q0 -377 -154 -540q-139 -141 -368 -142q-201 0 -328 99 q-180 137 -180 487v510q0 135 -28 166t-150 41zM500 1452q190 145 258 219h45q74 -78 256 -219l-33 -51q-104 43 -248 127q-162 -92 -246 -127z" />
<glyph unicode="&#xdc;" horiz-adv-x="1507" d="M68 1274v57h528v-57q-121 -8 -148.5 -40t-27.5 -167v-465q0 -250 98 -385t289 -135q385 0 385 586v153q0 227 -14 338q-10 59 -50.5 83t-148.5 32v57h487v-57q-94 -6 -133 -31.5t-45 -89.5q-12 -111 -12 -332v-168q0 -377 -156 -540q-135 -141 -366 -142q-201 0 -328 99 q-180 137 -180 487v510q0 135 -28 166t-150 41zM479 1526q0 43 29 72.5t69.5 29.5t68.5 -29.5t28 -72.5q0 -41 -29 -70t-70 -29q-39 0 -67.5 30t-28.5 69zM868 1526q0 43 29 72.5t70 29.5t68.5 -29.5t27.5 -72.5q0 -41 -28.5 -70t-69.5 -29q-39 0 -68 30t-29 69z" />
<glyph unicode="&#xdd;" horiz-adv-x="1298" d="M33 1274v57h487v-57q-102 -12 -119.5 -37t17.5 -74q70 -135 276 -485q190 348 242 461q37 76 18.5 99.5t-137.5 35.5v57h453v-57q-104 -12 -144.5 -39t-99.5 -123q-135 -217 -260 -448q-35 -66 -35 -129v-279q0 -129 33 -158.5t174 -40.5v-57h-580v57q137 10 168 40 t31 159v272q0 49 -41 123q-10 20 -100 179t-156 270q-66 109 -101.5 137.5t-125.5 36.5zM555 1452q199 129 322 209q18 -2 50 -46t36 -67l-2 -16l-379 -131z" />
<glyph unicode="&#xde;" horiz-adv-x="1124" d="M78 0v57q121 10 148.5 42t27.5 171v791q0 141 -25.5 172t-142.5 41v57h504v-57q-53 -4 -75.5 -9t-45.5 -15.5t-29 -39t-10 -66.5t-4 -110q123 4 180 4q438 0 438 -348q0 -180 -138 -278.5t-335 -100.5l-145 35v-86q0 -131 30.5 -161.5t161.5 -41.5v-57h-540zM426 418 q59 -25 139 -25q123 0 203 76t80 215q0 141 -76 214t-213 73q-82 0 -110 -19q-23 -12 -23 -65v-469z" />
<glyph unicode="&#xdf;" horiz-adv-x="1116" d="M57 827l58 68h96v25q0 96 25 174q45 150 167 254q119 98 263 110q143 -4 230 -84t91 -223q0 -49 -22 -86q-211 -162 -211 -279q0 -35 24.5 -72.5t46 -58t72.5 -65.5q164 -141 164 -271q0 -141 -128 -243.5t-249 -102.5q-70 0 -113 27q-47 31 -41 70q8 29 39 53 q23 18 41 2q78 -59 152 -59q55 0 101 42t46 128q0 61 -34.5 112t-106.5 113q-168 141 -168 250q0 53 33 104t110 133q82 82 88 92q14 27 15 70q0 104 -69.5 183t-174.5 79q-74 0 -121 -43t-69.5 -128t-30.5 -172t-8 -210v-606q0 -96 17.5 -123t90.5 -35v-55h-418v55 q98 8 123 34t25 120v598h-143z" />
<glyph unicode="&#xe0;" horiz-adv-x="899" d="M80 225q0 145 166 203q262 88 317 133v35q0 111 -47 171t-127 60q-57 0 -92 -38.5t-59 -135.5q-14 -47 -60 -47q-31 0 -59.5 26.5t-28.5 61.5t64 82q51 39 140 83t167 61q100 0 168 -56q92 -80 92 -252v-379q0 -123 72 -122q37 0 73 22l21 -53l-174 -105q-55 0 -97 41 q-33 33 -49 90q-10 -6 -49 -33.5t-55.5 -37.5t-47 -27.5t-51 -25t-38.5 -7.5q-106 0 -176 75t-70 175zM221 1333l6 17q16 8 78 19t82 7q20 -49 65.5 -173t63.5 -171l-55 -26q-133 184 -240 327zM254 254q0 -72 46 -114t99 -42q39 0 86 21.5t78 52.5v320q-25 -12 -100.5 -47 t-83.5 -39q-63 -29 -94 -64t-31 -88z" />
<glyph unicode="&#xe1;" horiz-adv-x="899" d="M80 225q0 145 166 203q262 88 317 133v35q0 111 -47 171t-127 60q-57 0 -92 -38.5t-59 -135.5q-14 -47 -60 -47q-31 0 -59.5 26.5t-28.5 61.5t64 82q51 39 140 83t167 61q100 0 168 -56q92 -80 92 -252v-379q0 -123 72 -122q37 0 73 22l21 -53l-174 -105q-55 0 -97 41 q-33 33 -49 90q-10 -6 -49 -33.5t-55.5 -37.5t-47 -27.5t-51 -25t-38.5 -7.5q-106 0 -176 75t-70 175zM254 254q0 -72 46 -114t99 -42q39 0 86 21.5t78 52.5v320q-25 -12 -100.5 -47t-83.5 -39q-63 -29 -94 -64t-31 -88zM362 1038q16 37 48 110t60 139.5t32 74.5 q14 6 80.5 14t85.5 4l6 -18l-258 -350z" />
<glyph unicode="&#xe2;" horiz-adv-x="899" d="M80 225q0 145 166 203q262 88 317 133v35q0 111 -47 171t-127 60q-57 0 -92 -38.5t-59 -135.5q-14 -47 -60 -47q-31 0 -59.5 26.5t-28.5 61.5t64 82q51 39 140 83t167 61q100 0 168 -56q92 -80 92 -252v-379q0 -123 72 -122q37 0 73 22l21 -53l-174 -105q-55 0 -97 41 q-33 33 -49 90q-10 -6 -49 -33.5t-55.5 -37.5t-47 -27.5t-51 -25t-38.5 -7.5q-106 0 -176 75t-70 175zM197 1042q100 139 206 334h52q89 -172 202 -334l-51 -34q-82 78 -178 198q-104 -129 -182 -198zM254 254q0 -72 46 -114t99 -42q39 0 86 21.5t78 52.5v320 q-25 -12 -100.5 -47t-83.5 -39q-63 -29 -94 -64t-31 -88z" />
<glyph unicode="&#xe3;" horiz-adv-x="899" d="M80 225q0 145 166 203q262 88 317 133v35q0 111 -47 171t-127 60q-57 0 -92 -38.5t-59 -135.5q-14 -47 -60 -47q-31 0 -59.5 26.5t-28.5 61.5t64 82q51 39 140 83t167 61q100 0 168 -56q92 -80 92 -252v-379q0 -123 72 -122q37 0 73 22l21 -53l-174 -105q-55 0 -97 41 q-33 33 -49 90q-10 -6 -49 -33.5t-55.5 -37.5t-47 -27.5t-51 -25t-38.5 -7.5q-106 0 -176 75t-70 175zM168 1100q59 184 166 184q39 0 119 -41q74 -39 108 -39q45 0 88 92l51 -26q-57 -184 -163 -185q-47 0 -134 48q-59 33 -94 32q-47 0 -90 -98zM254 254q0 -72 46 -114 t99 -42q39 0 86 21.5t78 52.5v320q-25 -12 -100.5 -47t-83.5 -39q-63 -29 -94 -64t-31 -88z" />
<glyph unicode="&#xe4;" horiz-adv-x="899" d="M80 225q0 145 166 203q262 88 317 133v35q0 111 -47 171t-125 60q-59 0 -92 -39q-33 -35 -59 -135q-14 -47 -62 -47q-31 0 -59.5 26.5t-28.5 61.5q0 37 66 82q51 39 139 83t166 61q100 0 168 -56q92 -80 92 -252v-379q0 -123 72 -122q37 0 73 22l21 -53l-174 -105 q-55 0 -97 41q-33 33 -49 90q-10 -6 -49 -33.5t-55.5 -37.5t-47 -27.5t-51 -25t-38.5 -7.5q-106 0 -176 75t-70 175zM160 1200q0 43 28.5 71.5t69.5 28.5t68.5 -28.5t27.5 -71.5q0 -41 -28.5 -69.5t-69.5 -28.5q-39 0 -67.5 28.5t-28.5 69.5zM254 254q0 -72 46 -114t99 -42 q39 0 87 22.5t77 51.5v320q-25 -12 -100.5 -47t-83.5 -39q-63 -29 -94 -64t-31 -88zM504 1200q0 43 28.5 71.5t69.5 28.5t68.5 -28.5t27.5 -71.5q0 -41 -28.5 -69.5t-69.5 -28.5q-39 0 -67.5 29.5t-28.5 68.5z" />
<glyph unicode="&#xe5;" horiz-adv-x="899" d="M80 225q0 145 166 203q262 88 317 133v35q0 111 -47 171t-127 60q-57 0 -92 -38.5t-59 -135.5q-14 -47 -60 -47q-31 0 -59.5 26.5t-28.5 61.5t64 82q51 39 140 83t167 61q100 0 168 -56q92 -80 92 -252v-379q0 -123 72 -122q37 0 73 22l21 -53l-174 -105q-55 0 -97 41 q-33 33 -49 90q-10 -6 -34.5 -23t-38 -26.5t-36 -24t-36.5 -23.5t-32.5 -17t-34 -12.5t-27.5 -4.5q-106 0 -177 75t-71 175zM248 1196q0 76 55 124t129 48q70 0 125 -48t55 -124q0 -78 -55 -126t-127 -48t-127 48t-55 126zM256 254q0 -74 45 -115t100 -41q37 0 85 21.5 t79 52.5v320q-29 -14 -186 -86q-63 -29 -93 -64t-30 -88zM340 1196q0 -47 26.5 -80t65.5 -33q41 0 65.5 32t24.5 81q0 47 -24.5 78t-67.5 31q-39 0 -64.5 -31t-25.5 -78z" />
<glyph unicode="&#xe6;" horiz-adv-x="1374" d="M82 221q0 78 39 126t123 77q18 6 87.5 30.5t103.5 38t79 33t68 35.5v49q0 94 -52.5 155.5t-128.5 61.5q-61 0 -96 -45q-29 -37 -55 -131q-16 -49 -57 -49q-27 0 -61 27.5t-34 58.5q0 43 64 88q164 111 309 144q92 0 152 -43q53 -39 82 -113q139 156 303 156 q129 0 221 -94.5t94 -215.5q0 -37 -9 -51t-38 -20q-104 -20 -545 -35q-2 -190 92.5 -290.5t227.5 -100.5q119 0 227 102l35 -43q-78 -106 -173.5 -151.5t-160.5 -45.5q-221 0 -330 183l-71 -58q-168 -125 -248 -125q-109 0 -178.5 75t-69.5 171zM256 260q0 -72 45.5 -114 t106.5 -42q125 0 213 115q-41 84 -41 273q-31 -16 -201 -86q-68 -29 -95.5 -61t-27.5 -85zM743 586q39 0 112 1t134.5 2t114.5 3q43 0 43 45q0 84 -51.5 144.5t-137.5 60.5q-76 0 -138 -67.5t-77 -188.5z" />
<glyph unicode="&#xe7;" horiz-adv-x="862" d="M76 399q0 244 205 402q152 119 313 119q115 0 184 -56q35 -29 31 -61q-2 -31 -26.5 -59.5t-47.5 -28.5q-16 0 -37 22q-94 82 -211 82q-96 0 -170.5 -82t-74.5 -241q0 -104 31.5 -183.5t82 -120t99.5 -59t96 -18.5q70 0 125 24t125 90l37 -45q-137 -166 -283 -198l-27 -39 q-18 -27 -14 -42.5t29 -41.5q76 -74 75 -137q0 -61 -61 -116.5t-168 -90.5l-22 53q121 51 120 125q0 31 -47 78q-39 37 -44 60.5t22 62.5l59 77q-176 6 -288.5 127t-112.5 297z" />
<glyph unicode="&#xe8;" horiz-adv-x="870" d="M76 412q0 211 135 358q137 150 299 150h2q125 0 216 -95.5t91 -216.5q0 -33 -9 -46t-38 -19q-111 -20 -536 -35q2 -195 94 -294t213 -99q124 0 235 102l31 -45q-86 -106 -178 -151.5t-156 -45.5q-182 0 -290.5 127t-108.5 310zM246 592q170 0 348 6q29 0 39 9t10 32 q2 84 -48 144.5t-134 60.5q-72 0 -132.5 -66.5t-82.5 -185.5zM248 1333l6 17q16 8 77.5 19t82.5 7q20 -49 65.5 -173t63.5 -171l-56 -26q-131 184 -239 327z" />
<glyph unicode="&#xe9;" horiz-adv-x="870" d="M76 412q0 211 135 358q137 150 299 150h2q125 0 216 -95.5t91 -216.5q0 -33 -9 -46t-38 -19q-111 -20 -536 -35q2 -195 94 -294t213 -99q124 0 235 102l31 -45q-86 -106 -178 -151.5t-156 -45.5q-182 0 -290.5 127t-108.5 310zM246 592q170 0 348 6q29 0 39 9t10 32 q2 84 -48 144.5t-134 60.5q-72 0 -132.5 -66.5t-82.5 -185.5zM393 1038q16 37 48 110t59.5 139.5t31.5 74.5q14 6 81 14t85 4l7 -18l-259 -350z" />
<glyph unicode="&#xea;" horiz-adv-x="870" d="M76 412q0 211 135 358q137 150 299 150h2q125 0 216 -95.5t91 -216.5q0 -33 -9 -46t-38 -19q-111 -20 -536 -35q2 -195 94 -294t213 -99q124 0 235 102l31 -45q-86 -106 -178 -151.5t-156 -45.5q-182 0 -290.5 127t-108.5 310zM236 1042q100 139 206 334h52 q89 -172 202 -334l-51 -34q-82 78 -178 198q-104 -129 -182 -198zM246 592q170 0 348 6q29 0 39 9t10 32q2 84 -48 144.5t-134 60.5q-72 0 -132.5 -66.5t-82.5 -185.5z" />
<glyph unicode="&#xeb;" horiz-adv-x="870" d="M76 412q0 207 135 358q137 150 299 150h2q125 0 215 -95.5t90 -216.5q0 -33 -9 -46t-38 -19q-111 -20 -532 -35q2 -195 93 -294t212 -99q124 0 233 102l31 -45q-84 -106 -176 -151.5t-156 -45.5q-180 0 -289.5 128t-109.5 309zM188 1200q0 43 29 71.5t70 28.5t68.5 -28.5 t27.5 -71.5q0 -41 -27.5 -69.5t-70.5 -28.5q-39 0 -68 29.5t-29 68.5zM248 592q168 0 346 6q29 0 39 9t10 32q0 84 -50 144.5t-132 60.5q-72 0 -131.5 -65.5t-81.5 -186.5zM535 1200q0 43 28.5 71.5t69.5 28.5t68.5 -28.5t27.5 -71.5q0 -41 -28.5 -69.5t-69.5 -28.5 q-39 0 -67.5 29.5t-28.5 68.5z" />
<glyph unicode="&#xec;" horiz-adv-x="548" d="M51 1333l6 17q16 8 78 19t82 7q20 -49 65.5 -173t63.5 -171l-55 -26q-131 184 -240 327zM68 0v53q98 10 120.5 37t22.5 131v410q0 102 -19.5 125.5t-109.5 38.5v49q160 25 291 80v-703q0 -106 23.5 -132t121.5 -36v-53h-450z" />
<glyph unicode="&#xed;" horiz-adv-x="548" d="M68 0v53q98 10 120.5 37t22.5 131v410q0 102 -19.5 125.5t-109.5 38.5v49q160 25 291 80v-703q0 -106 23.5 -132t121.5 -36v-53h-450zM201 1038q16 37 48 110t59.5 139.5t31.5 74.5q14 6 80.5 14t85.5 4l6 -18l-258 -350z" />
<glyph unicode="&#xee;" horiz-adv-x="548" d="M41 1042q100 139 207 334h51q90 -172 203 -334l-51 -34q-82 78 -179 198q-104 -129 -182 -198zM68 0v53q98 10 120.5 37t22.5 131v410q0 102 -19.5 125.5t-109.5 38.5v49q160 25 291 80v-703q0 -106 23.5 -132t121.5 -36v-53h-450z" />
<glyph unicode="&#xef;" horiz-adv-x="548" d="M0 1200q0 43 29.5 73t70.5 30q39 0 67 -30t28 -73q0 -41 -28 -69.5t-69 -28.5t-69.5 28.5t-28.5 69.5zM68 0v53q98 10 120.5 37t22.5 131v410q0 102 -19.5 125.5t-109.5 38.5v49q160 25 291 80v-703q0 -104 22.5 -131t120.5 -37v-53h-448zM344 1200q0 43 29.5 73t70.5 30 t69 -30t28 -73q0 -41 -29 -69.5t-70 -28.5t-69.5 28.5t-28.5 69.5z" />
<glyph unicode="&#xf0;" horiz-adv-x="1034" d="M78 428q0 156 74.5 272.5t174 168t201.5 51.5h2q106 0 197 -52q-35 170 -147 299l-297 -159l-33 63l276 148q-162 150 -354 178q-8 12 -4 32.5t16 28.5q246 -14 447 -178l258 137l33 -63l-232 -125q266 -285 266 -682q0 -279 -131 -425.5t-317 -146.5q-190 0 -310 138.5 t-120 314.5zM268 485q0 -197 75 -318.5t200 -121.5q100 0 165.5 100.5t67.5 335.5q2 133 -12 193.5t-49 95.5q-78 82 -197 82q-111 0 -180.5 -100.5t-69.5 -266.5z" />
<glyph unicode="&#xf1;" horiz-adv-x="1120" d="M59 0v53q104 10 127 35t23 125v422q0 96 -19.5 119.5t-103.5 40.5v47q168 31 285 82v-162q43 31 137 96q96 61 170 62q123 0 193.5 -82t70.5 -230v-395q0 -102 20.5 -126t110.5 -34v-53h-428v53q90 10 112.5 37t22.5 133v342q0 233 -186 234q-102 0 -223 -105v-481 q0 -102 20.5 -126t112.5 -34v-53h-445zM289 1100q59 184 166 184q39 0 118 -41q74 -39 109 -39q45 0 88 92l51 -26q-57 -184 -162 -185q-45 0 -135 48q-59 33 -92 32q-51 0 -90 -98z" />
<glyph unicode="&#xf2;" horiz-adv-x="1044" d="M76 428q0 121 43 218t111.5 154.5t145 88.5t150.5 31q188 0 315.5 -133.5t127.5 -323.5q0 -229 -137.5 -358.5t-307.5 -129.5q-201 0 -324.5 136.5t-123.5 316.5zM266 494q0 -197 78 -324t203 -127q104 0 167.5 89t63.5 286q0 186 -73.5 310t-204.5 124q-98 0 -166 -96.5 t-68 -261.5zM309 1333l6 17q16 8 78 19t82 7q20 -49 65.5 -173t63.5 -171l-55 -26q-131 184 -240 327z" />
<glyph unicode="&#xf3;" horiz-adv-x="1044" d="M76 428q0 121 43 218t111.5 154.5t145 88.5t150.5 31q188 0 315.5 -133.5t127.5 -323.5q0 -229 -137.5 -358.5t-307.5 -129.5q-201 0 -324.5 136.5t-123.5 316.5zM266 494q0 -197 78 -324t203 -127q104 0 167.5 89t63.5 286q0 186 -73.5 310t-204.5 124q-98 0 -166 -96.5 t-68 -261.5zM449 1038q16 37 47.5 110t59.5 139.5t32 74.5q14 6 80.5 14t85.5 4l6 -18l-258 -350z" />
<glyph unicode="&#xf4;" horiz-adv-x="1044" d="M76 428q0 121 43 218t111.5 154.5t145 88.5t150.5 31q188 0 315.5 -133.5t127.5 -323.5q0 -229 -137.5 -358.5t-307.5 -129.5q-201 0 -324.5 136.5t-123.5 316.5zM266 494q0 -197 78 -324t203 -127q104 0 167.5 89t63.5 286q0 186 -73.5 310t-204.5 124q-98 0 -166 -96.5 t-68 -261.5zM291 1042q100 139 207 334h51q90 -172 203 -334l-52 -34q-82 78 -178 198q-104 -129 -182 -198z" />
<glyph unicode="&#xf5;" horiz-adv-x="1044" d="M76 428q0 121 43 218t111.5 154.5t145 88.5t150.5 31q188 0 315.5 -133.5t127.5 -323.5q0 -229 -137.5 -358.5t-307.5 -129.5q-201 0 -324.5 136.5t-123.5 316.5zM256 1100q59 184 166 184q39 0 119 -41q74 -39 108 -39q45 0 88 92l51 -26q-57 -184 -161 -185 q-49 0 -135 48q-59 33 -95 32q-47 0 -90 -98zM266 494q0 -197 78 -324t203 -127q104 0 167.5 89t63.5 286q0 186 -73.5 310t-204.5 124q-98 0 -166 -96.5t-68 -261.5z" />
<glyph unicode="&#xf6;" horiz-adv-x="1044" d="M76 428q0 231 144 361.5t308 130.5q186 0 313.5 -133.5t127.5 -323.5q0 -229 -136.5 -358.5t-306.5 -129.5q-203 0 -326.5 136.5t-123.5 316.5zM252 1200q0 43 28.5 71.5t69.5 28.5t68.5 -28.5t27.5 -71.5q0 -41 -28.5 -69.5t-69.5 -28.5q-39 0 -67.5 29.5t-28.5 68.5z M268 494q0 -197 78 -324t203 -127q102 0 165.5 89t63.5 286q0 186 -72.5 310t-203.5 124q-98 0 -166 -96.5t-68 -261.5zM596 1200q0 43 29.5 71.5t70.5 28.5t69 -28.5t28 -71.5q0 -41 -29 -69.5t-70 -28.5q-39 0 -68.5 28.5t-29.5 69.5z" />
<glyph unicode="&#xf7;" horiz-adv-x="1187" d="M104 469v102h979v-102h-979zM494 215q0 43 29.5 71.5t74.5 28.5q37 0 67.5 -29.5t30.5 -70.5q0 -39 -31.5 -69.5t-68.5 -30.5q-43 0 -72.5 29.5t-29.5 70.5zM498 825q0 39 30.5 70t69.5 31q41 0 71.5 -30t30.5 -71q0 -43 -30.5 -71.5t-73.5 -28.5q-39 0 -68.5 29.5 t-29.5 70.5z" />
<glyph unicode="&#xf8;" horiz-adv-x="1050" d="M76 430q0 119 44 216t113.5 154.5t147.5 88.5t151 31q119 0 224 -62l75 109l54 -39l-72 -107q162 -135 162 -356q0 -227 -135 -358.5t-308 -131.5q-131 0 -239 64l-80 -113l-51 45l76 107q-76 66 -119 160t-43 192zM258 477q1 -163 64 -272l370 557q-66 90 -182 90 q-106 0 -179 -99.5t-73 -275.5zM365 143q66 -100 186 -100q104 0 174 97.5t70 295.5q-1 151 -62 262z" />
<glyph unicode="&#xf9;" horiz-adv-x="1087" d="M59 825v47q39 2 148 15q121 18 145 22q-6 -63 -6 -297v-276q0 -231 180 -232q121 0 222 99v479q0 78 -16.5 100.5t-69.5 30.5l-74 12v47q90 4 184 17q76 8 137 20v-684q0 -76 17.5 -96t79.5 -25l55 -2v-53q-66 -8 -158 -33q-27 -8 -76 -22t-67 -19l-12 13v145 q-115 -86 -152 -106q-88 -51 -158 -52q-113 0 -183.5 75t-70.5 231v401q0 78 -13 99.5t-54 31.5zM305 1333l6 17q12 8 75 18t85 8q18 -47 63.5 -170t65.5 -174l-55 -26q-211 291 -240 327z" />
<glyph unicode="&#xfa;" horiz-adv-x="1087" d="M59 825v47q39 2 148 15q121 18 145 22q-6 -63 -6 -297v-276q0 -231 180 -232q121 0 222 99v479q0 78 -16.5 100.5t-69.5 30.5l-74 12v47q90 4 184 17q76 8 137 20v-684q0 -76 17.5 -96t79.5 -25l55 -2v-53q-66 -8 -158 -33q-27 -8 -76 -22t-67 -19l-12 13v145 q-115 -86 -152 -106q-88 -51 -158 -52q-113 0 -183.5 75t-70.5 231v401q0 78 -13 99.5t-54 31.5zM463 1036q35 78 137 326q14 6 82 14t84 4l6 -18l-256 -352z" />
<glyph unicode="&#xfb;" horiz-adv-x="1087" d="M59 825v47q39 2 148 15q121 18 145 22q-6 -63 -6 -297v-276q0 -231 180 -232q121 0 222 99v479q0 78 -16.5 100.5t-69.5 30.5l-74 12v47q90 4 184 17q76 8 137 20v-684q0 -76 17.5 -96t79.5 -25l55 -2v-53q-66 -8 -158 -33q-27 -8 -76 -22t-67 -19l-12 13v145 q-115 -86 -152 -106q-88 -51 -158 -52q-113 0 -183.5 75t-70.5 231v401q0 78 -13 99.5t-54 31.5zM305 1040q100 139 207 334h51q97 -182 203 -334l-49 -34q-84 76 -180 198q-96 -119 -183 -198z" />
<glyph unicode="&#xfc;" horiz-adv-x="1087" d="M59 825v49q70 4 148 13q121 18 145 22q-6 -63 -6 -297v-276q0 -231 180 -232q121 0 222 99v479q0 78 -16.5 100.5t-69.5 30.5l-74 12v49q72 2 184 15q76 8 137 20v-684q0 -76 17.5 -96t79.5 -25l55 -2v-53q-66 -8 -158 -33q-27 -8 -76 -22t-67 -19l-12 13v145 q-115 -86 -152 -106q-88 -51 -158 -52q-113 0 -183.5 75t-70.5 231v401q0 78 -13 100.5t-54 30.5zM258 1202q0 43 28.5 72t69.5 29t69 -29t28 -72q0 -41 -28 -69.5t-71 -28.5q-39 0 -67.5 29.5t-28.5 68.5zM602 1200q0 43 30 73t70 30q39 0 67 -30t28 -73q0 -41 -28 -69.5 t-69 -28.5t-69.5 28.5t-28.5 69.5z" />
<glyph unicode="&#xfd;" horiz-adv-x="940" d="M4 842v53h414l2 -53q-72 -10 -86.5 -33t8.5 -80l184 -512q117 281 189 510q20 57 -0.5 80.5t-106.5 34.5v53h371v-53q-80 -12 -108.5 -36t-71.5 -112q-25 -49 -54.5 -121.5t-90 -220t-113.5 -274.5q-176 -420 -211 -553q-12 -51 -66 -51q-43 0 -78.5 30.5t-35.5 67.5 q0 39 51 76q82 49 153 180q37 70 64 141q14 41 -4 92q-137 391 -234 627q-35 88 -64.5 115.5t-111.5 38.5zM446 1038q16 37 48 110t60 139.5t32 74.5q14 6 80.5 14t85.5 4l6 -18l-258 -350z" />
<glyph unicode="&#xfe;" horiz-adv-x="1052" d="M10 -436q98 10 123 35.5t25 128.5v1456q0 104 -20.5 125.5t-123.5 31.5v52q160 16 305 65v-672q92 51 228 117q33 16 71 17q162 0 259.5 -118t97.5 -270q0 -221 -146.5 -369.5t-365.5 -187.5q-76 4 -144 41v-282q0 -109 29 -134.5t154 -35.5v-53h-492v53zM319 164 q31 -35 88.5 -59.5t112.5 -24.5q119 0 202 91t83 275q0 170 -80 261.5t-203 91.5q-84 0 -203 -80v-555z" />
<glyph unicode="&#xff;" horiz-adv-x="940" d="M4 842v53h414l2 -53q-72 -10 -86.5 -33t8.5 -80l184 -512q117 281 189 510q20 57 -0.5 80.5t-106.5 34.5v53h371v-53q-80 -12 -108.5 -36t-71.5 -112q-25 -49 -54.5 -121.5t-90 -220t-113.5 -274.5q-176 -420 -211 -553q-12 -51 -66 -51q-43 0 -78.5 30.5t-35.5 67.5 q0 39 51 76q82 49 153 180q37 70 64 141q14 41 -4 92q-137 391 -234 627q-35 88 -64.5 115.5t-111.5 38.5zM225 1202q0 43 29 72t70 29t67.5 -29t26.5 -72q0 -41 -27.5 -69.5t-68.5 -28.5q-39 0 -68 28.5t-29 69.5zM569 1202q0 43 29 72t70 29t67.5 -29t26.5 -72 q0 -41 -27.5 -69.5t-68.5 -28.5q-39 0 -68 28.5t-29 69.5z" />
<glyph unicode="&#x100;" d="M41 0v57q102 14 140 48t89 165l424 1073l64 19q45 -127 183 -512t212 -586q47 -129 85 -162.5t140 -44.5v-57h-501v57q96 12 118.5 33t1.5 80q-14 41 -112 315h-436q-63 -180 -91 -264q-33 -96 -10 -124.5t139 -39.5v-57h-446zM479 573h377l-180 523h-4 q-33 -86 -96.5 -261.5t-96.5 -261.5zM502 1464v107h456v-107h-456z" />
<glyph unicode="&#x101;" horiz-adv-x="899" d="M80 225q0 145 166 203q262 88 317 133v35q0 111 -47 171t-127 60q-57 0 -92 -38.5t-59 -135.5q-14 -47 -60 -47q-31 0 -59.5 26.5t-28.5 61.5t64 82q51 39 140 83t167 61q100 0 168 -56q92 -80 92 -252v-379q0 -123 72 -122q37 0 73 22l21 -53l-174 -105q-55 0 -97 41 q-33 33 -49 90q-10 -6 -49 -33.5t-55.5 -37.5t-47 -27.5t-51 -25t-38.5 -7.5q-106 0 -176 75t-70 175zM197 1122v113h450v-113h-450zM254 254q0 -72 46 -114t99 -42q39 0 86 21.5t78 52.5v320q-25 -12 -100.5 -47t-83.5 -39q-63 -29 -94 -64t-31 -88z" />
<glyph unicode="&#x102;" d="M41 0v57q102 14 140 48t89 165l424 1073l64 19q25 -68 172 -478.5t225 -619.5q47 -129 84 -162.5t139 -44.5v-57h-501v57q96 12 118.5 33t1.5 80q-39 115 -110 315h-438q-63 -180 -91 -264q-33 -96 -10 -124.5t139 -39.5v-57h-446zM481 573h375l-180 523h-4 q-39 -102 -109.5 -297t-81.5 -226zM487 1667h62q33 -127 178 -127t178 127h62q-2 -119 -66.5 -181.5t-173.5 -62.5t-173.5 62.5t-66.5 181.5z" />
<glyph unicode="&#x103;" horiz-adv-x="899" d="M78 225q0 145 166 203q264 88 319 133v35q0 111 -47 171t-127 60q-57 0 -92 -38.5t-59 -135.5q-14 -47 -62 -47q-31 0 -59.5 26.5t-28.5 61.5q0 37 66 82q51 39 140 83t167 61q100 0 168 -56q92 -80 92 -252v-379q0 -123 72 -122q37 0 73 22l21 -53l-174 -105 q-55 0 -97 41q-33 33 -49 90q-10 -6 -49 -33.5t-55.5 -37.5t-47 -27.5t-51 -25t-38.5 -7.5q-106 0 -177 75t-71 175zM197 1327h59q23 -162 166 -162t166 162h61q0 -281 -229 -280q-223 0 -223 280zM254 254q0 -72 46 -114t99 -42q39 0 86 21.5t78 52.5v320 q-25 -12 -100.5 -47t-83.5 -39q-63 -29 -94 -64t-31 -88z" />
<glyph unicode="&#x104;" d="M41 0v55q100 14 139 48t92 167q96 240 422 1073q41 12 64 19q229 -645 395 -1098q49 -129 87 -165t138 -46v-53h-346q-45 -39 -87 -118t-42 -136q0 -53 33 -83t86 -30q45 0 94 23l17 -51l-117 -70q-35 -20 -70 -20q-94 0 -138 50t-44 122q0 147 231 374q29 29 13 74 q-12 39 -63.5 180.5t-61.5 169.5h-432q-78 -217 -93 -264q-33 -98 -10 -125.5t139 -40.5v-55h-446zM479 573h377l-178 519h-4q-39 -100 -108.5 -289t-86.5 -230z" />
<glyph unicode="&#x105;" horiz-adv-x="899" d="M80 225q0 145 166 203q262 88 317 133v37q0 111 -45 171t-123 60q-59 0 -94 -41q-29 -35 -59 -135q-14 -47 -62 -47q-29 0 -58.5 28t-29.5 60q0 35 64 82q150 106 307 144q102 0 166 -56q92 -80 92 -248v-383q0 -123 72 -122q36 -1 73 22l21 -51q-43 -25 -101 -64 q-78 -49 -143 -132t-65 -154q0 -94 108 -94q39 0 86 20l16 -51l-104 -62q-39 -25 -74 -24q-84 0 -128 42t-44 115q0 137 219 316q-74 33 -90 112q-10 -6 -40.5 -27.5t-46 -31.5t-42 -26.5t-43 -24.5t-36 -14.5t-33.5 -6.5q-106 0 -176 75t-70 175zM256 256q0 -74 46 -116 t99 -42q84 0 162 74v322q-53 -27 -182 -88q-125 -55 -125 -150z" />
<glyph unicode="&#x106;" horiz-adv-x="1361" d="M90 647q0 322 221 518.5t568 196.5q74 0 146.5 -10.5t141 -27.5t74.5 -17q29 -209 41 -310l-59 -14q-41 162 -136.5 233.5t-263.5 71.5q-244 0 -384 -176t-140 -424q0 -287 150.5 -466t386.5 -179q150 0 244.5 76.5t176.5 238.5l60 -20q-68 -223 -117 -315 q-248 -53 -377 -54q-184 0 -328.5 59.5t-230.5 158t-130 216t-44 244.5zM647 1483q63 41 183 119.5t137 89.5q18 -2 51 -46t37 -67l-4 -16l-379 -131z" />
<glyph unicode="&#x107;" horiz-adv-x="866" d="M76 403q0 242 207 400q152 117 305 117h2q121 0 184 -56q33 -29 33 -61q0 -31 -24.5 -59.5t-43.5 -28.5q-16 0 -39 22q-90 84 -206 84q-106 0 -179 -87t-73 -240q0 -100 30.5 -178t79.5 -119t100.5 -61.5t98.5 -20.5q68 0 124 24.5t124 87.5l35 -43 q-70 -92 -164.5 -150.5t-182.5 -58.5q-186 0 -298.5 127t-112.5 301zM414 1038q16 37 48 110t59.5 139.5t31.5 74.5q14 6 80.5 14t85.5 4l6 -18l-258 -350z" />
<glyph unicode="&#x108;" horiz-adv-x="1361" d="M90 647q0 322 221 518.5t568 196.5q74 0 146.5 -10.5t141 -27.5t74.5 -17q29 -209 41 -310l-59 -14q-41 162 -136.5 233.5t-263.5 71.5q-244 0 -384 -176t-140 -424q0 -287 150.5 -466t386.5 -179q150 0 244.5 76.5t176.5 238.5l60 -20q-68 -223 -117 -315 q-248 -53 -377 -54q-184 0 -328.5 59.5t-230.5 158t-130 216t-44 244.5zM532 1481q190 145 259 219h45q74 -78 256 -219l-33 -51q-104 43 -248 126q-162 -92 -246 -126z" />
<glyph unicode="&#x109;" horiz-adv-x="866" d="M76 403q0 242 207 400q152 117 305 117h2q121 0 184 -56q33 -29 33 -61q0 -31 -24.5 -59.5t-43.5 -28.5q-16 0 -39 22q-90 84 -206 84q-106 0 -179 -87t-73 -240q0 -100 30.5 -178t79.5 -119t100.5 -61.5t98.5 -20.5q68 0 124 24.5t124 87.5l35 -43 q-70 -92 -164.5 -150.5t-182.5 -58.5q-186 0 -298.5 127t-112.5 301zM270 1042q100 139 207 334h51q90 -172 203 -334l-51 -34q-82 78 -178 198q-104 -129 -183 -198z" />
<glyph unicode="&#x10a;" horiz-adv-x="1361" d="M90 647q0 322 221 518.5t568 196.5q74 0 146.5 -10.5t142 -27.5t71.5 -17q29 -174 43 -310l-59 -14q-41 162 -136.5 233.5t-263.5 71.5q-244 0 -384 -176t-140 -424q0 -287 150.5 -466t386.5 -179q150 0 244.5 76.5t176.5 238.5l60 -20q-68 -223 -117 -315 q-248 -53 -377 -54q-184 0 -328.5 59.5t-230.5 158t-130 216t-44 244.5zM713 1552q0 47 30.5 78t75.5 31q43 0 73 -32t30 -77t-30 -74.5t-75 -29.5t-74.5 29.5t-29.5 74.5z" />
<glyph unicode="&#x10b;" horiz-adv-x="866" d="M76 403q0 242 207 400q152 117 305 117h2q121 0 184 -56q33 -29 33 -61q0 -31 -24.5 -59.5t-43.5 -28.5q-16 0 -39 22q-90 84 -206 84q-106 0 -179 -87t-73 -240q0 -100 30.5 -178t79.5 -119t100.5 -61.5t98.5 -20.5q129 -1 250 112l33 -43q-70 -92 -164.5 -150.5 t-182.5 -58.5q-186 0 -298.5 127t-112.5 301zM393 1206q0 45 31 76t74 31t72.5 -31t29.5 -76q0 -43 -29.5 -73.5t-74.5 -30.5q-41 0 -72 30.5t-31 73.5z" />
<glyph unicode="&#x10c;" horiz-adv-x="1361" d="M90 647q0 322 221 518.5t568 196.5q74 0 146.5 -10.5t141 -27.5t74.5 -17q29 -209 41 -310l-59 -14q-41 162 -136.5 233.5t-263.5 71.5q-244 0 -384 -176t-140 -424q0 -287 150.5 -466t386.5 -179q150 0 244.5 76.5t176.5 238.5l60 -20q-68 -223 -117 -315 q-248 -53 -377 -54q-184 0 -328.5 59.5t-230.5 158t-130 216t-44 244.5zM532 1659l33 53q125 -53 248 -127q131 78 248 127l31 -53q-162 -121 -256 -219h-45q-74 78 -259 219z" />
<glyph unicode="&#x10d;" horiz-adv-x="866" d="M76 403q0 242 207 400q152 117 305 117h2q121 0 184 -56q33 -29 33 -61q0 -31 -24.5 -59.5t-43.5 -28.5q-16 0 -39 22q-90 84 -206 84q-106 0 -179 -87t-73 -240q0 -100 30.5 -178t79.5 -119t100.5 -61.5t98.5 -20.5q68 0 124 24.5t124 87.5l35 -43 q-70 -92 -164.5 -150.5t-182.5 -58.5q-186 0 -298.5 127t-112.5 301zM276 1348l52 34q80 -76 178 -198q110 130 180 198l51 -34q-100 -139 -207 -334h-51q-96 182 -203 334z" />
<glyph unicode="&#x10e;" horiz-adv-x="1505" d="M70 0v55q133 10 162.5 40t29.5 159v823q0 92 -12 128t-44 49.5t-118 19.5v57h574q397 0 577 -174q174 -168 174 -440q0 -354 -252 -547q-219 -170 -608 -170h-483zM422 1628l33 53q145 -66 247 -127q111 66 248 127l31 -53q-162 -121 -256 -219h-45q-74 78 -258 219z M436 268q0 -113 50.5 -153.5t166.5 -40.5q272 0 415.5 176t143.5 438q0 164 -61 293t-180 199q-135 84 -348 84q-127 0 -160 -27q-27 -19 -27 -117v-852z" />
<glyph unicode="&#x10f;" horiz-adv-x="1081" d="M78 412q0 211 157.5 359.5t368.5 148.5q74 0 137 -25v293q0 98 -23.5 119.5t-133.5 29.5v52q172 20 319 67v-1220q0 -78 15.5 -98.5t74.5 -26.5l68 -7v-51q-211 -39 -320 -78v134l-125 -74q-102 -59 -159 -60q-139 0 -259 119t-120 318zM262 467q0 -170 86 -266.5 t197 -96.5q104 0 196 70v563q-72 104 -211 105q-41 0 -82.5 -17.5t-86 -57.5t-72 -118t-27.5 -182zM1010 1135q94 49 94 116q0 59 -66 80q-27 8 -26 51q0 35 21 54.5t52 19.5q51 0 87 -46t36 -116q0 -164 -178 -215z" />
<glyph unicode="&#x110;" horiz-adv-x="1509" d="M76 655v84h209v312q0 80 -4.5 117.5t-26 63t-50 31t-95.5 11.5v57h565q385 0 567 -174q176 -170 176 -440q0 -356 -256 -547q-225 -170 -600 -170h-469v57q133 10 163 44t30 180v374h-209zM459 270q0 -111 38 -152.5t160 -41.5q272 0 413.5 173t141.5 437q0 350 -235 498 q-127 80 -332 80q-121 0 -162 -21q-25 -14 -24 -88v-416h321v-84h-321v-385z" />
<glyph unicode="&#x111;" horiz-adv-x="1077" d="M78 414q0 205 156.5 355.5t365.5 150.5q76 0 139 -25v197h-270v75h270v43q-2 84 -23.5 102.5t-125.5 28.5v50q166 23 311 69v-293h156v-75h-156v-854q0 -80 16.5 -101.5t73.5 -27.5l68 -7v-49q-211 -39 -320 -78v136l-129 -76q-100 -59 -153 -60q-137 0 -257 120 t-122 319zM262 467q0 -172 86 -268.5t197 -96.5q98 0 194 72v563q-37 51 -95 79t-114 28q-37 0 -77.5 -17.5t-85.5 -56.5t-75 -118t-30 -185z" />
<glyph unicode="&#x112;" horiz-adv-x="1163" d="M59 0v57q139 8 171 40t32 159v815q0 135 -26.5 164t-149.5 39v57h913q0 -16 17 -295l-60 -8q-23 104 -65 174q-23 35 -72 47.5t-160 12.5h-155q-47 0 -57.5 -10.5t-10.5 -55.5v-467h193q137 0 169.5 24.5t51.5 129.5h59v-391h-59q-20 111 -53 134t-166 23h-195v-385 q0 -133 49 -168q43 -27 213 -26q117 0 170.5 14t87.5 55q60 74 103 193l59 -8q-37 -205 -71 -324h-988zM385 1466v107h457v-107h-457z" />
<glyph unicode="&#x113;" horiz-adv-x="870" d="M76 412q0 211 135 358q137 150 299 150h2q125 0 216 -95.5t91 -216.5q0 -33 -9 -46t-38 -19q-111 -20 -536 -35q2 -195 94 -294t213 -99q124 0 235 102l31 -45q-86 -106 -178 -151.5t-156 -45.5q-182 0 -290.5 127t-108.5 310zM246 592q170 0 348 6q29 0 39 9t10 32 q2 84 -48 144.5t-134 60.5q-72 0 -132.5 -66.5t-82.5 -185.5zM246 1122v113h450v-113h-450z" />
<glyph unicode="&#x114;" horiz-adv-x="1163" d="M59 0v57q139 8 171 40t32 159v815q0 135 -26.5 164t-149.5 39v57h913q0 -16 17 -295l-60 -8q-23 104 -65 174q-23 35 -72 47.5t-160 12.5h-155q-47 0 -57.5 -10.5t-10.5 -55.5v-467h193q137 0 169.5 24.5t51.5 129.5h59v-391h-59q-20 111 -53 134t-166 23h-195v-385 q0 -133 49 -168q43 -27 213 -26q117 0 170.5 14t87.5 55q60 74 103 193l59 -8q-37 -205 -71 -324h-988zM373 1667h61q33 -127 178.5 -127t178.5 127h61q-2 -119 -66.5 -180.5t-173.5 -61.5q-111 0 -174 61.5t-65 180.5z" />
<glyph unicode="&#x115;" horiz-adv-x="870" d="M76 412q0 211 135 358q137 150 299 150h2q125 0 215 -95.5t90 -216.5q0 -33 -9 -46t-38 -19q-111 -20 -534 -35q2 -195 94 -294t213 -99q124 0 235 102l31 -45q-86 -106 -178 -151.5t-158 -45.5q-180 0 -288.5 127t-108.5 310zM248 592q168 0 346 6q47 0 49 41 q0 84 -50 144.5t-132 60.5q-72 0 -131.5 -65.5t-81.5 -186.5zM248 1327h61q23 -162 166 -162t166 162h61q0 -281 -229 -280q-100 0 -162.5 65.5t-62.5 214.5z" />
<glyph unicode="&#x116;" horiz-adv-x="1163" d="M59 0v57q139 10 171 41t32 158v815q0 135 -26.5 164t-149.5 39v57h913q0 -16 17 -295l-60 -8q-23 104 -65 174q-23 35 -72 47.5t-160 12.5h-155q-47 0 -57.5 -10.5t-10.5 -55.5v-467h193q135 0 168.5 24.5t52.5 129.5h59v-391h-59q-20 111 -53 134t-166 23h-195v-385 q0 -133 49 -168q43 -27 211 -26q117 0 171.5 14t88.5 55q60 74 103 193l59 -8q-37 -205 -71 -324h-988zM506 1544q0 47 30.5 78t75.5 31q43 0 73 -32t30 -77q0 -43 -30 -73.5t-75 -30.5t-74.5 30.5t-29.5 73.5z" />
<glyph unicode="&#x117;" horiz-adv-x="870" d="M76 412q0 211 135 358q137 150 299 150h2q125 0 216 -95.5t91 -216.5q0 -33 -9 -46t-38 -19q-111 -20 -536 -35q2 -195 94 -294t214.5 -99t233.5 102l31 -45q-86 -106 -178 -151.5t-156 -45.5q-182 0 -290.5 127t-108.5 310zM246 592q170 0 348 6q29 0 39 9t10 32 q2 84 -48 144.5t-134 60.5q-72 0 -132.5 -66.5t-82.5 -185.5zM362 1204q0 45 32 76t73 31q43 0 72.5 -31t29.5 -76q0 -43 -29.5 -73.5t-74.5 -30.5q-41 0 -72 30.5t-31 73.5z" />
<glyph unicode="&#x118;" horiz-adv-x="1163" d="M59 0v57q141 10 172 42t31 163v801q0 137 -27.5 169t-148.5 42v57h909q4 -106 23 -293l-62 -8q-27 123 -73 176q-27 33 -74 43.5t-158 10.5h-147q-47 0 -57.5 -10.5t-10.5 -55.5v-459h199q137 0 166.5 21.5t48.5 126.5h59v-383h-59q-20 111 -50 132t-163 21h-201v-385 q0 -139 49 -172q41 -27 213 -26q113 0 169.5 15t90.5 56q50 62 101 193l59 -10q-37 -205 -71 -324h-76q-74 -63 -120 -139t-46 -135q0 -92 102 -93q49 0 97 23l16 -53l-107 -66q-45 -23 -77 -22q-88 0 -130 42t-42 111q0 76 64.5 165t160.5 167h-830z" />
<glyph unicode="&#x119;" horiz-adv-x="868" d="M74 412q0 211 133 354q141 154 301 154h2q125 0 217 -95.5t92 -216.5q0 -33 -9 -46t-38 -19q-111 -20 -536 -35q2 -195 93 -295t212 -100q125 0 235 104l33 -43q-63 -72 -109 -108q-86 -72 -155.5 -169.5t-69.5 -168.5q0 -43 26.5 -66.5t69.5 -23.5q51 0 105 28l16 -51 l-114 -72q-31 -23 -74 -22q-82 0 -126 44t-44 103q0 146 209 320l-2 4q-41 -14 -68 -17q-182 0 -290.5 127t-108.5 310zM246 592q4 0 348 6q29 0 39 8t10 29q2 84 -49 147.5t-133 63.5q-74 0 -135.5 -68.5t-79.5 -185.5z" />
<glyph unicode="&#x11a;" horiz-adv-x="1163" d="M59 0v57q139 8 171 40t32 159v815q0 135 -26.5 164t-149.5 39v57h913q0 -16 17 -295l-60 -8q-23 104 -65 174q-23 35 -72 47.5t-160 12.5h-155q-47 0 -57.5 -10.5t-10.5 -55.5v-467h193q137 0 169.5 24.5t51.5 129.5h59v-391h-59q-20 111 -53 134t-166 23h-195v-385 q0 -133 49 -168q43 -27 213 -26q117 0 170.5 14t87.5 55q60 74 103 193l59 -8q-37 -205 -71 -324h-988zM324 1630l32 51q135 -57 248 -125q131 76 248 125l31 -51q-176 -135 -256 -221h-45q-76 80 -258 221z" />
<glyph unicode="&#x11b;" horiz-adv-x="870" d="M76 412q0 211 135 358q137 150 299 150h2q125 0 216 -95.5t91 -216.5q0 -33 -9 -46t-38 -19q-111 -20 -536 -35q2 -195 94 -294t213 -99q124 0 235 102l31 -45q-86 -106 -178 -151.5t-156 -45.5q-182 0 -290.5 127t-108.5 310zM242 1348l51 34q80 -76 178 -198 q110 130 180 198l51 -34q-100 -139 -206 -334h-52q-96 182 -202 334zM246 592q170 0 348 6q29 0 39 9t10 32q2 84 -48 144.5t-134 60.5q-72 0 -132.5 -66.5t-82.5 -185.5z" />
<glyph unicode="&#x11c;" horiz-adv-x="1464" d="M90 657q0 172 65.5 309.5t176 221.5t249 129t291.5 45q59 0 126 -7t110 -16.5t94 -20.5t66 -13q14 -166 30 -322l-57 -12q-35 176 -136 246.5t-263 70.5q-240 0 -391.5 -163.5t-151.5 -442.5q0 -115 35 -225.5t101.5 -205.5t179 -152.5t253.5 -57.5q109 0 179 35 q35 18 50 47t15 88v174q0 111 -31.5 138.5t-183.5 37.5v57h520v-57q-92 -12 -111.5 -34.5t-19.5 -112.5v-176q0 -127 14 -195q-14 -4 -65 -15.5t-75.5 -16.5t-73 -15t-83 -14.5t-78.5 -8.5t-83 -4q-338 0 -545 190.5t-207 497.5zM541 1466q184 141 258 220h45 q80 -85 256 -220l-31 -51q-84 35 -250 127q-199 -106 -246 -127z" />
<glyph unicode="&#x11d;" horiz-adv-x="958" d="M59 -276q0 66 50 114q43 43 170 144q-100 31 -152 112q-27 41 -23 86q115 43 181 125q-76 33 -128.5 104.5t-52.5 170.5q0 160 116 250t251 90h2q104 0 197 -56q145 8 278 31l10 -16q-43 -78 -92 -105l-116 6q61 -72 61 -180q0 -156 -107.5 -242t-250.5 -86 q-49 0 -105 11q-61 -43 -61 -86q0 -33 32.5 -55.5t96.5 -22.5q39 0 110.5 1t106.5 1q74 0 134 -16.5t109.5 -74t49.5 -151.5q0 -158 -154 -281.5t-356 -123.5q-162 0 -258.5 76.5t-98.5 173.5zM221 -225q0 -84 78 -140.5t193 -56.5q141 0 217.5 63.5t76.5 163.5 q0 106 -92 146q-67 26 -200 26q-127 0 -179 -43q-94 -80 -94 -159zM229 1040q115 158 207 334h51q97 -182 203 -334l-49 -34q-84 76 -180 198q-111 -135 -180 -198zM281 612q0 -121 54 -197.5t138 -76.5q72 2 121 65.5t49 178.5q0 121 -53 197.5t-141 76.5q-70 0 -119 -65.5 t-49 -178.5z" />
<glyph unicode="&#x11e;" horiz-adv-x="1464" d="M90 657q0 172 65.5 309.5t176 221.5t249 129t291.5 45q76 0 153 -10.5t158 -28.5t85 -18q14 -166 30 -322l-57 -12q-35 176 -137.5 246.5t-261.5 70.5q-240 0 -391.5 -163.5t-151.5 -442.5q0 -115 35 -225.5t101.5 -205.5t179 -152.5t253.5 -57.5q109 0 179 35 q35 18 50 47t15 88v174q0 111 -31.5 138.5t-183.5 37.5v57h520v-57q-92 -12 -112.5 -34.5t-20.5 -112.5v-176q0 -129 16 -195q-326 -74 -458 -74q-338 0 -545 190.5t-207 497.5zM563 1683h62q29 -125 178 -124q145 -1 178 124h61q-2 -119 -66.5 -180t-172.5 -61 q-111 0 -174.5 61.5t-65.5 179.5z" />
<glyph unicode="&#x11f;" horiz-adv-x="958" d="M59 -274q0 63 50 112q63 63 170 144q-100 31 -152 112q-27 45 -23 86q115 43 181 125q-76 33 -128.5 104.5t-52.5 168.5q0 162 116 251t251 89h2q102 0 195 -52q149 8 278 31l12 -18q-43 -76 -90 -105l-116 6q61 -72 61 -180q0 -156 -108.5 -242t-251.5 -86 q-49 0 -105 11q-61 -43 -61 -86q0 -33 32.5 -55.5t96.5 -22.5q37 0 109.5 1t105.5 1q121 0 207 -53.5t88 -188.5q0 -156 -155 -280.5t-357 -124.5q-160 0 -256.5 76.5t-98.5 175.5zM221 -227q0 -82 78 -138.5t193 -56.5q141 0 217.5 63.5t76.5 163.5q0 106 -92 146 q-67 26 -198 26q-129 0 -181 -45q-94 -76 -94 -159zM231 1327h62q23 -162 166 -162t166 162h61q0 -150 -63.5 -215t-165.5 -65q-100 0 -163 65.5t-63 214.5zM281 612q0 -121 54 -197.5t138 -76.5q72 2 121 65.5t49 178.5q0 121 -53 197.5t-139 76.5q-70 0 -120 -65.5 t-50 -178.5z" />
<glyph unicode="&#x120;" horiz-adv-x="1464" d="M90 657q0 172 65.5 309.5t176 221.5t248 129t290.5 45q78 0 154 -10.5t158 -28.5t86 -18q14 -166 30 -322l-57 -12q-35 176 -136 246.5t-263 70.5q-240 0 -391.5 -163.5t-151.5 -442.5q0 -115 35 -225.5t101.5 -205.5t179 -152.5t253.5 -57.5q109 0 179 35q35 18 50 47 t15 88v174q0 111 -31.5 138.5t-183.5 37.5v57h520l-2 -57q-90 -12 -110.5 -34.5t-20.5 -112.5v-176q0 -129 16 -195q-326 -74 -458 -74q-338 0 -545 190.5t-207 497.5zM713 1548q0 47 30.5 78t75.5 31q43 0 73 -32t30 -77q0 -43 -30 -73.5t-75 -30.5t-74.5 30.5t-29.5 73.5z " />
<glyph unicode="&#x121;" horiz-adv-x="958" d="M59 -274q0 63 50 112q43 43 170 144q-100 31 -152 112q-27 41 -23 86q115 43 181 125q-76 33 -128.5 104.5t-52.5 168.5q0 162 115 251t250 91h2q106 0 197 -54q139 6 280 29l10 -16q-43 -78 -92 -105l-116 6q61 -72 61 -180q0 -156 -107.5 -242t-250.5 -86 q-49 0 -107 11q-59 -41 -59 -86q0 -33 31.5 -55.5t95.5 -22.5q39 0 111.5 1t105.5 1q121 0 208 -53.5t87 -188.5q0 -156 -155 -280.5t-357 -124.5q-160 0 -256.5 76.5t-98.5 175.5zM221 -225q0 -84 78 -140.5t193 -56.5q141 0 217.5 63.5t76.5 163.5q0 106 -92 146 q-69 26 -200 26q-125 0 -181 -43q-92 -82 -92 -159zM281 610q0 -119 54 -195.5t138 -76.5q72 2 121 65.5t49 178.5q0 121 -53 197.5t-141 76.5q-70 0 -119 -65.5t-49 -180.5zM356 1204q0 45 31 76t74 31t72.5 -31t29.5 -76q0 -43 -30.5 -73.5t-73.5 -30.5q-41 0 -72 31.5 t-31 72.5z" />
<glyph unicode="&#x122;" horiz-adv-x="1464" d="M90 657q0 172 65.5 309.5t176 221.5t248 129t290.5 45q78 0 154 -10.5t158 -28.5t86 -18q14 -166 30 -322l-57 -12q-35 176 -136 246.5t-263 70.5q-240 0 -391.5 -163.5t-151.5 -442.5q0 -115 35 -225.5t101.5 -205.5t179 -152.5t253.5 -57.5q109 0 179 35q35 18 50 47 t15 88v174q0 111 -31.5 138.5t-183.5 37.5v57h520l-2 -57q-90 -12 -110.5 -34.5t-20.5 -112.5v-176q0 -129 16 -195q-326 -74 -458 -74q-338 0 -545 190.5t-207 497.5zM723 -172q0 37 25.5 56.5t62.5 19.5q59 0 104.5 -46t45.5 -116q0 -160 -218 -217l-20 57 q123 53 123 114.5t-92 84.5q-31 8 -31 47z" />
<glyph unicode="&#x123;" horiz-adv-x="958" d="M59 -274q0 63 50 112q63 63 170 144q-100 31 -152 112q-27 45 -23 86q115 43 181 125q-76 33 -128.5 104.5t-52.5 168.5q0 162 115 251t250 89h2q102 0 199 -52q145 8 278 31l10 -16q-45 -80 -90 -107l-116 6q61 -72 61 -180q0 -156 -108.5 -242t-251.5 -86 q-49 0 -105 11q-61 -43 -61 -86q0 -33 32.5 -55.5t96.5 -22.5q37 0 109.5 1t105.5 1q121 0 207 -53.5t88 -188.5q0 -158 -154 -281.5t-356 -123.5q-162 0 -258.5 76.5t-98.5 175.5zM221 -227q0 -82 78 -138.5t193 -56.5q141 0 217.5 63.5t76.5 163.5q0 106 -92 146 q-67 26 -198 26q-129 0 -181 -45q-94 -76 -94 -159zM281 610q0 -119 54 -195.5t138 -76.5q72 2 121 65.5t49 178.5q0 121 -53 197.5t-139 76.5q-70 0 -120 -65.5t-50 -180.5zM332 1223q0 160 221 217l16 -58q-123 -53 -123 -116q0 -59 95 -82q31 -8 30 -49 q0 -35 -25.5 -55.5t-62.5 -20.5q-59 0 -105 46t-46 118z" />
<glyph unicode="&#x124;" horiz-adv-x="1568" d="M78 1274v57h530v-57q-119 -10 -145.5 -39t-26.5 -156v-331h699v331q0 125 -28 155t-149 40v57h535v-57q-127 -10 -155.5 -40t-28.5 -155v-827q0 -127 27.5 -155.5t154.5 -39.5v-57h-549v57q133 10 163 39t30 156v407h-699v-407q0 -127 29 -155.5t156 -39.5v-57h-539v57 q125 10 152.5 39t27.5 156v827q0 127 -28.5 156t-155.5 39zM504 1452q190 145 258 219h45q74 -78 256 -219l-33 -51q-104 43 -248 127q-162 -92 -245 -127z" />
<glyph unicode="&#x125;" horiz-adv-x="1093" d="M-41 1530q190 145 258 219h45q74 -78 256 -219l-33 -51q-104 43 -247 127q-162 -92 -246 -127zM37 0l2 53q94 8 116.5 33t22.5 125v977q0 98 -19.5 119.5t-119.5 29.5v49q129 18 301 72v-688q150 150 293 150q131 0 206.5 -86t75.5 -265v-358q0 -100 23 -125t113 -33v-53 h-433v53q90 10 113 35t23 123v340q0 252 -201 252q-121 0 -213 -105v-487q0 -98 20.5 -124t112.5 -34v-53h-436z" />
<glyph unicode="&#x126;" horiz-adv-x="1568" d="M78 1274v57h530v-57q-119 -10 -145.5 -39t-26.5 -158v-37h699v35q0 131 -28 160t-149 39v57h535v-57q-127 -10 -155.5 -40t-28.5 -157v-37h180v-75h-180v-701q0 -133 28.5 -164.5t153.5 -42.5v-57h-549v57q133 10 163 42t30 165v371h-699v-371q0 -133 29 -164.5 t156 -42.5v-57h-539v57q68 4 98.5 11.5t52 31t25.5 57t4 107.5v701h-180v75h180v37q0 129 -28.5 158t-155.5 39zM436 721h699v244h-699v-244z" />
<glyph unicode="&#x127;" horiz-adv-x="1091" d="M37 1096v75h141v105q0 51 -15.5 64.5t-76.5 21.5v49q117 14 254 55v-295h317v-75h-317v-326q135 147 295 150q129 4 204.5 -82t75.5 -256v-369q0 -100 23 -126t113 -34v-53h-430v53q90 8 111.5 34t21.5 126v338q0 252 -199 252q-127 0 -215 -107v-481q0 -100 21.5 -127 t111.5 -35v-53h-432v53q92 8 114.5 35t22.5 129v879h-141z" />
<glyph unicode="&#x128;" horiz-adv-x="698" d="M78 0v57q127 10 155.5 40t28.5 159v819q0 129 -28.5 159t-155.5 40v57h543v-57q-127 -10 -156 -40t-29 -159v-819q0 -131 29 -159.5t156 -39.5v-57h-543zM80 1446q64 168 164 168q43 0 127 -39q72 -33 112 -33q49 0 95 88l49 -26q-53 -174 -168 -174q-45 0 -142 43 q-57 29 -90 28q-49 0 -98 -90z" />
<glyph unicode="&#x129;" horiz-adv-x="548" d="M10 1100q59 184 166 184q39 0 119 -41q74 -39 108 -39q45 0 89 92l51 -26q-57 -184 -162 -185q-45 0 -135 48q-55 33 -92 32q-52 0 -91 -98zM68 0v53q98 10 120.5 37t22.5 131v410q0 102 -19.5 125.5t-109.5 38.5v49q160 25 291 80v-703q0 -106 23.5 -132t121.5 -36v-53 h-450z" />
<glyph unicode="&#x12a;" horiz-adv-x="698" d="M78 0v57q127 10 155.5 40t28.5 159v819q0 129 -28.5 159t-155.5 40v57h543v-57q-127 -10 -156 -40t-29 -159v-819q0 -131 29 -159.5t156 -39.5v-57h-543zM121 1464v107h457v-107h-457z" />
<glyph unicode="&#x12b;" horiz-adv-x="548" d="M41 1122v113h451v-113h-451zM68 0v53q98 10 120.5 37t22.5 131v410q0 102 -19.5 125.5t-109.5 38.5v49q160 25 291 80v-703q0 -106 23.5 -132t121.5 -36v-53h-450z" />
<glyph unicode="&#x12c;" horiz-adv-x="698" d="M78 0v57q127 10 155.5 40t28.5 159v819q0 129 -28.5 159t-155.5 40v57h543v-57q-127 -10 -156 -40t-29 -159v-819q0 -131 29 -159.5t156 -39.5v-57h-543zM111 1665h61q33 -125 178 -125t178 125h62q-2 -119 -66.5 -180.5t-173 -61.5t-173 61.5t-66.5 180.5z" />
<glyph unicode="&#x12d;" horiz-adv-x="548" d="M41 1327h61q23 -162 164 -162q143 0 166 162h62q0 -150 -63.5 -215t-166.5 -65q-98 0 -160.5 65.5t-62.5 214.5zM68 0v53q98 10 120.5 37t22.5 131v410q0 102 -19.5 125.5t-109.5 38.5v49q156 25 291 80v-703q0 -106 22.5 -132t120.5 -36v-53h-448z" />
<glyph unicode="&#x12e;" horiz-adv-x="698" d="M78 0v55q127 10 155.5 41t28.5 164v809q0 133 -28.5 165t-155.5 42v55h543v-55q-127 -10 -156 -42t-29 -165v-809q0 -131 29 -162.5t156 -42.5v-55h-234q-72 -152 -72 -254q0 -53 34 -84t87 -31q43 0 101 27l16 -51l-115 -70q-37 -23 -80 -22q-90 0 -135 48t-45 118 q0 20 4 41.5t8.5 39t16.5 43t17 39t22.5 42t22.5 36.5t25.5 41t22.5 37h-239z" />
<glyph unicode="&#x12f;" horiz-adv-x="548" d="M66 0v53q98 10 120.5 36t22.5 130v412q0 102 -19.5 125.5t-109.5 38.5v49q158 25 291 80v-705q0 -104 23.5 -130t121.5 -36v-53h-190q-70 -145 -70 -246q0 -117 115 -116q37 0 90 22l18 -51l-106 -62q-37 -25 -74 -24q-86 0 -131 43t-45 121q0 106 135 313h-192z M176 1204q0 45 31 77t74 32t72.5 -32t29.5 -77q0 -41 -29.5 -71.5t-74.5 -30.5q-41 0 -72 30.5t-31 71.5z" />
<glyph unicode="&#x130;" horiz-adv-x="698" d="M78 0v57q127 10 155.5 40t28.5 159v819q0 129 -28.5 159t-155.5 40v57h543v-57q-127 -10 -156 -40t-29 -159v-819q0 -131 29 -159.5t156 -39.5v-57h-543zM246 1544q0 45 30.5 76t75.5 31q43 0 73 -31t30 -76t-30 -74.5t-75 -29.5t-74.5 29.5t-29.5 74.5z" />
<glyph unicode="&#x131;" horiz-adv-x="548" d="M68 0v53q98 10 120.5 37t22.5 131v410q0 102 -19.5 125.5t-109.5 38.5v49q160 25 291 80v-703q0 -106 23.5 -132t121.5 -36v-53h-450z" />
<glyph unicode="&#x132;" horiz-adv-x="1370" d="M78 0v57q127 10 155.5 40t28.5 159v819q0 129 -28.5 159t-155.5 40v57h543v-57q-127 -10 -156 -40t-29 -159v-819q0 -131 29 -159.5t156 -39.5v-57h-543zM752 -279q160 78 196 267q20 123 21 391v696q0 129 -29 159t-154 40v57h531v-57q-119 -10 -146.5 -40t-27.5 -159 v-764q0 -203 -38 -320.5t-138 -209.5q-100 -90 -191 -119z" />
<glyph unicode="&#x133;" horiz-adv-x="1069" d="M66 0v53q98 10 120.5 35t22.5 129v422q0 96 -18.5 118.5t-110.5 37.5v49q160 25 291 80v-707q0 -104 23.5 -129t121.5 -35v-53h-450zM174 1202q0 45 31 76t74 31t72.5 -31t29.5 -76q0 -43 -31 -73.5t-74 -30.5q-41 0 -71.5 31.5t-30.5 72.5zM473 -436q0 39 41 47 q111 27 150 78q33 41 51 147q16 117 16 395v402q0 102 -20.5 126t-116.5 38v47q170 25 299 80v-695q0 -201 -47 -331q-47 -135 -123 -247t-125 -155q-33 -23 -53 -22q-23 0 -47.5 27.5t-24.5 62.5zM698 1202q0 45 30 76t73 31t72.5 -31t29.5 -76q0 -43 -30.5 -73.5 t-73.5 -30.5q-41 0 -71 31.5t-30 72.5z" />
<glyph unicode="&#x134;" horiz-adv-x="673" d="M55 -279q160 78 197 267q20 123 20 391v696q0 129 -28.5 159t-153.5 40v57h531v-57q-119 -10 -147 -40t-28 -159v-764q0 -203 -37.5 -320.5t-138.5 -209.5q-100 -90 -190 -119zM74 1452q190 145 258 219h45q74 -78 256 -219l-33 -51q-104 43 -248 127q-162 -92 -246 -127 z" />
<glyph unicode="&#x135;" horiz-adv-x="528" d="M-45 -442q0 39 41 47q106 27 147 78q33 43 52 151q16 115 16 397v402q0 104 -22.5 130t-120.5 38v43q178 27 305 80v-697q0 -201 -47 -331q-47 -135 -123 -247t-125 -155q-25 -23 -53 -22q-23 0 -46.5 25.5t-23.5 60.5zM33 1042q100 139 207 334h51q90 -172 203 -334 l-52 -34q-82 78 -178 198q-104 -129 -182 -198z" />
<glyph unicode="&#x136;" horiz-adv-x="1378" d="M84 1274v57h528v-57q-121 -10 -149.5 -42t-28.5 -167v-358q59 12 144 92q207 199 342 364q47 55 40.5 76t-73.5 29l-47 6v57h491v-57q-117 -10 -176 -38t-156 -116q-82 -72 -362 -358q199 -254 481 -557q80 -84 126 -110.5t122 -37.5v-57h-313q-119 131 -508 596 q-57 66 -111 55v-389q0 -133 30 -163.5t159 -41.5v-57h-533v57q119 10 145.5 41t26.5 164v803q0 98 -12 136t-45 52.5t-121 20.5zM657 -121q0 35 25.5 55.5t60.5 20.5q59 0 104.5 -46t45.5 -116q0 -164 -217 -217l-19 57q123 49 123 115q0 59 -92 82q-31 12 -31 49z" />
<glyph unicode="&#x137;" horiz-adv-x="1015" d="M29 0v53q102 8 125.5 35t23.5 125v967q0 102 -20.5 125.5t-114.5 31.5v49q117 12 295 72v-964q70 14 129 69q72 76 143 182q33 47 22 64.5t-83 26.5l2 53l418 18v-51q-104 -18 -154.5 -40.5t-109.5 -80.5q-63 -63 -177 -194q29 -45 146 -181.5t172 -193.5q55 -59 101 -85 t104 -28v-53l-281 -4q-33 37 -336 405q-39 45 -63 45q-14 0 -33 -6v-227q0 -100 23.5 -125t123.5 -35v-53h-456zM453 -389q125 53 125 114.5t-93 84.5q-31 8 -30 49q0 35 25.5 54t60.5 19q59 0 104 -45t45 -114q0 -164 -217 -217z" />
<glyph unicode="&#x138;" horiz-adv-x="1075" d="M74 0v53q98 8 120.5 34t22.5 132v440q0 100 -21.5 126t-115.5 36v51q154 14 299 52v-445q51 10 102 51q125 111 211 220q57 74 -24 86l-35 6v53h403v-53q-78 -8 -126 -27.5t-111 -73.5q-57 -47 -232 -217q160 -213 307 -366q59 -57 94.5 -77t96.5 -28v-53h-279 q-74 78 -317 389q-39 53 -90 33v-201q0 -106 22.5 -133t118.5 -35v-53h-446z" />
<glyph unicode="&#x139;" horiz-adv-x="1101" d="M74 0v57q129 10 158.5 41t29.5 160v819q0 129 -26.5 158t-153.5 39v57h534v-57q-125 -10 -152.5 -39t-27.5 -158v-809q0 -84 10.5 -120.5t36.5 -51.5q49 -27 197 -26q174 0 229 63q62 68 105 201l61 -12q-39 -203 -74 -322h-927zM244 1452q199 129 321 209q18 -2 51 -46 t37 -67l-4 -16l-379 -131z" />
<glyph unicode="&#x13a;" horiz-adv-x="518" d="M31 0v53q98 10 122.5 35t24.5 125v969q0 102 -21.5 123.5t-119.5 31.5v49q150 16 303 72v-1245q0 -100 23.5 -125t123.5 -35v-53h-456zM104 1546q35 23 322 209q18 -2 51 -46t37 -67l-4 -16l-379 -131z" />
<glyph unicode="&#x13b;" horiz-adv-x="1101" d="M74 0v57q129 10 158.5 41t29.5 160v819q0 129 -26.5 158t-153.5 39v57h534v-57q-125 -10 -152.5 -39t-27.5 -158v-809q0 -84 10.5 -120.5t36.5 -51.5q49 -27 197 -26q174 0 229 63q62 68 105 201l61 -12q-39 -203 -74 -322h-927zM514 -145q0 35 25.5 54t60.5 19 q59 0 104.5 -45t45.5 -114q0 -164 -218 -218l-18 56q123 53 123 114.5t-92 83.5q-31 8 -31 50z" />
<glyph unicode="&#x13c;" horiz-adv-x="518" d="M31 0v53q98 10 122.5 35t24.5 125v969q0 102 -21.5 123.5t-119.5 31.5v49q150 16 303 72v-1245q0 -100 23.5 -125t123.5 -35v-53h-456zM150 -391q125 49 124 115q0 59 -94 81q-29 12 -28 50q0 35 25.5 55t60.5 20q59 0 104 -46t45 -115q0 -160 -217 -218z" />
<glyph unicode="&#x13d;" horiz-adv-x="1101" d="M74 0v57q129 10 158.5 41t29.5 160v819q0 129 -26.5 158t-153.5 39v57h534v-57q-125 -10 -152.5 -39t-27.5 -158v-809q0 -84 10.5 -120.5t36.5 -51.5q49 -27 197 -26q174 0 229 63q62 68 105 201l61 -12q-39 -203 -74 -322h-927zM713 1020q94 49 94 117q0 57 -66 77 q-27 14 -26 52q0 35 22 55t51 20q51 0 87 -46t36 -117q0 -160 -178 -215z" />
<glyph unicode="&#x13e;" horiz-adv-x="518" d="M31 0v53q98 10 122.5 35t24.5 125v969q0 102 -21.5 123.5t-119.5 31.5v49q150 16 303 72v-1245q0 -100 24.5 -125t124.5 -35v-53h-458zM434 1135q92 47 92 116q0 57 -65 78q-27 14 -27 51t21.5 56.5t52.5 19.5q51 0 87 -46t36 -118q0 -160 -176 -213z" />
<glyph unicode="&#x13f;" horiz-adv-x="1101" d="M74 0v57q129 10 158.5 41t29.5 160v819q0 129 -26.5 158t-153.5 39v57h534v-57q-125 -10 -152.5 -39t-27.5 -158v-809q0 -84 10.5 -120.5t36.5 -51.5q49 -27 197 -26q174 0 229 63q62 68 105 201l61 -12q-39 -203 -74 -322h-927zM635 725q0 45 30.5 75.5t75.5 30.5 q43 0 73 -30.5t30 -75.5t-30 -76t-75 -31t-74.5 31t-29.5 76z" />
<glyph unicode="&#x140;" horiz-adv-x="555" d="M31 0v53q98 10 122.5 35t24.5 125v969q0 102 -21.5 123.5t-119.5 31.5v49q150 16 303 72v-1245q0 -100 24.5 -125t124.5 -35v-53h-458zM436 729q0 45 30 75t73 30q41 0 69.5 -30t28.5 -75q0 -43 -28.5 -72.5t-71.5 -29.5q-41 0 -71 30.5t-30 71.5z" />
<glyph unicode="&#x141;" horiz-adv-x="1126" d="M86 418v92l201 152v405q0 131 -29 164t-152 43v57h535v-57q-123 -10 -151.5 -43t-28.5 -164v-281l256 193v-96l-256 -195v-401q0 -92 9 -134t38 -57q45 -27 192 -26q96 0 147.5 12t84.5 51q53 55 104 205l62 -10q-57 -276 -74 -328h-930v57q131 8 162 41t31 168v301z" />
<glyph unicode="&#x142;" horiz-adv-x="559" d="M55 0v53q102 10 127 36t25 132v438l-152 -124v94l152 125v440q0 96 -21.5 118.5t-122.5 33.5v47q178 20 306 71v-581l186 157v-94l-186 -155v-570q0 -106 24.5 -132t126.5 -36v-53h-465z" />
<glyph unicode="&#x143;" horiz-adv-x="1521" d="M41 1274v57h301l856 -1026h6v502q0 240 -14 340q-8 70 -50 95.5t-151 31.5v57h484v-57q-88 -4 -127 -30.5t-46 -90.5q-12 -96 -12 -346v-825h-63l-873 1073h-4v-514q0 -227 12 -346q8 -76 49.5 -104t147.5 -34v-57h-485v57q92 6 132 34t48 99q12 127 12 351v450 q0 111 -6 140.5t-35 66.5q-33 39 -70.5 54.5t-111.5 21.5zM633 1452q166 109 321 209q18 -2 50 -46t36 -67l-2 -16l-381 -131z" />
<glyph unicode="&#x144;" horiz-adv-x="1120" d="M59 0v53q104 10 127 35t23 125v422q0 96 -19.5 119.5t-103.5 40.5v47q168 31 285 82v-162q43 31 137 96q96 61 170 62q123 0 193.5 -82t70.5 -230v-395q0 -102 20.5 -126t110.5 -34v-53h-428v53q90 10 112.5 37t22.5 133v342q0 233 -186 234q-102 0 -223 -105v-481 q0 -102 20.5 -126t112.5 -34v-53h-445zM492 1038q16 37 47.5 110t59.5 139.5t32 74.5q14 6 80.5 14t85.5 4l6 -18l-258 -350z" />
<glyph unicode="&#x145;" horiz-adv-x="1521" d="M41 1274v57h301l856 -1026h6v502q0 240 -14 340q-8 70 -50 95.5t-151 31.5v57h484v-57q-88 -4 -127 -30.5t-46 -90.5q-12 -96 -12 -346v-825h-63l-873 1073h-4v-514q0 -227 12 -346q8 -76 49.5 -104t149.5 -34v-57h-487v57q92 6 132 34t48 99q12 127 12 351v450 q0 111 -6 140.5t-35 66.5q-33 39 -70.5 54.5t-111.5 21.5zM702 -102q0 35 25.5 55t60.5 20q59 0 104.5 -46t45.5 -115q0 -160 -217 -218l-19 58q123 49 123 115q0 57 -92 83q-31 8 -31 48z" />
<glyph unicode="&#x146;" horiz-adv-x="1120" d="M59 0v53q104 10 127 35t23 125v422q0 96 -19.5 119.5t-103.5 40.5v47q168 31 285 82v-162q43 31 137 96q96 61 168 62q123 0 193.5 -82t70.5 -230v-395q0 -102 20.5 -126t110.5 -34v-53h-426v53q90 10 111.5 37t21.5 133v342q0 233 -184 234q-102 0 -223 -105v-481 q0 -102 20.5 -126t112.5 -34v-53h-445zM494 -164q0 35 25.5 54.5t60.5 21.5q59 0 104 -46t45 -116q0 -164 -217 -217l-18 57q123 49 122 115q0 59 -92 82q-31 8 -30 49z" />
<glyph unicode="&#x147;" horiz-adv-x="1521" d="M41 1274v57h301l856 -1026h6v502q0 240 -14 340q-8 70 -50 95.5t-151 31.5v57h484v-57q-88 -4 -127 -30.5t-46 -90.5q-12 -96 -12 -346v-825h-63l-873 1073h-4v-514q0 -227 12 -346q8 -76 49.5 -104t147.5 -34v-57h-485v57q92 6 132 34t48 99q12 127 12 351v450 q0 111 -6 140.5t-35 66.5q-33 39 -70.5 54.5t-111.5 21.5zM485 1597l31 54q139 -57 250 -127q144 84 248 127l33 -54q-162 -117 -259 -219h-45q-74 78 -258 219z" />
<glyph unicode="&#x148;" horiz-adv-x="1120" d="M59 0v53q104 10 127 35t23 125v422q0 96 -19.5 119.5t-103.5 40.5v47q168 31 285 82v-162q43 31 137 96q96 61 170 62q123 0 193.5 -82t70.5 -230v-395q0 -102 20.5 -126t110.5 -34v-53h-428v53q90 10 112.5 37t22.5 133v342q0 233 -186 234q-102 0 -223 -105v-481 q0 -102 20.5 -126t112.5 -34v-53h-445zM328 1348l51 34q80 -76 178 -198q110 130 180 198l51 -34q-100 -139 -206 -334h-52q-96 182 -202 334z" />
<glyph unicode="&#x149;" horiz-adv-x="1120" d="M25 1073q143 61 143 158q0 45 -34 74.5t-83 40.5q-27 4 -26 36q0 35 27.5 54.5t60.5 19.5q66 0 123 -53t57 -137q0 -94 -75 -154.5t-177 -83.5zM57 0v53q104 10 128 35t24 125v422q0 96 -19.5 119.5t-105.5 40.5v47q174 33 287 84v-164q43 31 137 96q96 61 170 62 q123 0 193.5 -82t70.5 -230v-395q0 -102 20.5 -126t110.5 -34v-53h-428v53q90 10 112.5 37t22.5 133v342q0 233 -186 234q-102 0 -223 -105v-481q0 -102 20.5 -126t112.5 -34v-53h-447z" />
<glyph unicode="&#x14a;" horiz-adv-x="1507" d="M41 1274v57h301l840 -1022h6v488q0 213 -14 352q-8 68 -50.5 94.5t-150.5 30.5v57h485v-57q-88 -4 -126 -29.5t-46 -91.5q-12 -127 -12 -356v-588q4 -377 -74 -510q-74 -131 -190 -131q-35 0 -63.5 31.5t-28.5 74.5q0 39 28 39q8 0 34 -5t48 -5q61 0 107.5 71.5 t48.5 243.5l-830 1031h-4v-498q0 -238 12 -356q8 -78 49.5 -105t147.5 -33v-57h-487v57q90 4 130 32t48 101q14 111 14 361v430q0 113 -6 147.5t-35 69.5q-33 39 -70.5 54.5t-111.5 21.5z" />
<glyph unicode="&#x14b;" horiz-adv-x="1107" d="M57 0v53q102 10 126 35t24 127v418q0 98 -18.5 121.5t-106.5 40.5v47q174 33 287 84v-166q51 39 139 98q90 61 168 62q123 0 193.5 -81t70.5 -229v-364q0 -176 -33 -297q-31 -117 -110 -215q-96 -125 -185 -125q-29 0 -55.5 31.5t-26.5 68.5q0 41 27 41q10 0 46 -10 t56 -10q51 0 78 39q41 68 41 297v493q0 236 -184 236q-104 0 -225 -105v-475q0 -102 21.5 -128t115.5 -34v-53h-449z" />
<glyph unicode="&#x14c;" horiz-adv-x="1529" d="M90 651q0 291 189.5 501t500.5 210q268 0 464 -190.5t196 -489.5q0 -324 -196.5 -518.5t-487.5 -194.5q-281 0 -473.5 194.5t-192.5 487.5zM299 709q0 -289 141.5 -477.5t358.5 -188.5q184 0 308 151.5t124 432.5q0 311 -141.5 486t-354.5 175q-182 0 -309 -152.5 t-127 -426.5zM539 1468v107h456v-107h-456z" />
<glyph unicode="&#x14d;" horiz-adv-x="1044" d="M76 428q0 121 43 218t111.5 154.5t145 88.5t150.5 31q188 0 315.5 -133.5t127.5 -323.5q0 -229 -137.5 -358.5t-307.5 -129.5q-201 0 -324.5 136.5t-123.5 316.5zM266 494q0 -197 78 -324t203 -127q104 0 167.5 89t63.5 286q0 186 -73.5 310t-204.5 124q-98 0 -166 -96.5 t-68 -261.5zM297 1122v113h451v-113h-451z" />
<glyph unicode="&#x14e;" horiz-adv-x="1529" d="M90 651q0 186 81 347t241.5 262.5t367.5 101.5q268 0 464 -190.5t196 -489.5q0 -324 -196.5 -518.5t-487.5 -194.5q-281 0 -473.5 194.5t-192.5 487.5zM299 709q0 -289 141.5 -477.5t358.5 -188.5q184 0 308 151.5t124 432.5q0 311 -141.5 486t-354.5 175 q-180 0 -308 -152.5t-128 -426.5zM512 1679h61q33 -127 178.5 -127t178.5 127h61q-2 -119 -66.5 -181t-173 -62t-173 62.5t-66.5 180.5z" />
<glyph unicode="&#x14f;" horiz-adv-x="1044" d="M76 428q0 231 144 361.5t308 130.5q186 0 313.5 -133.5t127.5 -323.5q0 -229 -136.5 -358.5t-306.5 -129.5q-203 0 -326.5 136.5t-123.5 316.5zM268 494q0 -197 77 -324t202 -127q104 0 167.5 89t63.5 286q0 186 -72.5 310t-203.5 124q-98 0 -166 -96.5t-68 -261.5z M283 1327h61q23 -164 164 -164q145 0 168 164h61q0 -281 -229 -280q-225 0 -225 280z" />
<glyph unicode="&#x150;" horiz-adv-x="1529" d="M90 651q0 291 189.5 501t500.5 210q268 0 464 -190.5t196 -489.5q0 -324 -196.5 -518.5t-487.5 -194.5q-281 0 -473.5 194.5t-192.5 487.5zM299 709q0 -289 141.5 -477.5t358.5 -188.5q184 0 308 151.5t124 432.5q0 311 -141.5 486t-354.5 175q-182 0 -309 -152.5 t-127 -426.5zM582 1432q20 51 57 138t47 113q29 2 78 -8t67 -20l3 -23l-201 -229zM872 1432q37 88 103 251q29 2 78 -7t69 -19l2 -25l-200 -229z" />
<glyph unicode="&#x151;" horiz-adv-x="1044" d="M76 428q0 121 43 218t111.5 154.5t145 88.5t150.5 31q188 0 315.5 -133.5t127.5 -323.5q0 -229 -137.5 -358.5t-307.5 -129.5q-201 0 -324.5 136.5t-123.5 316.5zM266 494q0 -197 78 -324t203 -127q104 0 167.5 89t63.5 286q0 186 -73.5 310t-204.5 124q-98 0 -166 -96.5 t-68 -261.5zM317 1030l95 330q16 6 76.5 16t80.5 8l4 -20l-198 -352zM600 1030q10 41 33.5 121t40 138.5t18.5 70.5q16 8 77.5 17t80.5 7l6 -20l-199 -352z" />
<glyph unicode="&#x152;" horiz-adv-x="1992" d="M92 649q0 315 223.5 510t558.5 195q55 0 195 -13q117 -10 191 -10h565q4 -121 18 -291l-61 -6q-29 125 -62 170q-23 31 -72 43.5t-159 12.5h-158q-45 0 -55 -9.5t-10 -52.5v-467h202q127 0 158 24.5t49 125.5h62v-389h-62q-20 109 -50 133t-157 24h-202v-377 q0 -141 49 -174q41 -27 211 -26q119 0 172 13t88 52q49 54 98 193l62 -8q-35 -188 -72 -322h-627q-117 0 -209 -8q-154 -14 -207 -15q-182 0 -326.5 55.5t-232.5 151t-134 214t-46 251.5zM301 676q0 -125 30.5 -233.5t93 -198.5t173.5 -142.5t256 -52.5q104 0 166 29 q41 20 56.5 50.5t15.5 96.5v893q0 100 -37 121q-72 43 -203 43q-258 0 -404.5 -163t-146.5 -443z" />
<glyph unicode="&#x153;" horiz-adv-x="1576" d="M76 426q0 121 44 219t111.5 155.5t142 88.5t144.5 31q113 0 203 -55.5t141 -151.5q57 90 153.5 148.5t192.5 58.5q129 0 222.5 -93.5t93.5 -216.5q0 -37 -9.5 -50t-35.5 -19q-102 -20 -551 -35q-2 -199 91 -296t228 -97q113 0 232 104l30 -45q-78 -106 -170 -151.5 t-159 -45.5q-223 0 -332 179q-63 -86 -152.5 -132.5t-181.5 -46.5q-197 0 -317.5 137.5t-120.5 313.5zM268 494q0 -201 75 -325t202 -124q96 0 160.5 92t64.5 287q0 188 -71.5 307t-200.5 119q-96 0 -163 -96.5t-67 -259.5zM940 586q41 0 113.5 1t135 2t118.5 3q41 0 41 49 q0 88 -53.5 145.5t-139.5 57.5q-74 0 -137.5 -68.5t-77.5 -189.5z" />
<glyph unicode="&#x154;" horiz-adv-x="1271" d="M78 0v57q127 10 155.5 40t28.5 159v823q0 127 -26.5 156t-149.5 39v57h508q223 0 326 -69q137 -86 137 -269q0 -236 -260 -352q55 -106 182 -295q100 -145 166 -213q63 -73 147 -96l-8 -53q-49 0 -72 2q-117 6 -189.5 47t-141.5 139q-43 61 -207 328q-27 45 -63 63.5 t-111 18.5h-66v-326q0 -129 29 -158.5t151 -40.5v-57h-536zM434 647h98q150 0 222 60q113 86 112 254q0 156 -86 229.5t-213 73.5q-84 0 -110 -21q-23 -14 -23 -90v-506zM477 1452q166 109 322 209q16 -2 49 -46t37 -67l-4 -16l-379 -131z" />
<glyph unicode="&#x155;" horiz-adv-x="759" d="M68 0v53q96 10 118.5 35t22.5 125v424q0 100 -18.5 123.5t-108.5 34.5v47q154 25 289 84v-226h4q129 219 248 220q49 0 83.5 -33t34.5 -70q0 -70 -65 -100q-35 -14 -53 4q-43 41 -88 41q-41 0 -86.5 -45t-77.5 -129v-375q0 -102 25.5 -127t142.5 -33v-53h-471zM358 1036 q16 37 47 110t59 138.5t32 75.5q14 8 80.5 16t85.5 4l6 -20l-256 -350z" />
<glyph unicode="&#x156;" horiz-adv-x="1271" d="M78 0v57q127 10 155.5 40t28.5 159v823q0 127 -26.5 156t-149.5 39v57h508q223 0 326 -69q137 -86 137 -269q0 -236 -260 -352q55 -106 182 -295q100 -145 166 -213q63 -73 147 -96l-8 -53q-49 0 -72 2q-117 6 -189.5 47t-141.5 139q-63 88 -205 328q-29 45 -65 63.5 t-111 18.5h-66v-326q0 -129 29 -158.5t153 -40.5v-57h-538zM434 647h98q150 0 222 60q113 86 112 254q0 156 -86 229.5t-213 73.5q-84 0 -110 -21q-23 -14 -23 -90v-506zM614 -121q0 37 25.5 56.5t60.5 19.5q59 0 104.5 -45t45.5 -117q0 -162 -217 -215l-19 55 q123 53 123 115t-92 84q-31 8 -31 47z" />
<glyph unicode="&#x157;" horiz-adv-x="759" d="M68 0v53q96 10 118.5 35t22.5 125v424q0 100 -18.5 123.5t-108.5 34.5v47q154 25 289 84v-226h4q129 219 248 220q49 0 83.5 -33t34.5 -70q0 -70 -65 -100q-35 -14 -53 4q-43 41 -88 41q-41 0 -86.5 -45t-77.5 -129v-375q0 -102 25.5 -127t142.5 -33v-53h-471zM201 -152 q0 35 25.5 54.5t62.5 19.5q59 0 103 -45t44 -115q0 -164 -215 -217l-20 56q123 53 123 114.5t-93 83.5q-31 8 -30 49z" />
<glyph unicode="&#x158;" horiz-adv-x="1271" d="M78 0v57q127 10 155.5 40t28.5 159v823q0 127 -26.5 156t-149.5 39v57h508q223 0 326 -69q137 -86 137 -269q0 -236 -260 -352q55 -106 182 -295q100 -145 166 -213q63 -73 147 -96l-8 -53q-49 0 -72 2q-117 6 -189.5 47t-141.5 139q-43 61 -207 328q-27 45 -63 63.5 t-111 18.5h-66v-326q0 -129 29 -158.5t151 -40.5v-57h-536zM301 1630l33 51q147 -63 248 -127q130 78 247 127l31 -51q-168 -129 -256 -221h-45q-59 66 -258 221zM434 647h98q150 0 222 60q113 86 112 254q0 156 -86 229.5t-213 73.5q-84 0 -110 -21q-23 -14 -23 -90v-506z " />
<glyph unicode="&#x159;" horiz-adv-x="759" d="M68 0v53q96 10 118.5 35t22.5 125v424q0 100 -18.5 123.5t-108.5 34.5v47q154 25 289 84v-226h4q129 219 248 220q49 0 83.5 -33t34.5 -70q0 -70 -65 -100q-35 -14 -53 4q-43 41 -88 41q-41 0 -86.5 -45t-77.5 -129v-375q0 -102 25.5 -127t142.5 -33v-53h-471zM197 1346 l49 34q80 -72 180 -196q100 124 180 196l51 -34q-121 -166 -206 -334h-52q-102 190 -202 334z" />
<glyph unicode="&#x15a;" horiz-adv-x="970" d="M84 360l61 15q14 -55 37 -106.5t62 -105.5t100.5 -87t136.5 -33q115 0 180.5 66.5t65.5 179.5q0 104 -64.5 167.5t-201.5 137.5q-164 90 -225 149q-113 109 -113 254q0 154 114.5 259.5t307.5 105.5q109 0 258 -47q10 -84 35 -283l-60 -10q-33 123 -91 196.5t-177 73.5 q-111 0 -169 -65.5t-58 -157.5q0 -104 62.5 -168.5t197.5 -134.5q53 -27 72.5 -37t67.5 -40t68.5 -48t55.5 -52t50 -65.5t27.5 -74.5t12.5 -93q0 -164 -127 -275.5t-328 -111.5q-96 0 -200 31q-45 14 -103 43q-16 47 -55 317zM373 1468q35 23 321 209q18 -2 51 -45.5 t37 -66.5l-4 -17l-379 -131z" />
<glyph unicode="&#x15b;" horiz-adv-x="751" d="M84 287l55 10q29 -109 95.5 -181.5t154.5 -72.5q59 0 102.5 40t43.5 103.5t-40 105.5t-122 81q-57 25 -94 46t-79 55t-62.5 79t-20.5 100q0 111 87 189t224 78q98 0 180 -37q12 -31 26.5 -103.5t18.5 -113.5l-51 -15q-68 203 -211 203q-59 0 -96 -40t-37 -101.5 t45 -101.5t127 -74q129 -53 194.5 -117t65.5 -162q0 -131 -102.5 -207t-235.5 -76q-72 0 -138.5 21.5t-94.5 48.5q-10 23 -22.5 104.5t-12.5 137.5zM313 1038q16 37 48 110t60 139.5t32 74.5q14 6 80.5 14t84.5 4l7 -18l-258 -350z" />
<glyph unicode="&#x15c;" horiz-adv-x="970" d="M84 360l61 15q14 -55 37 -106.5t62 -105.5t100.5 -87t136.5 -33q115 0 180.5 66.5t65.5 179.5q0 104 -64.5 167.5t-201.5 137.5q-164 90 -225 149q-113 109 -113 254q0 154 114.5 259.5t307.5 105.5q109 0 258 -47q10 -84 35 -283l-60 -10q-33 123 -91 196.5t-177 73.5 q-111 0 -169 -65.5t-58 -157.5q0 -104 62.5 -168.5t197.5 -134.5q53 -27 72.5 -37t67.5 -40t68.5 -48t55.5 -52t50 -65.5t27.5 -74.5t12.5 -93q0 -164 -127 -275.5t-328 -111.5q-96 0 -200 31q-45 14 -103 43q-16 47 -55 317zM231 1464q190 145 258 219h46q74 -78 256 -219 l-33 -51q-102 43 -248 127q-162 -92 -246 -127z" />
<glyph unicode="&#x15d;" horiz-adv-x="751" d="M84 287l55 10q29 -109 95.5 -181.5t154.5 -72.5q59 0 102.5 40t43.5 103.5t-40 105.5t-122 81q-57 25 -94 46t-79 55t-62.5 79t-20.5 100q0 111 87 189t224 78q98 0 180 -37q12 -31 26.5 -103.5t18.5 -113.5l-51 -15q-68 203 -211 203q-59 0 -96 -40t-37 -101.5 t45 -101.5t127 -74q129 -53 194.5 -117t65.5 -162q0 -131 -102.5 -207t-235.5 -76q-72 0 -138.5 21.5t-94.5 48.5q-10 23 -22.5 104.5t-12.5 137.5zM156 1042q100 139 206 334h52q89 -172 202 -334l-51 -34q-82 78 -178 198q-104 -129 -182 -198z" />
<glyph unicode="&#x15e;" horiz-adv-x="976" d="M82 362l57 13q16 -55 39 -105.5t64 -105.5t104.5 -88t142.5 -33q111 0 175.5 66.5t64.5 179.5q0 76 -40 136t-87 93t-135 80q-59 31 -87 46t-85 56t-87 78t-55.5 96.5t-25.5 126.5q0 150 115.5 255.5t306.5 105.5q106 0 256 -47q4 -39 16.5 -133.5t20.5 -153.5l-60 -6 q-33 125 -91 198.5t-177 73.5q-106 0 -165.5 -64.5t-59.5 -154.5q0 -106 62.5 -172.5t197.5 -132.5q76 -37 124 -65.5t107.5 -77.5t89 -116t29.5 -151q0 -139 -89 -240.5t-239 -131.5l-28 -47q-16 -27 -14.5 -42.5t28.5 -39.5q78 -78 78 -140q0 -63 -62.5 -117.5 t-169.5 -86.5l-26 53q127 55 127 121q0 29 -49 78q-39 39 -45.5 63.5t20.5 67.5l57 73q-12 -2 -36 -2q-106 2 -207 31q-61 20 -107 43q-27 68 -55 319z" />
<glyph unicode="&#x15f;" horiz-adv-x="749" d="M80 293l55 8q29 -109 97.5 -183.5t156.5 -74.5q59 0 102.5 38t43.5 103.5t-40 108.5t-124 84q-117 51 -185.5 113.5t-68.5 164.5q0 111 86 188t225 77q98 0 180 -37q37 -96 47 -217l-53 -15q-31 94 -85 148.5t-126 54.5q-59 0 -96 -39t-37 -98q0 -104 174 -178 q129 -55 193.5 -119t64.5 -162q0 -104 -63.5 -173t-163.5 -93l-35 -49q-18 -29 -15 -44.5t29 -39.5q72 -70 72 -135q0 -61 -60.5 -115.5t-162.5 -87.5l-21 55q119 53 119 117q0 35 -47 78q-39 35 -46 61.5t21 63.5l64 81q-10 -2 -33 -2q-70 0 -138.5 24t-96.5 50 q-10 27 -20.5 108t-12.5 136z" />
<glyph unicode="&#x160;" horiz-adv-x="970" d="M84 360l61 15q14 -55 37 -106.5t62 -105.5t100.5 -87t136.5 -33q115 0 180.5 66.5t65.5 179.5q0 104 -64.5 167.5t-201.5 137.5q-164 90 -225 149q-113 109 -113 254q0 154 114.5 259.5t307.5 105.5q109 0 258 -47q10 -84 35 -283l-60 -10q-33 123 -91 196.5t-177 73.5 q-111 0 -169 -65.5t-58 -157.5q0 -104 62.5 -168.5t197.5 -134.5q53 -27 72.5 -37t67.5 -40t68.5 -48t55.5 -52t50 -65.5t27.5 -74.5t12.5 -93q0 -164 -127 -275.5t-328 -111.5q-96 0 -200 31q-45 14 -103 43q-16 47 -55 317zM229 1647l33 51q139 -59 248 -127 q139 82 248 127l30 -51q-176 -135 -256 -222h-45q-82 86 -258 222z" />
<glyph unicode="&#x161;" horiz-adv-x="751" d="M84 287l55 10q29 -109 95.5 -181.5t154.5 -72.5q59 0 102.5 40t43.5 103.5t-40 105.5t-122 81q-57 25 -94 46t-79 55t-62.5 79t-20.5 100q0 111 87 189t224 78q98 0 180 -37q12 -31 26.5 -103.5t18.5 -113.5l-51 -15q-68 203 -211 203q-59 0 -96 -40t-37 -101.5 t45 -101.5t127 -74q129 -53 194.5 -117t65.5 -162q0 -131 -102.5 -207t-235.5 -76q-72 0 -138.5 21.5t-94.5 48.5q-10 23 -22.5 104.5t-12.5 137.5zM160 1348l51 34q80 -76 178 -198q110 130 180 198l52 -34q-100 -139 -207 -334h-52q-96 182 -202 334z" />
<glyph unicode="&#x162;" horiz-adv-x="1263" d="M57 1014q20 238 25 368h41q23 -33 44 -42t69 -9h811q39 0 58 10.5t44 40.5h43q0 -124 20 -362l-59 -6q-31 137 -66 182q-27 39 -67.5 52.5t-153.5 13.5h-145v-1010q0 -123 32.5 -154.5t178.5 -40.5v-57h-588v57q139 8 172 40t33 155v1010h-127q-123 0 -171 -14.5 t-69 -49.5q-25 -35 -65 -184h-60zM530 -150q0 35 25.5 54.5t62.5 19.5q57 0 102.5 -45t45.5 -117q0 -162 -215 -215l-21 56q123 53 123 114.5t-92 83.5q-31 8 -31 49z" />
<glyph unicode="&#x163;" horiz-adv-x="624" d="M35 836l57 59h92v147l133 138l29 -4v-281h232q16 -16 12 -43t-25 -39h-219v-524q0 -197 121 -197q59 0 125 35l18 -53l-139 -72q-51 -27 -84 -27q-203 0 -203 244v594h-139zM258 -172q0 37 25.5 56.5t60.5 19.5q59 0 104.5 -46t45.5 -116q0 -160 -218 -217l-18 57 q123 53 123 114.5t-92 84.5q-31 8 -31 47z" />
<glyph unicode="&#x164;" horiz-adv-x="1263" d="M57 1014q20 238 25 368h41q20 -33 42.5 -42t70.5 -9h808q39 0 58.5 10.5t44.5 40.5h43q4 -182 22 -362l-61 -6q-27 129 -64 182q-27 39 -68.5 52.5t-154.5 13.5h-143v-1010q0 -123 32.5 -154.5t176.5 -40.5v-57h-586v57q139 8 171 40t32 155v1010h-127q-123 0 -170 -14.5 t-68 -49.5q-25 -35 -65 -184h-60zM352 1630l33 51q139 -59 248 -127q139 82 248 127l30 -51q-176 -135 -256 -221h-45q-82 86 -258 221z" />
<glyph unicode="&#x165;" horiz-adv-x="624" d="M35 836l57 59h92v147l133 138l29 -4v-281h232q16 -16 12 -43t-25 -39h-219v-524q0 -197 121 -197q59 0 125 35l18 -53l-139 -72q-51 -27 -86 -27q-201 0 -201 244v594h-141zM483 1100q92 47 92 117q0 57 -65 77q-27 12 -27 52q0 35 22.5 55t51.5 20q51 0 88 -47t37 -117 q0 -160 -178 -213z" />
<glyph unicode="&#x166;" horiz-adv-x="1255" d="M57 1016q20 240 25 366h43q20 -33 39.5 -42t64.5 -9h813q39 0 55.5 9.5t41.5 41.5h45q0 -161 20 -360l-61 -6q-29 135 -60 180q-27 37 -73.5 50.5t-161.5 13.5h-131v-543h305v-80h-305v-381q0 -127 32.5 -160t176.5 -41v-55h-586v55q139 8 171 42t32 159v381h-299v80h299 v543h-103q-139 0 -188 -13.5t-70 -50.5q-27 -43 -63 -180h-62z" />
<glyph unicode="&#x167;" horiz-adv-x="620" d="M35 836l57 59h92v147l133 138l29 -4v-281h232q16 -16 12 -43t-25 -39h-219v-278h207v-74h-207v-172q0 -197 121 -197q59 0 125 35l20 -51l-145 -76q-47 -25 -82 -25q-201 0 -201 244v242h-137v74h137v278h-141z" />
<glyph unicode="&#x168;" horiz-adv-x="1507" d="M68 1274v57h528v-57q-121 -8 -148.5 -39t-27.5 -168v-465q0 -250 98 -385t287 -135q387 0 387 586v153q0 227 -14 338q-8 59 -49.5 83t-149.5 32v57h487v-57q-94 -6 -133 -31.5t-45 -89.5q-12 -111 -12 -332v-168q0 -377 -154 -540q-139 -141 -368 -142q-201 0 -328 99 q-180 137 -180 487v510q0 135 -28 166t-150 41zM528 1446q68 168 166 168q43 0 127 -39q70 -33 113 -33q49 0 94 88l49 -26q-53 -174 -168 -174q-43 0 -143 43q-57 29 -90 28q-49 0 -98 -90z" />
<glyph unicode="&#x169;" horiz-adv-x="1087" d="M59 823v49q39 2 148 15q121 18 145 22q-6 -63 -6 -299v-274q0 -231 180 -232q121 0 222 99v477q0 80 -16.5 101.5t-69.5 31.5l-74 10v49q90 4 184 17q76 8 137 20v-684q0 -76 17.5 -96t79.5 -25l55 -4l-2 -51q-61 -8 -156 -33q-27 -8 -76 -22t-67 -19l-12 13v145 q-115 -86 -152 -106q-88 -51 -158 -52q-113 0 -183.5 75t-70.5 231v401q0 78 -13 99.5t-54 29.5zM276 1100q59 184 166 184q39 0 119 -41q74 -39 109 -39q45 0 88 92l51 -26q-57 -184 -162 -185q-45 0 -135 48q-55 33 -92 32q-51 0 -90 -98z" />
<glyph unicode="&#x16a;" horiz-adv-x="1507" d="M68 1274v57h528v-57q-121 -8 -148.5 -39t-27.5 -168v-465q0 -250 98 -385t287 -135q387 0 387 586v153q0 227 -14 338q-8 59 -49.5 83t-149.5 32v57h487v-57q-94 -6 -133 -31.5t-45 -89.5q-12 -111 -12 -332v-168q0 -377 -154 -540q-139 -141 -370 -142q-199 0 -326 99 q-180 137 -180 487v510q0 135 -28 166t-150 41zM555 1468v107h459v-107h-459z" />
<glyph unicode="&#x16b;" horiz-adv-x="1087" d="M59 825v47q39 2 148 15q121 18 145 22q-6 -63 -6 -297v-276q0 -231 180 -232q121 0 222 99v479q0 78 -16.5 100.5t-69.5 30.5l-74 12v47q90 4 184 17q76 8 137 20v-684q0 -76 17.5 -96t79.5 -25l55 -2v-53q-66 -8 -158 -33q-27 -8 -76 -22t-67 -19l-12 13v145 q-115 -86 -152 -106q-88 -51 -158 -52q-113 0 -183.5 75t-70.5 231v401q0 78 -13 99.5t-54 31.5zM319 1122v113h447v-113h-447z" />
<glyph unicode="&#x16c;" horiz-adv-x="1507" d="M68 1274v57h530v-57q-121 -8 -148.5 -39t-27.5 -168v-465q0 -250 97 -385t288 -135q385 0 385 586v153q0 227 -14 338q-8 59 -49.5 83t-149.5 32v57h487v-57q-94 -6 -133 -31.5t-45 -89.5q-12 -111 -12 -332v-168q0 -377 -154 -540q-139 -141 -368 -142q-199 0 -326 99 q-180 137 -180 487v510q0 135 -27.5 166t-152.5 41zM551 1647h61q33 -125 178.5 -125t180.5 127l59 -2q-2 -119 -66.5 -180.5t-173 -61.5t-173 61.5t-66.5 180.5z" />
<glyph unicode="&#x16d;" horiz-adv-x="1087" d="M59 825v47q39 2 148 15q121 18 145 22q-6 -63 -6 -297v-276q0 -231 180 -232q121 0 222 99v479q0 78 -16.5 100.5t-69.5 30.5l-74 12v47q90 4 184 17q76 8 137 20v-684q0 -76 17.5 -96t79.5 -25l55 -2v-53q-66 -8 -158 -33q-27 -8 -76 -22t-67 -19l-12 13v145 q-115 -86 -152 -106q-88 -51 -158 -52q-113 0 -183.5 75t-70.5 231v401q0 78 -13 99.5t-54 31.5zM307 1327h60q23 -162 163 -162q143 0 168 162h60q0 -150 -63.5 -215t-164.5 -65q-98 0 -160.5 65.5t-62.5 214.5z" />
<glyph unicode="&#x16e;" horiz-adv-x="1507" d="M68 1274v57h528v-57q-121 -8 -148.5 -39t-27.5 -168v-465q0 -250 98 -385t287 -135q387 0 387 586v153q0 227 -14 338q-8 59 -49.5 83t-149.5 32v57h487v-57q-94 -6 -133 -31.5t-45 -89.5q-12 -111 -12 -332v-168q0 -377 -154 -540q-139 -141 -368 -142q-201 0 -328 99 q-180 137 -180 487v510q0 135 -28 166t-150 41zM612 1556q0 76 54.5 123t128.5 47q72 0 126 -47t54 -123q0 -78 -54.5 -127t-127.5 -49q-72 0 -126.5 49.5t-54.5 126.5zM702 1556q0 -49 26 -80.5t65 -31.5q41 0 65.5 31.5t24.5 80.5q0 47 -24.5 77t-67.5 30q-39 0 -64 -29.5 t-25 -77.5z" />
<glyph unicode="&#x16f;" horiz-adv-x="1087" d="M59 825v47q39 2 148 15q121 18 145 22q-6 -63 -6 -297v-276q0 -231 180 -232q121 0 222 99v479q0 78 -16.5 100.5t-69.5 30.5l-74 12v47q90 4 184 17q76 8 137 20v-684q0 -76 17.5 -96t79.5 -25l55 -2v-53q-66 -8 -158 -33q-27 -8 -76 -22t-67 -19l-12 13v145 q-115 -86 -152 -106q-88 -51 -158 -52q-113 0 -183.5 75t-70.5 231v401q0 78 -13 99.5t-54 31.5zM360 1198q0 76 55.5 123t129.5 47q70 0 124 -47t54 -123q0 -78 -54.5 -127t-126 -49t-127 49t-55.5 127zM453 1198q0 -47 26.5 -81t65.5 -34q41 0 65.5 33t24.5 82 q0 47 -24.5 77t-67.5 30q-39 0 -64.5 -31t-25.5 -76z" />
<glyph unicode="&#x170;" horiz-adv-x="1507" d="M68 1274v57h528v-57q-121 -8 -148.5 -39t-27.5 -168v-465q0 -250 98 -385t287 -135q387 0 387 586v153q0 227 -14 338q-8 59 -49.5 83t-149.5 32v57h487v-57q-94 -6 -133 -31.5t-45 -89.5q-12 -111 -12 -332v-168q0 -377 -154 -540q-139 -141 -368 -142q-201 0 -328 99 q-180 137 -180 487v510q0 135 -28 166t-150 41zM582 1430q20 51 57 138t47 113q29 2 78 -8t67 -20l3 -23l-201 -229zM872 1430q37 88 103 251q29 2 78 -7t69 -19l2 -25l-200 -229z" />
<glyph unicode="&#x171;" horiz-adv-x="1087" d="M59 825v47q39 2 148 15q121 18 145 22q-6 -63 -6 -297v-276q0 -231 180 -232q121 0 222 99v479q0 78 -16.5 100.5t-69.5 30.5l-74 12v47q90 4 184 17q76 8 137 20v-684q0 -76 17.5 -96t79.5 -25l55 -2v-53q-66 -8 -158 -33q-27 -8 -76 -22t-67 -19l-12 13v145 q-115 -86 -152 -106q-88 -51 -158 -52q-113 0 -183.5 75t-70.5 231v401q0 78 -13 99.5t-54 31.5zM340 1030q88 305 92 330q14 8 75.5 17t82.5 7l6 -20l-199 -352zM623 1030q92 328 92 330q14 6 76.5 16t80.5 8l7 -20l-199 -352z" />
<glyph unicode="&#x172;" horiz-adv-x="1501" d="M68 1276v55h530v-55q-123 -8 -150.5 -41t-27.5 -172v-459q0 -250 95 -384t286 -134q207 0 295 151.5t88 432.5v149q0 231 -15 342q-10 59 -51 83t-145 32v55h487v-55q-92 -6 -131 -31.5t-45 -89.5q-14 -100 -14 -338v-162q0 -377 -154 -540q-88 -92 -223 -123 q-55 -55 -90 -130t-35 -128q0 -55 30.5 -81t78.5 -26q41 0 98 25l14 -51l-117 -70q-35 -20 -73 -20q-84 0 -127 46t-43 109q0 135 180 311q-238 -18 -383 93q-180 141 -180 489v504q0 139 -28 171t-150 42z" />
<glyph unicode="&#x173;" horiz-adv-x="1087" d="M57 825v49q74 4 150 13q121 18 145 22q-6 -63 -6 -297v-278q0 -229 180 -230q123 0 224 99v477q0 78 -17.5 101.5t-68.5 31.5l-72 12v49q68 2 182 15q76 8 137 20v-686q0 -76 17.5 -96.5t79.5 -24.5l55 -2v-53q-18 -2 -44 -7t-40 -7q-84 -59 -145.5 -145.5t-61.5 -159.5 q0 -45 28.5 -70t73.5 -25q49 0 95 23l16 -49l-115 -68q-37 -23 -73 -22q-78 0 -121 44t-43 109q0 139 229 336q-35 -8 -102 -31q-2 8 -10 17v141q-119 -88 -150 -106q-88 -51 -162 -52q-113 0 -183.5 75t-70.5 231v399q0 78 -14 100.5t-55 32.5z" />
<glyph unicode="&#x174;" horiz-adv-x="1988" d="M33 1274v57h497v-57q-109 -14 -129 -38t7 -101q160 -553 249 -844h5q51 160 163.5 502t167.5 520h60q68 -201 358 -1024h4q178 567 232 821q25 92 1 121t-141 43v57h451v-57q-106 -14 -141 -46t-80 -159q-123 -358 -338 -1092h-64q-35 102 -358 1022h-4 q-55 -174 -168 -511.5t-166 -510.5h-64q-49 166 -335 1096q-37 123 -74 157t-133 44zM741 1442q190 145 258 219h45q74 -78 256 -219l-32 -51q-104 43 -248 127q-162 -92 -246 -127z" />
<glyph unicode="&#x175;" horiz-adv-x="1402" d="M18 842v53h424v-53q-92 -14 -109.5 -35t5.5 -90q96 -305 151 -475h5q78 203 237 643h53q80 -227 246 -652h4q102 319 142 474q20 78 0.5 99t-119.5 36v53h368v-53q-76 -10 -103.5 -38t-57.5 -114q-74 -197 -246 -713h-60q-49 131 -142 366t-107 271q-27 -70 -112 -289 t-132 -348h-57q-145 469 -238 732q-27 80 -52.5 101t-99.5 32zM514 1042q100 139 207 334h51q90 -172 203 -334l-51 -34q-82 78 -179 198q-104 -129 -182 -198z" />
<glyph unicode="&#x176;" horiz-adv-x="1298" d="M33 1274v57h487v-57q-102 -12 -119.5 -37t17.5 -74q70 -135 276 -485q190 348 242 461q37 76 18.5 99.5t-137.5 35.5v57h453v-57q-104 -12 -144.5 -39t-99.5 -123q-135 -217 -260 -448q-35 -66 -35 -129v-279q0 -129 33 -158.5t174 -40.5v-57h-580v57q137 10 168 40 t31 159v272q0 49 -41 123q-10 20 -100 179t-156 270q-66 109 -101.5 137.5t-125.5 36.5zM383 1452q184 141 258 219h45q80 -84 256 -219l-33 -51q-74 31 -247 127q-199 -106 -246 -127z" />
<glyph unicode="&#x177;" horiz-adv-x="940" d="M4 842v53h414l2 -53q-72 -10 -86.5 -33t8.5 -80l184 -512q117 281 189 510q20 57 -0.5 80.5t-106.5 34.5v53h371v-53q-80 -12 -108.5 -36t-71.5 -112q-25 -49 -54.5 -121.5t-90 -220t-113.5 -274.5q-176 -420 -211 -553q-12 -51 -66 -51q-43 0 -78.5 30.5t-35.5 67.5 q0 39 51 76q82 49 153 180q37 70 64 141q14 41 -4 92q-137 391 -234 627q-35 88 -64.5 115.5t-111.5 38.5zM268 1042q100 139 207 334h51q90 -172 203 -334l-51 -34q-82 78 -178 198q-104 -129 -183 -198z" />
<glyph unicode="&#x178;" horiz-adv-x="1298" d="M33 1274v57h487v-57q-102 -12 -119.5 -37t17.5 -74q70 -135 276 -485q190 348 242 461q37 76 18.5 99.5t-137.5 35.5v57h453v-57q-104 -12 -144.5 -39t-99.5 -123q-115 -182 -260 -448q-33 -66 -33 -129v-279q0 -129 32 -158.5t173 -40.5v-57h-580v57q137 10 168 40 t31 159v272q0 43 -41 123q-10 20 -100 179t-156 270q-66 109 -101.5 137.5t-125.5 36.5zM377 1526q0 43 28.5 71.5t69.5 28.5t68.5 -28.5t27.5 -71.5q0 -41 -28.5 -70t-69.5 -29q-39 0 -67.5 30t-28.5 69zM766 1526q0 43 28.5 72.5t67.5 29.5h4q39 0 67 -29.5t28 -72.5 q0 -41 -28 -70t-69 -29t-69.5 30t-28.5 69z" />
<glyph unicode="&#x179;" horiz-adv-x="1234" d="M59 31q639 903 861 1226h-355q-158 0 -209 -14t-80 -59q-39 -59 -71 -178l-60 2q18 227 25 374h49q18 -33 39 -42t70 -9h817l14 -26q-606 -864 -846 -1219q98 -12 334 -12q193 0 269.5 15t119.5 61q58 58 113 210l59 -12q-51 -266 -73 -348h-1059zM559 1452 q35 23 322 209q18 -4 51 -47t37 -68l-4 -16l-379 -131z" />
<glyph unicode="&#x17a;" horiz-adv-x="860" d="M63 31q223 330 510 794h-182q-106 0 -146 -27.5t-85 -117.5l-29 -55l-51 18q41 143 70 295h43q16 -43 112 -43h471l12 -29q-293 -461 -499 -798h203q111 0 160.5 33.5t113.5 131.5l27 50l53 -27q-41 -113 -94 -256h-674zM383 1036q16 37 48 110t59.5 139.5t31.5 74.5 q14 8 81 16t85 4l6 -20l-258 -350z" />
<glyph unicode="&#x17b;" horiz-adv-x="1234" d="M59 31q639 903 861 1226h-355q-158 0 -209 -14t-80 -59q-39 -59 -71 -178l-60 2q18 227 25 374h49q18 -33 39 -42t70 -9h817l14 -26q-606 -864 -846 -1219q98 -12 334 -12q193 0 269.5 15t119.5 61q56 60 111 210l61 -12q-51 -266 -73 -348h-1059zM547 1544q0 45 29.5 76 t76.5 31q43 0 73 -31t30 -76t-30 -74.5t-75 -29.5t-74.5 29.5t-29.5 74.5z" />
<glyph unicode="&#x17c;" horiz-adv-x="860" d="M63 31q223 330 510 794h-182q-106 0 -146 -27.5t-85 -117.5l-29 -55l-51 18q41 143 70 295h43q16 -43 112 -43h471l12 -29q-244 -381 -499 -798h203q111 0 160.5 33.5t113.5 131.5l27 50l53 -27q-41 -113 -94 -256h-674zM348 1204q0 45 32 76t75 31q41 0 70.5 -31 t29.5 -76q0 -43 -29.5 -73.5t-72.5 -30.5q-41 0 -73 30.5t-32 73.5z" />
<glyph unicode="&#x17d;" horiz-adv-x="1234" d="M59 31q639 903 861 1226h-355q-158 0 -209 -14t-80 -59q-39 -59 -71 -178l-60 2q18 227 25 374h49q18 -33 39 -42t70 -9h817l14 -26q-606 -864 -846 -1219q98 -12 334 -12q193 0 269.5 15t119.5 61q58 58 113 210l59 -12q-51 -266 -73 -348h-1059zM371 1628l32 51 q135 -57 248 -125q119 70 248 125l31 -51q-176 -135 -256 -221h-45q-82 86 -258 221z" />
<glyph unicode="&#x17e;" horiz-adv-x="860" d="M63 31q223 330 510 794h-182q-106 0 -146 -27.5t-85 -117.5l-29 -55l-51 18q41 143 70 295h43q16 -43 112 -43h471l12 -29q-293 -461 -499 -798h203q111 0 160.5 33.5t113.5 131.5l27 50l53 -27q-41 -113 -94 -256h-674zM213 1346l51 34q78 -74 178 -196q101 124 181 196 l51 -34q-109 -150 -207 -334h-51q-90 172 -203 334z" />
<glyph unicode="&#x17f;" horiz-adv-x="546" d="M55 836l56 59h96v45q0 98 22 166q41 143 156 244q111 94 227 108q109 -4 162 -67q27 -33 14 -70q-10 -29 -47 -53q-27 -18 -53 8q-80 80 -164 80q-72 0 -112 -74q-43 -76 -43 -405v-648q0 -113 21.5 -139.5t121.5 -36.5v-53h-440v53q92 10 113.5 35t21.5 125v600h-144z " />
<glyph unicode="&#x192;" horiz-adv-x="983" d="M-45 -205q0 25 27.5 62t44.5 37q6 0 55 -32t86 -32q63 0 86 72q27 86 65 387l52 393h-181v76h193l18 92q43 242 195 373q127 113 229 112q39 0 80 -28.5t39 -61.5q0 -27 -27.5 -61.5t-50.5 -22.5q-4 2 -22.5 14.5t-28.5 19.5t-28.5 16.5t-35 13.5t-32.5 4q-51 0 -80 -64 q-41 -78 -82 -407h231l-2 -76h-241l-62 -420q-29 -190 -88 -294.5t-149 -172.5q-102 -78 -180 -78q-39 0 -75 26t-36 52z" />
<glyph unicode="&#x1a0;" horiz-adv-x="1529" d="M90 651q0 291 189.5 500t500.5 209q219 0 404 -131q35 -20 90 -21q61 0 90 26t29 56q0 29 -15.5 40t-68.5 18q-16 4 -31.5 20t-15.5 41q0 37 25.5 62.5t64.5 25.5q61 0 98 -41t37 -123q0 -80 -57.5 -132t-149.5 -64q160 -186 160 -455q0 -324 -196.5 -518.5 t-487.5 -194.5q-281 0 -473.5 194.5t-192.5 487.5zM299 709q0 -289 141.5 -477.5t358.5 -188.5q182 0 307 151.5t125 432.5q0 311 -141.5 486t-354.5 175q-182 0 -309 -152.5t-127 -426.5z" />
<glyph unicode="&#x1a1;" horiz-adv-x="1075" d="M76 428q0 121 43 218t111.5 154.5t145 88.5t150.5 31q131 0 248 -76q49 -16 80 -17q51 0 77.5 17.5t26.5 40.5q0 25 -14 36t-53 19q-14 2 -29.5 17.5t-15.5 39.5q0 33 25.5 55.5t62.5 22.5q49 0 82 -34.5t33 -108.5q0 -70 -51.5 -115t-133.5 -55q104 -129 105 -299 q0 -229 -137.5 -358.5t-307.5 -129.5q-201 0 -324.5 136.5t-123.5 316.5zM266 494q0 -197 78 -324t203 -127q104 0 167.5 89t63.5 286q0 186 -73.5 310t-204.5 124q-98 0 -166 -96.5t-68 -261.5z" />
<glyph unicode="&#x1af;" horiz-adv-x="1507" d="M68 1274v57h530v-57q-123 -8 -150.5 -39t-27.5 -168v-465q0 -250 98 -384t287 -134q387 0 387 584v153q0 227 -14 338q-8 59 -49 83t-150 32v57h373q121 0 121 68q0 45 -80 57q-49 12 -50 62q0 35 26 59.5t63 24.5q61 0 96 -39t35 -115q0 -131 -140 -174 q-74 -20 -102.5 -43t-34.5 -80q-10 -96 -10 -330v-168q0 -377 -156 -540q-135 -141 -366 -142q-201 0 -328 99q-180 137 -180 487v510q0 135 -28 166t-150 41z" />
<glyph unicode="&#x1b0;" horiz-adv-x="1120" d="M59 825v47q33 2 148 15q111 16 145 22q-6 -63 -6 -299v-274q0 -231 180 -232q121 0 222 99v477q0 80 -16.5 102.5t-69.5 30.5l-74 12v47q160 6 241 19q150 16 150 74q0 45 -74 55q-14 2 -29.5 16.5t-15.5 40.5q0 35 24.5 58.5t61.5 23.5q53 0 86 -34.5t33 -110.5 q0 -70 -45 -114t-111 -60v-615q0 -76 17.5 -96t77.5 -25l57 -4v-51q-66 -8 -158 -33q-27 -8 -76 -22t-67 -19l-12 13v145q-111 -82 -152 -106q-88 -51 -158 -52q-113 0 -183.5 75t-70.5 231v401q0 78 -13 99.5t-54 31.5z" />
<glyph unicode="&#x1fa;" d="M41 0v57q102 14 140 48t89 165l424 1073l64 19q45 -127 183 -512t212 -586q47 -129 85 -162.5t140 -44.5v-57h-501v57q96 12 118.5 33t1.5 80q-14 41 -112 315h-436q-63 -180 -91 -264q-33 -96 -10 -124.5t139 -39.5v-57h-446zM479 573h377l-180 523h-4 q-33 -86 -96.5 -261.5t-96.5 -261.5zM526 1575q0 76 54.5 123t128.5 47q72 0 126 -47t54 -123q0 -78 -54.5 -127t-127.5 -49q-72 0 -126.5 49t-54.5 127zM569 1817q35 23 322 208q18 -2 51 -45.5t37 -66.5l-4 -17l-379 -131zM616 1575q0 -49 26 -81t65 -32q41 0 65.5 32 t24.5 81q0 47 -24.5 76.5t-67.5 29.5q-39 0 -64 -29.5t-25 -76.5z" />
<glyph unicode="&#x1fb;" horiz-adv-x="899" d="M80 225q0 145 166 203q262 88 317 133v35q0 111 -47 171t-127 60q-57 0 -92 -38.5t-59 -135.5q-14 -47 -60 -47q-31 0 -59.5 26.5t-28.5 61.5t64 82q51 39 140 83t167 61q100 0 168 -56q92 -80 92 -252v-379q0 -123 72 -122q37 0 73 22l21 -53l-174 -105q-55 0 -97 41 q-33 33 -49 90q-10 -6 -49 -33.5t-55.5 -37.5t-47 -27.5t-51 -25t-38.5 -7.5q-106 0 -176 75t-70 175zM254 254q0 -72 46 -114t99 -42q39 0 86 21.5t78 52.5v320q-25 -12 -100.5 -47t-83.5 -39q-63 -29 -94 -64t-31 -88zM268 1198q0 76 55.5 123t129.5 47q70 0 124 -47 t54 -123q0 -78 -54 -127t-126 -49q-74 0 -128.5 49t-54.5 127zM360 1198q0 -49 26 -82t67 -33t65.5 33t24.5 82q0 47 -24.5 77t-67.5 30q-39 0 -65 -30t-26 -77zM381 1442q16 39 48 110.5t59.5 137t31.5 75.5q14 8 80 16.5t86 4.5l6 -21l-258 -350z" />
<glyph unicode="&#x1fc;" horiz-adv-x="1779" d="M-23 0v55q100 14 142.5 44t99.5 130q121 213 492 922q35 63 23.5 83.5t-87.5 31.5l-84 10v57h1051q6 -147 20 -293l-61 -8q-31 127 -66 172q-25 33 -67.5 45.5t-147.5 12.5h-170q-45 0 -55 -10.5t-10 -55.5v-510h182q137 0 171 25.5t54 132.5h62v-400h-62 q-16 80 -32.5 109t-56.5 41t-136 12h-182v-340q0 -139 49 -170q41 -25 209 -24q113 0 170 14t92 55q51 62 100 197l60 -14q-41 -209 -74 -324h-969v57q131 8 162 43t31 174v332h-363q-137 -264 -196 -397q-37 -80 -17.5 -109.5t135.5 -44.5v-55h-469zM561 686h326v563 q-25 0 -58 -39q-133 -250 -268 -524zM975 1454q53 35 162.5 106.5t158.5 102.5q18 -2 51 -46t37 -67l-4 -16l-381 -131z" />
<glyph unicode="&#x1fd;" horiz-adv-x="1374" d="M82 221q0 78 39 126t123 77q18 6 87.5 30.5t103.5 38t79 33t68 35.5v49q0 94 -52.5 155.5t-128.5 61.5q-61 0 -96 -45q-29 -37 -55 -131q-16 -49 -57 -49q-27 0 -61 27.5t-34 58.5q0 43 64 88q164 111 309 144q92 0 152 -43q53 -39 82 -113q139 156 303 156 q129 0 221 -94.5t94 -215.5q0 -37 -9 -51t-38 -20q-104 -20 -545 -35q-2 -190 92.5 -290.5t227.5 -100.5q119 0 227 102l35 -43q-78 -106 -173.5 -151.5t-160.5 -45.5q-221 0 -330 183l-71 -58q-168 -125 -248 -125q-109 0 -178.5 75t-69.5 171zM256 260q0 -72 45.5 -114 t106.5 -42q125 0 213 115q-41 84 -41 273q-31 -16 -201 -86q-68 -29 -95.5 -61t-27.5 -85zM633 1036q23 51 79 187.5t58 138.5q14 6 82 14t86 4l6 -18l-260 -352zM743 586q39 0 112 1t134.5 2t114.5 3q43 0 43 45q0 84 -51.5 144.5t-137.5 60.5q-76 0 -138 -67.5t-77 -188.5 z" />
<glyph unicode="&#x1fe;" horiz-adv-x="1533" d="M102 653q0 289 193.5 499t503.5 210q190 0 334 -94l102 153l61 -41l-100 -151q117 -96 187.5 -236.5t70.5 -306.5q0 -324 -197.5 -520.5t-490.5 -196.5q-195 0 -354 103l-115 -164l-55 47l108 160q-115 96 -181.5 235t-66.5 303zM307 705q0 -271 137 -453l615 907 q-121 129 -307.5 129t-315.5 -153.5t-129 -429.5zM492 188q115 -145 309 -145q221 0 334.5 164t113.5 418q0 280 -141 475zM623 1462q199 129 321 209q18 -2 51 -45.5t37 -66.5l-4 -17l-379 -131z" />
<glyph unicode="&#x1ff;" horiz-adv-x="1050" d="M76 430q0 119 44 216t113.5 154.5t147.5 88.5t151 31q119 0 224 -62l75 109l54 -39l-72 -107q162 -135 162 -356q0 -227 -135 -358.5t-308 -131.5q-131 0 -239 64l-80 -113l-51 45l76 107q-76 66 -119 160t-43 192zM258 477q1 -163 64 -272l370 557q-66 90 -182 90 q-106 0 -179 -99.5t-73 -275.5zM365 143q66 -100 186 -100q104 0 174 97.5t70 295.5q-1 151 -62 262zM449 1036q16 37 47.5 110t59.5 139.5t32 74.5q14 8 80.5 16t85.5 4l6 -20l-258 -350z" />
<glyph unicode="&#x218;" horiz-adv-x="970" d="M84 360l61 15q14 -55 37 -106.5t62 -105.5t100.5 -87t136.5 -33q115 0 179.5 66.5t64.5 179.5q0 104 -64.5 167.5t-199.5 137.5q-164 90 -225 149q-113 109 -113 254q0 154 114.5 259.5t305.5 105.5q109 0 258 -47q4 -39 16.5 -132.5t20.5 -150.5l-62 -10 q-33 123 -90 196.5t-176 73.5q-111 0 -169 -65.5t-58 -157.5q0 -104 62.5 -168.5t197.5 -134.5q53 -29 70.5 -38t66.5 -39t69.5 -48t55.5 -52t50 -65.5t27.5 -74.5t12.5 -93q0 -164 -127 -275.5t-326 -111.5q-96 0 -200 31q-45 14 -103 43q-16 47 -55 317zM395 -182 q0 35 25.5 54.5t60.5 21.5q59 0 104.5 -46.5t45.5 -115.5q0 -164 -217 -217l-19 57q123 49 123 115q0 59 -92 82q-31 8 -31 49z" />
<glyph unicode="&#x219;" horiz-adv-x="751" d="M84 287l55 10q29 -109 95.5 -181.5t154.5 -72.5q57 0 101.5 40t44.5 103.5t-40 105.5t-122 81q-57 25 -94 46t-79 55t-62.5 79t-20.5 100q0 111 86 189t223 78q96 0 182 -37q27 -63 45 -217l-53 -15q-63 203 -211 203q-57 0 -94 -40t-37 -101.5t45 -101.5t127 -74 q129 -53 194.5 -117t65.5 -162q0 -131 -102.5 -207t-235.5 -76q-72 0 -138.5 21.5t-94.5 48.5q-10 23 -22.5 104.5t-12.5 137.5zM289 -412q125 53 125 114.5t-95 84.5q-29 8 -28 49q0 35 25.5 55.5t60.5 20.5q59 0 104 -46t45 -116q0 -164 -217 -217z" />
<glyph unicode="&#x21a;" horiz-adv-x="1263" d="M57 1014q20 238 25 368h41q23 -33 44 -42t69 -9h811q39 0 58 10.5t44 40.5h43q0 -124 20 -362l-59 -6q-31 137 -66 182q-27 39 -67.5 52.5t-153.5 13.5h-145v-1010q0 -123 32.5 -154.5t178.5 -40.5v-57h-588v57q139 8 172 40t33 155v1010h-127q-123 0 -171 -14.5 t-69 -49.5q-25 -35 -65 -184h-60zM530 -150q0 35 25.5 54.5t62.5 19.5q57 0 102.5 -45t45.5 -117q0 -162 -215 -215l-21 56q123 53 123 114.5t-92 83.5q-31 8 -31 49z" />
<glyph unicode="&#x21b;" horiz-adv-x="624" d="M35 836l57 59h92v147l133 138l29 -4v-281h232q16 -16 12 -43t-25 -39h-219v-524q0 -197 121 -197q59 0 125 35l18 -53l-139 -72q-51 -27 -84 -27q-203 0 -203 244v594h-139zM258 -172q0 37 25.5 56.5t60.5 19.5q59 0 104.5 -46t45.5 -116q0 -160 -218 -217l-18 57 q123 53 123 114.5t-92 84.5q-31 8 -31 47z" />
<glyph unicode="&#x21c;" horiz-adv-x="1060" d="M88 -164l12 43q100 -18 170 -18q225 0 369.5 125t144.5 323q0 147 -81.5 223t-188.5 76q-71 0 -229 -57l-19 63q219 86 318.5 177.5t99.5 242.5q0 117 -67.5 185.5t-165.5 68.5q-117 0 -184.5 -74.5t-112.5 -224.5l-62 15q37 201 47 284q39 8 107.5 29.5t126 33 t125.5 11.5q172 0 275.5 -82t103.5 -215q0 -96 -62.5 -171t-171.5 -149v-6q152 -29 246 -125t94 -241q0 -240 -224 -410t-544 -215z" />
<glyph unicode="&#x21d;" horiz-adv-x="788" d="M6 -406l10 41q78 -12 121 -12q180 0 295 107.5t115 281.5q0 119 -64.5 187.5t-146.5 68.5q-61 0 -170 -47l-23 60q172 76 246 150.5t74 182.5q0 86 -47 135.5t-121 49.5q-104 0 -234 -125l-38 45q168 201 335 201q121 0 200 -70t79 -184q0 -109 -90 -195q-31 -31 -88 -72 v-4q121 -27 194.5 -114.5t73.5 -212.5q0 -209 -181 -356.5t-435 -192.5z" />
<glyph unicode="&#x2c6;" horiz-adv-x="819" d="M180 1042q100 139 207 334h51q90 -172 203 -334l-51 -34q-82 78 -178 198q-104 -129 -183 -198z" />
<glyph unicode="&#x2c7;" horiz-adv-x="819" d="M178 1348l51 34q80 -76 179 -198q110 130 180 198l51 -34q-100 -139 -207 -334h-51q-96 182 -203 334z" />
<glyph unicode="&#x2d8;" horiz-adv-x="819" d="M182 1327h62q23 -162 164 -162q144 0 167 162h62q0 -150 -63.5 -215t-165.5 -65q-100 0 -163 65.5t-63 214.5z" />
<glyph unicode="&#x2d9;" horiz-adv-x="819" d="M307 1204q0 45 31 76t74 31t72.5 -31t29.5 -76q0 -43 -29.5 -73.5t-74.5 -30.5q-41 0 -72 30.5t-31 73.5z" />
<glyph unicode="&#x2da;" horiz-adv-x="819" d="M227 1198q0 76 55.5 123t129.5 47q70 0 124 -47t54 -123q0 -78 -54 -127t-126 -49q-74 0 -128.5 49t-54.5 127zM319 1198q0 -49 26 -82t67 -33t65.5 33t24.5 82q0 47 -24.5 77t-67.5 30q-39 0 -65 -30t-26 -77z" />
<glyph unicode="&#x2db;" horiz-adv-x="819" d="M268 -285q0 18 3 38t7.5 35t13.5 37.5l14 35t18.5 38t18.5 35t21.5 37t20.5 33.5h76q-61 -129 -62 -225q0 -51 29 -79t76 -28q43 0 86 19l16 -51l-104 -58q-31 -18 -66 -18q-82 0 -125 46t-43 105z" />
<glyph unicode="&#x2dc;" horiz-adv-x="819" d="M143 1100q59 184 166 184q39 0 119 -39q74 -39 109 -39q47 0 88 90l51 -26q-57 -184 -162 -185q-45 0 -135 48q-55 33 -92 32q-49 0 -90 -98z" />
<glyph unicode="&#x2dd;" horiz-adv-x="819" d="M219 1030q88 305 92 330q18 6 79 16t79 8l6 -20l-199 -352zM502 1030q92 328 92 330q18 6 78.5 16t79.5 8l6 -20l-199 -352z" />
<glyph unicode="&#x3a9;" horiz-adv-x="1550" d="M94 299l56 2q35 -100 64.5 -127t92.5 -27h182q-4 4 -42.5 43t-53 54.5t-53.5 59.5t-57.5 73t-47 77t-42 88t-24.5 93t-11 104q0 272 180 447.5t448 175.5q270 0 446.5 -170t176.5 -447q0 -82 -23.5 -159.5t-67.5 -146t-80 -114.5t-90 -104.5t-67 -73.5h172q72 0 98.5 25 t63.5 129l58 -2l-37 -299h-498l-10 37q4 8 34.5 51t49 74t51.5 86t54.5 107.5t43 116t32.5 133t11 138.5q0 248 -113.5 398.5t-306.5 150.5q-195 0 -307 -147.5t-112 -407.5q0 -111 37.5 -233.5t74.5 -192t99.5 -169t66.5 -105.5l-14 -37h-500z" />
<glyph unicode="&#x3c0;" horiz-adv-x="1087" d="M35 743q131 160 358 158q424 -6 498 -6q43 0 62.5 11t39.5 48l58 -14q-18 -113 -50 -172q-31 -8 -155 -8q-12 -172 -8 -459q0 -190 82 -190q41 0 86 20l22 -41q-33 -51 -84 -83t-102 -32q-150 0 -150 256q0 184 17 533q-113 2 -285 2v-41q0 -223 -24.5 -395t-46 -233.5 t-38.5 -84.5q-76 -33 -131 -37l-16 37q84 123 123 341t39 415q-168 2 -262 -74z" />
<glyph unicode="&#x401;" horiz-adv-x="1163" d="M59 0v57q139 8 171 40t32 159v815q0 135 -26.5 164t-149.5 39v57h913q0 -16 17 -295l-60 -8q-23 104 -65 174q-23 35 -72 47.5t-160 12.5h-155q-47 0 -57.5 -10.5t-10.5 -55.5v-467h193q137 0 169.5 24.5t51.5 129.5h59v-391h-59q-20 111 -53 134t-166 23h-195v-385 q0 -133 49 -168q43 -27 213 -26q117 0 170.5 14t87.5 55q60 74 103 193l59 -8q-37 -205 -71 -324h-988zM303 1524q0 43 28.5 72.5t69.5 29.5t69 -28.5t28 -73.5q0 -39 -29 -69t-70 -30q-39 0 -67.5 30t-28.5 69zM692 1526q0 43 30 71.5t71 28.5t68.5 -28.5t27.5 -71.5 q0 -41 -29 -70t-69.5 -29t-69.5 30t-29 69z" />
<glyph unicode="&#x402;" horiz-adv-x="1478" d="M55 1010q18 225 25 372h45q18 -33 43 -42t72 -9h819q47 0 69.5 10.5t45.5 40.5h49q-2 -109 20 -372l-63 -6q-27 131 -70 192q-25 39 -72 52.5t-159 13.5h-166v-519q168 61 254 62q195 0 308.5 -140.5t113.5 -342.5q0 -131 -44.5 -245t-118 -195t-155.5 -136t-172 -90 l-27 59q322 197 322 590q0 186 -85 295t-220 109q-96 0 -176 -29v-424q0 -129 32.5 -159.5t176.5 -39.5v-57h-588v57q141 8 173 39t32 160v1006h-119q-119 0 -164 -14.5t-72 -53.5q-29 -41 -67 -188z" />
<glyph unicode="&#x403;" horiz-adv-x="1048" d="M86 0v55q119 10 145.5 40t26.5 161v821q0 129 -25.5 159t-140.5 40v55h883q10 -180 22 -291l-61 -8q-31 123 -68 176q-41 53 -221 54h-131q-59 0 -71.5 -11.5t-12.5 -64.5v-930q0 -131 31 -160.5t168 -40.5v-55h-545zM426 1452q166 109 322 209q18 -2 50 -46t36 -67 l-3 -16l-380 -131z" />
<glyph unicode="&#x404;" horiz-adv-x="1316" d="M88 647q0 319 205 517t538 198q178 0 353 -64q10 -66 23.5 -166t17.5 -128l-58 -13q-45 166 -135 232.5t-241 66.5q-227 0 -356.5 -150.5t-139.5 -404.5l770 19v-119l-770 18q8 -281 145.5 -443.5t350.5 -162.5q127 0 198.5 50t126.5 141q57 88 96 88q20 0 34 -17.5 t14 -44.5q0 -80 -115 -174q-68 -53 -170.5 -87t-208.5 -34q-168 0 -301 57.5t-213 155t-122 216t-42 249.5z" />
<glyph unicode="&#x405;" horiz-adv-x="970" d="M84 360l61 15q14 -55 37 -106.5t62 -105.5t100.5 -87t136.5 -33q115 0 180.5 66.5t65.5 179.5q0 104 -64.5 167.5t-201.5 137.5q-164 90 -225 149q-113 109 -113 254q0 154 114.5 259.5t307.5 105.5q109 0 258 -47q10 -84 35 -283l-60 -10q-33 123 -91 196.5t-177 73.5 q-111 0 -169 -65.5t-58 -157.5q0 -104 62.5 -168.5t197.5 -134.5q53 -27 72.5 -37t67.5 -40t68.5 -48t55.5 -52t50 -65.5t27.5 -74.5t12.5 -93q0 -164 -127 -275.5t-328 -111.5q-96 0 -200 31q-45 14 -103 43q-16 47 -55 317z" />
<glyph unicode="&#x406;" horiz-adv-x="698" d="M78 0v57q127 10 155.5 40t28.5 159v819q0 129 -28.5 159t-155.5 40v57h543v-57q-127 -10 -156 -40t-29 -159v-819q0 -131 29 -159.5t156 -39.5v-57h-543z" />
<glyph unicode="&#x407;" horiz-adv-x="698" d="M57 1526q0 43 29 72.5t70 29.5t68.5 -29.5t27.5 -72.5q0 -41 -28.5 -70t-69.5 -29q-39 0 -68 30t-29 69zM78 0v57q127 10 155.5 40t28.5 159v819q0 129 -28.5 159t-155.5 40v57h540v-57q-125 -10 -153.5 -40t-28.5 -159v-819q0 -131 28 -159.5t154 -39.5v-57h-540z M446 1526q0 43 29 72.5t70 29.5t68.5 -29.5t27.5 -72.5q0 -41 -28.5 -70t-69.5 -29q-39 0 -68 30t-29 69z" />
<glyph unicode="&#x408;" horiz-adv-x="673" d="M55 -279q160 78 197 267q20 123 20 391v696q0 129 -28.5 159t-153.5 40v57h531v-57q-119 -10 -147 -40t-28 -159v-764q0 -203 -37.5 -320.5t-138.5 -209.5q-100 -90 -190 -119z" />
<glyph unicode="&#x409;" horiz-adv-x="1820" d="M20 -10v39q119 72 211 223q74 123 123 354.5t49 526.5q0 86 -33.5 110.5t-158.5 32.5v55h1020v-55q-129 -8 -159 -38.5t-30 -145.5v-314q119 12 195 13q248 0 374 -99.5t126 -275.5q0 -227 -187 -336q-139 -80 -405 -80h-459v57q129 10 156.5 39t27.5 164v891 q0 78 -10 93.5t-67 15.5h-207q-57 0 -69.5 -10.5t-12.5 -51.5q0 -821 -232 -1128q-76 -102 -151 -103q-43 0 -101 23zM1042 285q0 -131 34 -173t145 -42q143 2 229 81.5t86 249.5q0 164 -94 242t-256 78q-62 0 -144 -10v-426z" />
<glyph unicode="&#x40a;" horiz-adv-x="1964" d="M84 1274v57h522v-57q-119 -8 -146.5 -38t-27.5 -151v-319h582v305q0 133 -25.5 163t-140.5 40v57h516v-57q-123 -10 -150.5 -40t-27.5 -163v-305h190q250 0 380 -93t130 -265q0 -217 -186 -328q-139 -80 -404 -80h-452v57q66 6 93.5 11.5t49 27t24.5 55t3 105.5v430h-582 v-432q0 -129 27.5 -158.5t148.5 -38.5v-57h-522v57q117 8 145.5 38t28.5 159v831q0 123 -27.5 152t-148.5 37zM1186 248q0 -113 31.5 -144.5t144.5 -31.5q141 2 233.5 75.5t92.5 239.5q0 156 -91.5 227.5t-273.5 71.5h-137v-438z" />
<glyph unicode="&#x40b;" horiz-adv-x="1589" d="M53 1018q20 240 25 364h43q29 -51 106 -51h852q68 0 105 51h49q0 -147 20 -358l-61 -6q-33 125 -59 172q-25 43 -75 56.5t-173 13.5h-170v-535q213 82 313 82q182 0 270 -98q72 -74 72 -244v-221q0 -123 25.5 -150.5t142.5 -38.5v-55h-494v55q102 10 127 39t25 150v217 q0 246 -250 246q-115 0 -231 -48v-405q0 -127 29.5 -159t158.5 -40v-55h-557v55q133 8 164 40t31 159v1006h-129q-121 0 -167 -15.5t-71 -58.5q-27 -53 -61 -168h-60z" />
<glyph unicode="&#x40c;" horiz-adv-x="1331" d="M86 0v57q119 10 145.5 40t26.5 159v834q0 119 -26.5 146.5t-145.5 37.5v57h520v-57q-119 -10 -146.5 -38t-27.5 -146v-353q104 2 158.5 18.5t103.5 63.5q31 29 61.5 79t50 94t68.5 155q98 211 242 215q51 0 81 -23.5t30 -58.5q0 -27 -24.5 -43t-59.5 -16h-45 q-63 0 -106.5 -56.5t-125.5 -222.5q-35 -72 -81 -125t-64.5 -66.5t-50.5 -33.5v-6q78 -23 135 -66t104 -125q23 -37 80.5 -144.5t81.5 -152.5q51 -92 99.5 -124.5t129.5 -41.5v-57h-172q-92 0 -144 44t-101 144q-88 180 -148 293q-59 121 -123.5 156t-179.5 33v-414 q0 -129 27.5 -158.5t146.5 -40.5v-57h-520zM555 1452q35 23 322 209q18 -2 51 -46t37 -67l-4 -16l-379 -131z" />
<glyph unicode="&#x40e;" horiz-adv-x="1337" d="M37 1272v59h483v-59l-59 -10q-31 -6 -43 -17.5t-8 -33t24 -62.5l316 -647q188 438 243 604q27 88 14.5 117.5t-71.5 38.5l-72 12v57h445v-59q-100 -10 -135 -44t-99 -171q-33 -72 -176 -400.5t-188 -427.5q-82 -168 -163 -228t-167 -60q-49 0 -88 20.5t-53 50.5 q-29 55 18 99q45 41 84 8q49 -43 121 -43q68 0 122 86t54 131q0 41 -35 113q-63 141 -358 729q-37 76 -73 99t-136 38zM438 1593q0 33 20.5 58.5t53.5 25.5q37 0 54.5 -26.5t15.5 -59.5q-2 -41 27.5 -62.5t80.5 -21.5q106 0 107 84q-2 35 17.5 60.5t55.5 25.5 q33 0 53.5 -24.5t20.5 -57.5q0 -76 -70.5 -120.5t-185.5 -44.5t-182.5 45t-67.5 118z" />
<glyph unicode="&#x40f;" horiz-adv-x="1517" d="M74 0v59q127 8 156.5 40t29.5 165v805q0 133 -28.5 165t-153.5 40v57h532v-57q-121 -8 -148.5 -39t-27.5 -166v-846q0 -98 27.5 -124.5t124.5 -26.5h323q117 0 146.5 23.5t29.5 127.5v846q0 135 -27.5 166t-154.5 39v57h539v-57q-127 -8 -154.5 -40t-27.5 -165v-803 q0 -133 27.5 -165.5t154.5 -41.5v-59h-469q-76 0 -103.5 -23.5t-40.5 -85.5q-18 -86 -38 -288h-66q-14 190 -35 288q-14 59 -46 84t-114 25h-456z" />
<glyph unicode="&#x410;" d="M41 0v57q102 14 140 48t89 165l424 1073l64 19q45 -127 183 -512t212 -586q47 -129 85 -162.5t140 -44.5v-57h-501v57q96 12 118.5 33t1.5 80q-14 41 -112 315h-436q-63 -180 -91 -264q-33 -96 -10 -124.5t139 -39.5v-57h-446zM479 573h377l-180 523h-4 q-33 -86 -96.5 -261.5t-96.5 -261.5z" />
<glyph unicode="&#x411;" horiz-adv-x="1187" d="M82 0v55q88 6 119.5 19.5t44 50.5t12.5 131v836q0 121 -25.5 147.5t-138.5 36.5v55h869q8 -156 22 -289l-61 -12q-31 131 -68 180q-43 51 -203 52h-149q-49 0 -61.5 -11.5t-12.5 -62.5l2 -416q98 6 197 6q240 0 359.5 -96t119.5 -266q0 -221 -186 -332q-145 -84 -408 -84 h-432zM430 276q0 -127 31.5 -164.5t140.5 -37.5q131 0 219 76.5t88 244.5q0 309 -352 310q-49 0 -127 -5v-424z" />
<glyph unicode="&#x412;" horiz-adv-x="1204" d="M74 0v57q133 10 160.5 39t27.5 156v827q0 129 -24.5 158t-147.5 37v57h526q209 0 308 -69q53 -37 83.5 -99.5t30.5 -134.5q0 -227 -276 -307v-4q360 -55 360 -326q0 -203 -194 -309q-150 -82 -402 -82h-452zM436 256q0 -111 35 -148.5t135 -37.5q137 2 226.5 75.5 t89.5 225.5q0 301 -394 301h-92v-416zM436 741h96q164 0 241 65.5t77 197.5q0 115 -67.5 188.5t-204.5 73.5q-84 0 -115 -21q-27 -16 -27 -102v-402z" />
<glyph unicode="&#x413;" horiz-adv-x="1048" d="M86 0v55q119 10 145.5 40t26.5 161v819q0 131 -25.5 160t-140.5 39v57h883q10 -183 22 -289l-61 -10q-31 123 -68 176q-41 53 -221 54h-131q-59 0 -71.5 -11.5t-12.5 -64.5v-930q0 -131 31 -160.5t168 -40.5v-55h-545z" />
<glyph unicode="&#x414;" horiz-adv-x="1329" d="M47 -344l10 418h86q47 0 66 41q90 170 136 448.5t46 577.5q0 70 -22.5 90t-94.5 31l-81 12l2 57h1042v-57q-119 -10 -145.5 -41t-26.5 -168v-885q0 -72 12.5 -89t57.5 -17h120l-49 -418h-59l-25 182q-12 102 -40.5 132t-106.5 30h-645q-84 0 -116 -33t-58 -137l-50 -174 h-59zM335 88q7 -14 46 -14h383q80 0 103.5 27.5t23.5 123.5v893q0 100 -11.5 121t-68.5 21h-238q-59 0 -72.5 -10.5t-13.5 -53.5q0 -655 -145 -1061q-14 -33 -7 -47z" />
<glyph unicode="&#x415;" horiz-adv-x="1163" d="M59 0v57q139 8 171 40t32 159v815q0 135 -26.5 164t-149.5 39v57h913q0 -16 17 -295l-60 -8q-23 104 -65 174q-23 35 -72 47.5t-160 12.5h-155q-47 0 -57.5 -10.5t-10.5 -55.5v-467h193q137 0 169.5 24.5t51.5 129.5h59v-391h-59q-20 111 -53 134t-166 23h-195v-385 q0 -133 49 -168q43 -27 213 -26q117 0 170.5 14t87.5 55q60 74 103 193l59 -8q-37 -205 -71 -324h-988z" />
<glyph unicode="&#x416;" horiz-adv-x="1953" d="M33 0v57q82 8 130 41t101 127q25 45 60.5 111.5t60.5 111t41 72.5q84 147 229 193v6q-31 18 -52 34.5t-68.5 76t-88.5 145.5q-70 150 -110.5 198t-106.5 48h-41q-33 0 -56 17t-23 44q0 35 29.5 58.5t78.5 21.5q147 -4 242 -215q49 -109 70.5 -153t52 -94t61.5 -79 q47 -45 98.5 -61.5t149.5 -18.5v349q0 119 -27.5 146.5t-146.5 37.5v57h520v-57q-119 -10 -146.5 -38t-27.5 -146v-349q98 2 150.5 18.5t101.5 61.5q31 29 60.5 80t49 92t68.5 154q96 211 246 215q49 0 76.5 -24.5t27.5 -57.5q0 -27 -23.5 -43t-58.5 -16h-43 q-63 0 -103 -50.5t-108 -189.5q-14 -31 -29.5 -58.5t-30.5 -50t-27.5 -40t-27 -34t-23.5 -25.5t-22.5 -19.5t-18.5 -14.5t-17 -12l-13 -8v-6q76 -23 128.5 -65t103.5 -128q20 -35 74.5 -137t85.5 -158q53 -94 101 -126.5t128 -41.5v-57h-172q-90 0 -143.5 45t-102.5 143 q-74 154 -147 295q-57 121 -121 157t-170 34v-416q0 -127 27.5 -158.5t146.5 -42.5v-57h-520v57q119 10 146.5 41t27.5 160v416q-109 2 -176.5 -35t-126.5 -156q-33 -68 -139 -295q-47 -96 -100.5 -142t-143.5 -46h-172z" />
<glyph unicode="&#x417;" horiz-adv-x="1060" d="M55 221q0 39 21.5 60.5t50.5 21.5q45 0 78 -74q80 -186 280 -190q49 0 96.5 15.5t93.5 50t73.5 103t27.5 159.5q0 137 -76.5 226t-171.5 89q-25 0 -77 -10t-86 -10q-39 0 -64 17t-25 48q0 27 26 45.5t65 18.5q31 0 84 -10.5t77 -10.5q76 2 139.5 68.5t63.5 181.5 q0 133 -68.5 202.5t-175.5 69.5q-125 0 -193.5 -82t-111.5 -213l-59 7q16 80 37 278q133 43 151 47q104 33 209 33q180 0 289 -88t109 -230q0 -143 -109 -221q-80 -59 -172 -88v-6q156 -25 251 -109.5t95 -242.5q0 -133 -79 -228.5t-190.5 -137.5t-236.5 -42q-199 0 -323 92 q-98 78 -99 160z" />
<glyph unicode="&#x418;" horiz-adv-x="1540" d="M86 0v57q119 10 145.5 42t26.5 171v817q0 121 -26.5 149t-145.5 38v57h516v-57q-119 -10 -146.5 -38t-27.5 -146v-500q0 -201 -8 -404h4l643 1057q23 35 23 70v18h366v-57q-119 -10 -146.5 -42t-27.5 -167v-809q0 -92 13.5 -129t44 -50.5t116.5 -19.5v-57h-520v57 q121 10 148.5 40t27.5 159v535q0 184 8 380h-6l-649 -1071q-18 -27 -19 -77v-23h-360z" />
<glyph unicode="&#x419;" horiz-adv-x="1540" d="M86 0v57q119 10 145.5 42t26.5 171v817q0 121 -26.5 149t-145.5 38v57h516v-57q-119 -10 -146.5 -38t-27.5 -146v-500q0 -201 -8 -404h4l643 1057q23 35 23 70v18h366v-57q-119 -10 -146.5 -42t-27.5 -167v-809q0 -92 13.5 -129t44 -50.5t116.5 -19.5v-57h-520v57 q121 10 148.5 40t27.5 159v535q0 184 8 380h-6l-649 -1071q-18 -27 -19 -77v-23h-360zM537 1595q0 33 20.5 58.5t52.5 25.5q37 0 54.5 -26.5t15.5 -59.5q0 -84 108 -84q55 0 82 22.5t25 61.5q-2 35 17.5 60.5t56.5 25.5q33 0 53 -24.5t20 -57.5q0 -76 -70.5 -120.5 t-185 -44.5t-182 45t-67.5 118z" />
<glyph unicode="&#x41a;" horiz-adv-x="1331" d="M86 0v57q119 10 145.5 40t26.5 159v834q0 119 -26.5 146.5t-145.5 37.5v57h520v-57q-119 -10 -146.5 -38t-27.5 -146v-353q104 2 158.5 18.5t103.5 63.5q31 29 61.5 79t50 94t68.5 155q98 211 242 215q51 0 81 -23.5t30 -58.5q0 -25 -25.5 -42t-58.5 -17h-45 q-63 0 -106.5 -56.5t-125.5 -222.5q-35 -72 -81 -125t-64.5 -66.5t-50.5 -33.5v-6q78 -23 135 -66t104 -125q23 -37 80.5 -144.5t81.5 -152.5q51 -92 99.5 -124.5t129.5 -41.5v-57h-172q-92 0 -144 44t-101 144q-88 180 -148 293q-59 121 -123.5 156t-179.5 33v-414 q0 -129 27.5 -158.5t146.5 -40.5v-57h-520z" />
<glyph unicode="&#x41b;" horiz-adv-x="1320" d="M27 -12v39q131 84 213 225q74 129 123 357.5t49 529.5q0 80 -37 103.5t-162 31.5v57h1020v-57q-117 -10 -144.5 -38t-27.5 -142v-836q0 -131 26.5 -160.5t145.5 -40.5v-57h-516v57q84 6 114.5 19.5t43 50.5t12.5 131v903q0 68 -11.5 82t-68.5 14h-211q-59 0 -72.5 -10 t-13.5 -49q0 -823 -229 -1128q-80 -102 -148 -103q-59 0 -106 21z" />
<glyph unicode="&#x41c;" horiz-adv-x="1824" d="M53 0v57q90 10 126 35t48 88q23 156 39 375l29 426q6 74 7 113t-5 76.5t-13.5 51t-34 27t-52 16.5t-80.5 9v57h336l467 -1026l475 1026h348v-57q-139 -12 -166 -44t-23 -188l19 -741q4 -164 30.5 -198.5t159.5 -45.5v-57h-538v57q125 10 149.5 45t24.5 199l-8 836h-9 l-499 -1123h-41l-459 1094h-4l-31 -584q-10 -199 -6 -340q2 -70 41 -92t147 -35v-57h-477z" />
<glyph unicode="&#x41d;" horiz-adv-x="1568" d="M78 1274v57h530v-57q-119 -10 -145.5 -39t-26.5 -156v-331h699v331q0 125 -28 155t-149 40v57h535v-57q-127 -10 -155.5 -40t-28.5 -155v-827q0 -127 27.5 -155.5t154.5 -39.5v-57h-549v57q133 10 163 39t30 156v407h-699v-407q0 -127 29 -155.5t156 -39.5v-57h-539v57 q125 10 152.5 39t27.5 156v827q0 127 -28.5 156t-155.5 39z" />
<glyph unicode="&#x41e;" horiz-adv-x="1529" d="M90 651q0 291 189.5 501t500.5 210q268 0 464 -190.5t196 -489.5q0 -324 -196.5 -518.5t-487.5 -194.5q-281 0 -473.5 194.5t-192.5 487.5zM299 709q0 -289 141.5 -477.5t358.5 -188.5q184 0 308 151.5t124 432.5q0 311 -141.5 486t-354.5 175q-182 0 -309 -152.5 t-127 -426.5z" />
<glyph unicode="&#x41f;" horiz-adv-x="1505" d="M78 0v57q88 6 120.5 19.5t46 50.5t13.5 131v817q0 94 -13.5 131t-45 49.5t-119.5 18.5v57h1339v-57q-121 -10 -148.5 -40t-27.5 -161v-815q0 -133 27.5 -161.5t152.5 -39.5v-57h-534v57q125 10 152.5 39t27.5 162v868q0 88 -20.5 111t-104.5 23h-387q-86 0 -105.5 -24 t-19.5 -122v-856q0 -131 27.5 -160.5t152.5 -40.5v-57h-534z" />
<glyph unicode="&#x420;" horiz-adv-x="1153" d="M82 0v57q123 10 151.5 41t28.5 158v819q0 133 -25.5 162t-142.5 37v57h506q229 0 346 -84q131 -100 131 -289q0 -186 -115.5 -292.5t-283.5 -126.5q-47 -6 -92 -2l-152 38v-321q0 -129 32 -157.5t171 -39.5v-57h-555zM434 643q63 -25 150 -25q121 0 209 78t88 254 q0 158 -87 237t-223 79q-90 0 -114 -25q-23 -16 -23 -96v-502z" />
<glyph unicode="&#x421;" horiz-adv-x="1361" d="M90 647q0 322 221 518.5t568 196.5q74 0 146.5 -10.5t141 -27.5t74.5 -17q29 -209 41 -310l-59 -14q-41 162 -136.5 233.5t-263.5 71.5q-244 0 -384 -176t-140 -424q0 -287 150.5 -466t386.5 -179q150 0 244.5 76.5t176.5 238.5l60 -20q-68 -223 -117 -315 q-248 -53 -377 -54q-184 0 -328.5 59.5t-230.5 158t-130 216t-44 244.5z" />
<glyph unicode="&#x422;" horiz-adv-x="1263" d="M57 1014q20 238 25 368h41q20 -33 42.5 -42t70.5 -9h808q39 0 58.5 10.5t44.5 40.5h43q4 -182 22 -362l-61 -6q-27 129 -64 182q-27 39 -68.5 52.5t-154.5 13.5h-143v-1010q0 -123 32.5 -154.5t176.5 -40.5v-57h-586v57q139 8 171 40t32 155v1010h-127q-123 0 -170 -14.5 t-68 -49.5q-25 -35 -65 -184h-60z" />
<glyph unicode="&#x423;" horiz-adv-x="1337" d="M37 1272v59h483v-59l-59 -10q-31 -6 -43 -17.5t-8 -33t24 -62.5l316 -647q188 438 243 604q27 88 14.5 117.5t-71.5 40.5l-72 8v59h445v-59q-100 -10 -135 -44t-99 -171q-33 -72 -176 -400.5t-188 -427.5q-82 -168 -163 -228t-167 -60q-47 0 -87 20.5t-54 50.5 q-29 55 18 99q45 41 84 8q49 -43 121 -43q68 0 122 86t54 131q0 41 -35 113q-63 141 -358 729q-37 76 -73 99t-136 38z" />
<glyph unicode="&#x424;" horiz-adv-x="1570" d="M86 684q0 109 38 194t98.5 138t142 89t160.5 50t163 16q0 78 -24.5 96.5t-124.5 24.5v56h475v-56q-102 -8 -127 -26.5t-25 -94.5q113 -2 214.5 -26.5t197.5 -75.5t153.5 -150.5t57.5 -234.5q0 -131 -56.5 -229.5t-150.5 -150.5t-196.5 -77.5t-217.5 -27.5 q0 -94 23.5 -116t128.5 -28v-55h-479v55q106 8 129.5 29.5t23.5 114.5q-111 2 -209 25.5t-191 74.5t-148.5 150.5t-55.5 234.5zM276 684q0 -115 36 -198t97.5 -129t130 -67.5t150.5 -23.5q2 11 2 60v678q0 66 -2 100q-180 -6 -297 -103.5t-117 -316.5zM860 319q0 -45 2 -53 q188 4 310 102.5t122 315.5q0 117 -36.5 201t-101 130t-137.5 66.5t-159 22.5v-94v-691z" />
<glyph unicode="&#x425;" horiz-adv-x="1339" d="M14 0v57q90 10 144.5 35t95.5 82q117 152 336 490q-270 430 -277 438q-66 100 -108.5 130t-151.5 42v57h504v-57q-90 -10 -106.5 -28.5t10.5 -57.5q66 -113 233 -373q135 209 203 332q39 68 21.5 91.5t-119.5 35.5v57h469v-57q-115 -12 -164 -40t-119 -118 q-92 -127 -248 -366q207 -328 322 -504q70 -106 122 -142t160 -47v-57h-538v57q94 10 113.5 29.5t-11.5 71.5q-184 303 -270 438q-156 -240 -250 -414q-39 -66 -21.5 -89t119.5 -36v-57h-469z" />
<glyph unicode="&#x426;" horiz-adv-x="1517" d="M78 0v57q123 8 151.5 38t28.5 163v823q0 125 -28.5 155t-149.5 40v55h532v-55q-123 -10 -151.5 -40t-28.5 -155v-848q0 -106 25.5 -132.5t126.5 -26.5h336q102 0 126.5 23.5t24.5 125.5v852q0 129 -28.5 160t-151.5 41v55h530v-55q-121 -10 -148.5 -40t-27.5 -161v-897 q0 -70 12.5 -86t57.5 -16h121l-50 -420h-61l-25 182q-12 100 -41.5 131t-105.5 31h-1075z" />
<glyph unicode="&#x427;" horiz-adv-x="1363" d="M39 1274v57h500v-57q-115 -10 -141.5 -38t-26.5 -142v-158q0 -145 73.5 -213t239.5 -68q121 0 248 62v368q0 123 -26.5 151t-143.5 38v57h516v-57q-119 -10 -145.5 -38t-26.5 -149v-829q0 -131 26.5 -160.5t145.5 -40.5v-57h-530v57q127 10 155.5 41t28.5 160v387 l-201 -72q-72 -27 -151 -26q-225 0 -320 125q-63 90 -63 241v183q0 115 -25 141.5t-133 36.5z" />
<glyph unicode="&#x428;" horiz-adv-x="1961" d="M88 0v57q115 8 142.5 39t27.5 164v817q0 129 -26.5 158t-141.5 39v57h492v-57q-74 -6 -100.5 -18.5t-38 -48.5t-11.5 -128v-839q0 -117 18.5 -140.5t106.5 -23.5l213 -2q86 0 105.5 24.5t19.5 141.5v839q0 125 -23.5 155t-126.5 40v57h474v-57q-109 -8 -129.5 -37 t-20.5 -158v-839q0 -117 19.5 -141.5t105.5 -24.5h215q86 0 104.5 24.5t18.5 141.5v839q0 92 -12.5 128t-41 48.5t-112.5 18.5v57h508v-57q-117 -10 -142.5 -38t-25.5 -157v-823q0 -129 28.5 -158.5t157.5 -40.5v-57h-1804z" />
<glyph unicode="&#x429;" horiz-adv-x="1966" d="M84 0v57q119 8 146.5 39t27.5 162v819q0 129 -26.5 158t-145.5 39v57h496v-57q-102 -10 -126 -39t-24 -158v-837q0 -119 18.5 -142.5t106.5 -23.5h213q88 0 106.5 23.5t18.5 142.5v837q0 129 -23.5 158t-126.5 39v57h474v-57q-104 -10 -127 -39t-23 -158v-837 q0 -119 18.5 -142.5t106.5 -23.5h215q86 0 104.5 24.5t18.5 141.5v837q0 129 -25.5 158t-140.5 39v57h512v-57q-86 -6 -116.5 -18.5t-43 -48.5t-12.5 -130v-897q0 -72 12.5 -89t57.5 -17h120l-49 -418h-61l-25 182q-12 100 -40.5 131t-106.5 31h-1530z" />
<glyph unicode="&#x42a;" horiz-adv-x="1474" d="M47 1026q16 154 25 305h837v-57q-135 -12 -165.5 -42t-30.5 -157v-295q111 12 211 13q233 0 352 -98.5t119 -272.5q0 -231 -191 -340q-143 -82 -395 -82h-442v57q121 10 148.5 38t27.5 153v930q0 63 -10.5 72.5t-73.5 9.5h-101q-143 0 -182 -56q-41 -53 -70 -186z M713 270q0 -121 36.5 -158.5t141.5 -37.5q305 4 305 329q0 315 -344 316q-61 0 -139 -10v-439z" />
<glyph unicode="&#x42b;" horiz-adv-x="1720" d="M86 0v57q119 10 145.5 40t26.5 161v817q0 129 -26.5 159t-141.5 40v57h522v-57q-90 -6 -122.5 -19.5t-46 -49.5t-13.5 -130v-287q92 10 207 11q233 0 351 -99.5t118 -269.5q0 -238 -186 -342q-147 -88 -402 -88h-432zM430 250q0 -102 32.5 -139t145.5 -37q125 0 212 82 t87 250q0 319 -342 319q-78 0 -135 -8v-467zM1118 0v57q117 8 144.5 41t27.5 158v823q0 123 -27.5 155t-144.5 40v57h520v-57q-119 -8 -146.5 -41t-27.5 -154v-825q0 -125 28 -156.5t144 -40.5v-57h-518z" />
<glyph unicode="&#x42c;" horiz-adv-x="1189" d="M86 0v57q119 10 145.5 40t26.5 157v821q0 131 -26.5 160t-145.5 39v57h524v-57q-88 -6 -120.5 -19.5t-46 -50.5t-13.5 -129v-289q111 12 211 13q233 0 353 -99.5t120 -271.5q0 -231 -188 -342q-145 -86 -406 -86h-434zM430 248q0 -102 34.5 -137t149.5 -35q127 0 214 82 t87 248q0 317 -344 317q-70 0 -141 -10v-465z" />
<glyph unicode="&#x42d;" horiz-adv-x="1318" d="M57 274q0 33 19.5 55.5t46.5 22.5q43 0 78 -71q113 -238 366 -238q197 0 329 165t134 445l-713 -16v113l711 -17q-12 285 -140 421t-325 136q-96 0 -166.5 -27.5t-114.5 -84t-66.5 -103.5t-49.5 -125l-60 13q33 231 44 299q2 0 69.5 23.5t90 29.5t78.5 21.5t101.5 20.5 t90.5 5q176 0 308 -62.5t203.5 -164t105.5 -210t34 -218.5q0 -176 -49 -313.5t-122 -215.5t-169 -127t-177 -65.5t-159 -16.5q-262 0 -405 140q-92 88 -93 165z" />
<glyph unicode="&#x42e;" horiz-adv-x="1957" d="M82 0v57q121 10 148.5 39t27.5 160v821q0 129 -27.5 158t-148.5 39v57h524v-57q-121 -10 -148.5 -39t-27.5 -158v-329h254q20 262 178 438t418 176q236 0 412 -193.5t176 -496.5q0 -328 -168 -515.5t-420 -187.5q-258 0 -428 192.5t-174 497.5h-248v-403 q0 -129 27.5 -158.5t148.5 -40.5v-57h-524zM881 698q0 -293 115.5 -475t299.5 -182q162 0 264.5 150.5t102.5 437.5q0 313 -118 487t-300 174q-156 0 -260 -155.5t-104 -436.5z" />
<glyph unicode="&#x42f;" horiz-adv-x="1302" d="M33 -4v55q106 14 164 82q23 27 174 289q104 170 217 190v4q-31 4 -68 15.5t-86 38t-88 62.5t-66.5 95.5t-29.5 130.5q-2 156 110.5 264.5t362.5 108.5h494v-57q-84 -6 -116 -20.5t-44.5 -51.5t-12.5 -127v-817q0 -131 27 -160.5t146 -40.5v-57h-512v57q115 10 141 40 t26 161v328h-79q-78 0 -122 -28t-87 -101q-4 -6 -148 -281q-59 -111 -115.5 -143.5t-154.5 -34.5zM434 954q4 -154 97.5 -226.5t252.5 -72.5h88v516q0 57 -22.5 75t-95.5 16q-96 0 -164 -32t-99.5 -83t-44 -98.5t-12.5 -94.5z" />
<glyph unicode="&#x430;" horiz-adv-x="899" d="M80 225q0 145 166 203q262 88 317 133v35q0 111 -47 171t-127 60q-57 0 -92 -38.5t-59 -135.5q-14 -47 -60 -47q-31 0 -59.5 26.5t-28.5 61.5t64 82q51 39 140 83t167 61q100 0 168 -56q92 -80 92 -252v-379q0 -123 72 -122q37 0 73 22l21 -53l-174 -105q-55 0 -97 41 q-33 33 -49 90q-10 -6 -49 -33.5t-55.5 -37.5t-47 -27.5t-51 -25t-38.5 -7.5q-106 0 -176 75t-70 175zM254 254q0 -72 46 -114t99 -42q39 0 86 21.5t78 52.5v320q-25 -12 -100.5 -47t-83.5 -39q-63 -29 -94 -64t-31 -88z" />
<glyph unicode="&#x431;" horiz-adv-x="1026" d="M78 539q4 324 178 548q98 131 211 199q84 53 203 88q127 37 184 82q33 25 33 -6q0 -129 -113 -193q-63 -35 -242 -69q-150 -31 -213 -144q-57 -108 -63 -270l4 -4q135 150 295 150h2q168 0 280.5 -127t110.5 -316q-2 -236 -133 -369t-301 -133q-205 0 -321.5 156 t-114.5 408zM268 520q-2 -213 73 -345t187 -132q96 0 161 86t67 283q2 193 -67.5 312.5t-180.5 119.5q-92 0 -172 -92q-66 -74 -68 -232z" />
<glyph unicode="&#x432;" horiz-adv-x="995" d="M61 0v53q100 8 123 33t23 121v489q0 94 -21.5 119t-113.5 31v49h481q139 0 221 -49t82 -150q0 -151 -199 -204v-5q260 -33 261 -221q0 -76 -39 -130t-108 -82.5t-144.5 -41t-163.5 -12.5h-402zM365 207q0 -86 29.5 -113.5t103.5 -27.5q100 0 167.5 51t67.5 145 q0 186 -256 187h-112v-242zM365 514h104q215 0 215 160q0 158 -205 157q-78 0 -96 -11t-18 -50v-256z" />
<glyph unicode="&#x433;" horiz-adv-x="796" d="M61 842v53h687q0 -12 2 -65.5t5 -109.5t5 -89l-58 -6q-25 109 -53 155q-31 47 -131 47h-92q-41 0 -50 -11t-9 -56v-555q0 -92 24.5 -118t132.5 -34v-53h-456v53q94 10 115.5 34t21.5 118v504q0 82 -21.5 103.5t-122.5 29.5z" />
<glyph unicode="&#x434;" horiz-adv-x="1003" d="M51 72h76q33 0 49 30q37 88 66 220q45 195 45 421q0 47 -18.5 63.5t-78.5 27.5l-59 8v53h813v-53q-100 -8 -122.5 -29.5t-22.5 -103.5v-535q0 -66 12 -84t57 -18h82l-41 -379h-59l-27 178q-10 80 -29.5 104.5t-74.5 24.5h-455q-53 0 -73.5 -28.5t-43.5 -121.5l-36 -157 h-60v379zM291 106q-12 -37 20 -36h219q76 0 91.5 16t15.5 90v567q0 57 -12.5 70.5t-65.5 13.5h-115q-41 0 -52 -16t-13 -70q-10 -383 -88 -635z" />
<glyph unicode="&#x435;" horiz-adv-x="870" d="M76 412q0 211 135 358q137 150 299 150h2q125 0 216 -95.5t91 -216.5q0 -33 -9 -46t-38 -19q-111 -20 -536 -35q2 -195 94 -294t213 -99q124 0 235 102l31 -45q-86 -106 -178 -151.5t-156 -45.5q-182 0 -290.5 127t-108.5 310zM246 592q170 0 348 6q29 0 39 9t10 32 q2 84 -48 144.5t-134 60.5q-72 0 -132.5 -66.5t-82.5 -185.5z" />
<glyph unicode="&#x436;" horiz-adv-x="1486" d="M31 0v53q66 4 106.5 37t93.5 121q94 158 119 192q55 76 131 103v6q-59 41 -119 133q-35 51 -52 72.5t-51 45t-69 23.5h-32q-76 0 -76 62q0 31 25.5 51.5t66.5 20.5q96 0 193 -144q98 -162 145 -205q43 -37 72.5 -48t79.5 -13v203q0 84 -19.5 105.5t-107.5 29.5v51h407 v-51q-84 -8 -103.5 -29.5t-19.5 -105.5v-203q92 2 158 63q33 29 139 193q29 43 48.5 69.5t60.5 55.5t86 29q41 0 65.5 -21.5t24.5 -52.5q0 -61 -76 -62h-29q-53 0 -91 -36.5t-91 -114.5q-59 -82 -112 -121v-6q76 -20 131 -103q39 -55 120 -192q53 -88 94.5 -121t104.5 -37 v-53h-127q-72 0 -120 23.5t-91 95.5q-35 59 -121 225q-53 104 -174 105v-254q0 -86 20.5 -110t112.5 -32v-53h-426v53q94 8 115 30.5t21 111.5v254q-72 0 -116 -24t-77 -85q-14 -29 -51 -102.5t-60 -116.5q-39 -76 -85 -98.5t-117 -22.5h-127z" />
<glyph unicode="&#x437;" horiz-adv-x="835" d="M55 180q0 29 17.5 46.5t40.5 17.5q39 0 67 -58q66 -145 201 -145q86 0 136 57.5t50 157.5q0 78 -39 133t-114 55q-20 0 -60.5 -6t-62.5 -6q-31 0 -50.5 14.5t-19.5 36.5q0 20 20.5 36t53.5 16q25 0 64.5 -5.5t58.5 -5.5q53 0 85 39t32 105q0 92 -45.5 140t-116.5 48 q-143 0 -217 -225l-58 14l29 193q139 82 276 82q141 0 226.5 -62.5t85.5 -167.5q0 -74 -58 -123q-39 -32 -139 -71v-4q106 -16 174 -74t68 -158q0 -131 -114 -208t-269 -77q-193 0 -281 105q-41 53 -41 100z" />
<glyph unicode="&#x438;" horiz-adv-x="1136" d="M70 0v53q94 8 114.5 34t20.5 120v493q0 90 -20.5 114t-114.5 32v49h422v-49q-92 -8 -112 -30.5t-20 -113.5v-235q0 -168 -8 -328h4l379 697q16 27 17 45v14h315v-49q-96 -8 -118.5 -28.5t-22.5 -96.5v-528q0 -86 21.5 -109t117.5 -31v-53h-416v53q82 8 101.5 30.5 t19.5 106.5v291q0 129 8 283h-4l-371 -686q-18 -33 -18 -64v-14h-315z" />
<glyph unicode="&#x439;" horiz-adv-x="1136" d="M70 0v53q94 8 114.5 34t20.5 120v493q0 90 -20.5 114t-114.5 32v49h419v-49q-90 -8 -109.5 -30.5t-19.5 -113.5v-235q0 -168 -8 -328h4l379 697q14 29 15 45l2 14h315v-49q-96 -8 -118.5 -28.5t-22.5 -96.5v-528q0 -86 21.5 -109t117.5 -31v-53h-416v53q82 8 101.5 30.5 t19.5 106.5v291q0 129 8 283h-4l-371 -686q-18 -33 -18 -64v-14h-315zM334 1210q0 37 21.5 66t56.5 29q39 0 55 -29t8 -59q-4 -8 -8 -37t23.5 -48.5t83 -19.5t82 20.5t20.5 47.5q0 12 -6 37q-10 33 8 60.5t55 27.5q33 0 55.5 -28t22.5 -65q0 -76 -65.5 -125t-174.5 -49 q-115 0 -176 47.5t-61 124.5z" />
<glyph unicode="&#x43a;" horiz-adv-x="1024" d="M72 0v53q90 8 111.5 32t21.5 103v523q0 82 -19.5 103.5t-107.5 29.5v51h405v-51q-82 -8 -101.5 -30.5t-19.5 -102.5v-205q92 4 156 61q31 31 144 203q100 147 192 148q43 0 67.5 -19.5t24.5 -50.5q0 -61 -74 -62h-32q-51 0 -87 -32.5t-83 -104.5q-61 -92 -123 -137v-8 q82 -25 137 -103q25 -35 119 -194q53 -86 92 -118t100 -36v-53h-133q-68 0 -115 22.5t-90 94.5q-51 90 -122 233q-29 55 -67 74.5t-106 19.5v-256q0 -80 22 -103.5t112 -31.5v-53h-424z" />
<glyph unicode="&#x43b;" horiz-adv-x="1011" d="M35 -10v37q109 90 176 245q88 203 88 449q0 68 -24.5 89t-131.5 32v53h807v-53q-98 -8 -119.5 -32t-21.5 -112v-489q0 -96 21.5 -122t119.5 -34v-53h-440v53q96 8 116.5 33t20.5 121v526q0 57 -12 73.5t-60 16.5h-108q-47 0 -60.5 -15t-15.5 -67q-10 -467 -174 -702 q-45 -68 -92 -68q-43 0 -90 19z" />
<glyph unicode="&#x43c;" horiz-adv-x="1310" d="M53 0v53q61 2 88 21.5t35 60.5q14 92 23 244l14 293q4 111 -14.5 138.5t-112.5 33.5v51h293l276 -619l291 619h303v-49q-98 -6 -119.5 -29.5t-19.5 -118.5l4 -477q2 -109 23.5 -135.5t115.5 -32.5v-53h-430v53q92 6 112.5 33t20.5 135l9 547h-9l-329 -758h-37l-299 733 h-6l-11 -344q-2 -209 2 -264q4 -41 33 -59.5t105 -22.5v-53h-361z" />
<glyph unicode="&#x43d;" horiz-adv-x="1132" d="M68 844v51h415v-51q-78 -8 -96 -32t-18 -110v-186h397v189q0 86 -19.5 108.5t-105.5 30.5v51h412v-51q-86 -8 -105.5 -29.5t-19.5 -109.5v-496q0 -98 20.5 -123t110.5 -33v-53h-414v53q82 8 101.5 33t19.5 123v229h-397v-229q0 -100 18.5 -124t97.5 -32v-53h-413v53 q94 8 114.5 32t20.5 124v496q0 88 -20.5 109.5t-118.5 29.5z" />
<glyph unicode="&#x43e;" horiz-adv-x="1044" d="M76 428q0 121 43 218t111.5 154.5t145 88.5t150.5 31q188 0 315.5 -133.5t127.5 -323.5q0 -229 -137.5 -358.5t-307.5 -129.5q-201 0 -324.5 136.5t-123.5 316.5zM266 494q0 -197 78 -324t203 -127q104 0 167.5 89t63.5 286q0 186 -73.5 310t-204.5 124q-98 0 -166 -96.5 t-68 -261.5z" />
<glyph unicode="&#x43f;" horiz-adv-x="1130" d="M66 844v51h997v-51q-96 -8 -116.5 -30.5t-20.5 -111.5v-491q0 -96 22.5 -123t118.5 -35v-53h-434v53q92 8 111.5 33t19.5 125v520q0 63 -14.5 78.5t-73.5 15.5h-219q-59 0 -73.5 -15t-14.5 -79v-520q0 -98 19.5 -124t105.5 -34v-53h-426v53q96 8 117.5 34t21.5 124v491 q0 90 -21.5 112t-119.5 30z" />
<glyph unicode="&#x440;" horiz-adv-x="1073" d="M35 -436q100 10 124.5 34.5t24.5 125.5v925q0 98 -19.5 120t-115.5 34v49q135 23 297 88v-162l189 109q53 33 100 33q164 0 263 -115t99 -273q0 -221 -148.5 -369.5t-361.5 -187.5q-78 2 -141 37v-268q0 -117 26.5 -143.5t145.5 -36.5v-56h-483v56zM346 156 q76 -80 193 -80q129 0 207.5 102.5t78.5 274.5q0 160 -78.5 252t-195.5 92q-92 0 -205 -88v-553z" />
<glyph unicode="&#x441;" horiz-adv-x="866" d="M76 403q0 242 207 400q152 117 305 117h2q121 0 184 -56q33 -29 33 -61q0 -31 -24.5 -59.5t-43.5 -28.5q-16 0 -39 22q-90 84 -206 84q-106 0 -179 -87t-73 -240q0 -100 30.5 -178t79.5 -119t100.5 -61.5t98.5 -20.5q68 0 124 24.5t124 87.5l35 -43 q-70 -92 -164.5 -150.5t-182.5 -58.5q-186 0 -298.5 127t-112.5 301z" />
<glyph unicode="&#x442;" horiz-adv-x="903" d="M47 641q12 104 16 254h783q0 -78 4 -254l-55 -6q-20 104 -41 143q-29 51 -131 51h-91v-632q0 -88 24 -112t126 -32v-53h-461v53q102 8 126 32t24 112v632h-99q-92 0 -120 -53q-23 -43 -50 -143z" />
<glyph unicode="&#x443;" horiz-adv-x="940" d="M-2 842v53h430v-53l-68 -17q-23 -6 -30.5 -16t-6.5 -26.5t11 -47.5l203 -528q123 309 188 532q12 45 2 60.5t-51 25.5l-72 17v53h371v-53q-74 -16 -103.5 -43t-68.5 -119q-35 -80 -232 -582q-166 -416 -225 -508q-74 -117 -131 -116q-43 0 -74.5 30.5t-34.5 75.5 q-4 43 39 49q156 37 234 201q39 82 55 133q10 25 -4 72q-78 219 -262 676q-29 70 -60.5 96.5t-109.5 34.5z" />
<glyph unicode="&#x444;" horiz-adv-x="1376" d="M76 436q0 207 114.5 344.5t282.5 137.5q82 0 145 -54v353q0 76 -21.5 94t-127.5 26v47q127 19 305 74v-596q90 55 172 56q143 0 250 -130.5t107 -318.5q0 -223 -117 -358.5t-268 -135.5q-70 0 -144 48v-297q0 -102 24.5 -130t127.5 -36v-54h-457v54q102 8 125.5 35.5 t23.5 132.5v299q-78 -51 -165 -52q-154 0 -265.5 127t-111.5 334zM260 471q0 -229 71.5 -324.5t155.5 -95.5q80 0 131 66v653q-55 72 -137 72q-100 0 -160.5 -105.5t-60.5 -265.5zM774 117q49 -66 135 -66q31 0 63 15.5t67.5 52.5t57 116.5t21.5 194.5q0 184 -55 298 t-162 114q-64 0 -127 -72v-653z" />
<glyph unicode="&#x445;" horiz-adv-x="966" d="M8 0v53q94 12 131 35t98.5 100.5t174.5 245.5l-179 279q-47 74 -81.5 96t-118.5 33v53h407v-53q-63 -8 -74.5 -25.5t19.5 -60.5l121 -191q76 115 119 193q27 47 14.5 61.5t-82.5 22.5v53h375v-53q-96 -10 -133 -27.5t-92 -81.5q-49 -59 -160 -225l198 -303 q57 -88 95.5 -113.5t130.5 -38.5v-53h-439v53q66 8 80.5 24.5t-10.5 57.5l-151 240q-80 -119 -132 -217q-33 -51 -20.5 -71.5t90.5 -33.5v-53h-381z" />
<glyph unicode="&#x446;" horiz-adv-x="1138" d="M61 0v53q100 8 122 32t22 112v503q0 90 -20.5 112t-112.5 32v51h407v-51q-76 -8 -94 -30.5t-18 -113.5v-532q0 -66 15 -81t75 -15h215q59 0 74.5 15t15.5 81v532q0 90 -19.5 113t-107.5 31v51h426v-51q-96 -8 -116.5 -32t-20.5 -112v-528q0 -63 12 -81.5t57 -18.5h82 l-41 -379h-61l-27 178q-12 82 -30.5 105.5t-73.5 23.5h-781z" />
<glyph unicode="&#x447;" horiz-adv-x="1038" d="M33 844v51h405v-51q-82 -8 -101.5 -29.5t-19.5 -105.5v-95q0 -172 189 -172q92 0 166 37v230q0 84 -18.5 104.5t-96.5 30.5v51h414v-51q-96 -8 -116.5 -29.5t-20.5 -105.5v-502q0 -96 21.5 -121t115.5 -33v-53h-445v53q102 8 124 32t22 122v209q-158 -59 -236 -60 q-137 0 -211 64q-70 59 -69 188v101q0 84 -18.5 105.5t-104.5 29.5z" />
<glyph unicode="&#x448;" horiz-adv-x="1579" d="M68 0v53q94 8 115.5 32t21.5 116v512q0 82 -21.5 103.5t-115.5 29.5v49h409v-49q-78 -8 -95 -29.5t-17 -107.5v-547q0 -63 14 -77.5t78 -14.5h159q63 0 78 15t15 77v540q0 88 -18.5 112t-98.5 32v49h391v-49q-78 -8 -96.5 -31.5t-18.5 -112.5v-540q0 -61 14.5 -76.5 t75.5 -15.5h162q61 0 76.5 15t15.5 77v549q0 84 -17 105.5t-97 29.5v49h407v-49q-92 -8 -112.5 -30.5t-20.5 -113.5v-501q0 -92 21.5 -116t117.5 -32v-53h-1443z" />
<glyph unicode="&#x449;" horiz-adv-x="1587" d="M66 0v51q96 8 117.5 33t21.5 119v510q0 84 -21.5 104.5t-115.5 28.5v49h409v-49q-78 -8 -95 -29.5t-17 -109.5v-541q0 -63 14 -78.5t78 -15.5h161q63 0 78 15t15 79v539q0 88 -18.5 110.5t-100.5 30.5v49h393v-49q-78 -8 -96.5 -30.5t-18.5 -110.5v-539q0 -61 14.5 -77.5 t76.5 -16.5h161q61 0 76.5 16t15.5 78v549q0 82 -18 102.5t-96 28.5v49h407v-49q-92 -8 -112.5 -29.5t-20.5 -109.5v-535q0 -63 12.5 -81.5t57.5 -18.5h82l-41 -379h-62l-26 178q-10 80 -29.5 104.5t-73.5 24.5h-1228z" />
<glyph unicode="&#x44a;" horiz-adv-x="1159" d="M41 625q12 143 20 270h654v-51q-102 -8 -125 -31t-23 -113v-131q66 8 150 9q373 0 373 -273q0 -143 -112 -224t-327 -81h-395v51q106 8 130 34t24 120v530q0 63 -12.5 76.5t-65.5 13.5h-64q-90 0 -118 -51q-20 -41 -56 -158zM567 168q0 -59 24.5 -82t84.5 -23 q113 0 172 59.5t59 172.5q0 219 -248 219q-53 0 -92 -6v-340z" />
<glyph unicode="&#x44b;" horiz-adv-x="1394" d="M68 0v55q98 10 118.5 34t20.5 116v489q0 96 -19.5 120t-111.5 32v49h422v-49q-92 -8 -112.5 -33t-20.5 -119v-129q102 8 139 8q377 0 377 -268q0 -143 -111 -224t-324 -81h-378zM365 176q0 -68 20.5 -89t83.5 -21q111 0 170 60t59 171q0 115 -65.5 163t-188.5 48 q-36 0 -79 -6v-326zM893 844v51h428v-51q-92 -8 -112.5 -30.5t-20.5 -113.5v-493q0 -98 20.5 -121t114.5 -31v-55h-424v55q88 8 107.5 32t19.5 120v493q0 90 -20.5 113t-112.5 31z" />
<glyph unicode="&#x44c;" horiz-adv-x="958" d="M66 0v53q98 8 119.5 33t21.5 117v493q0 94 -20.5 118t-112.5 32v49h426v-49q-94 -8 -114.5 -32t-20.5 -118v-131q102 8 149 8q379 0 379 -268q0 -143 -110.5 -224t-325.5 -81h-391zM365 176q0 -70 23.5 -91.5t90.5 -21.5q111 0 171.5 61.5t60.5 172.5q0 211 -258 211 q-51 0 -88 -6v-326z" />
<glyph unicode="&#x44d;" horiz-adv-x="901" d="M39 178q2 29 20.5 47.5t40.5 18.5q39 0 74 -58q41 -74 88 -108.5t121 -34.5q133 0 192.5 113.5t63.5 273.5l-408 -16v106l406 -14q-6 156 -71.5 251t-192.5 93q-102 -2 -152.5 -60.5t-95.5 -181.5l-53 15l37 227q160 68 288 68q190 0 309 -125t119 -328 q0 -219 -129 -354.5t-323 -135.5q-190 0 -287 107q-43 49 -47 96z" />
<glyph unicode="&#x44e;" horiz-adv-x="1447" d="M63 844v51h437v-51q-94 -8 -116 -32t-22 -116v-186h187q25 199 142.5 304.5t271.5 105.5q180 0 295.5 -135.5t115.5 -331.5q0 -229 -116.5 -353.5t-288.5 -124.5q-193 0 -306.5 130.5t-115.5 322.5h-185v-223q0 -96 20.5 -120t119.5 -32v-53h-436v53q96 8 117.5 33 t21.5 119v491q0 92 -22.5 116t-119.5 32zM733 477q0 -186 68.5 -309t177.5 -123q90 0 149.5 90t59.5 285q0 188 -65.5 310t-178.5 122q-90 0 -150.5 -99.5t-60.5 -275.5z" />
<glyph unicode="&#x44f;" horiz-adv-x="1024" d="M18 0v53q88 12 115 45q16 18 84 146q35 70 80 113.5t121 62.5v4q-119 20 -181.5 80.5t-62.5 150.5q0 119 92 179.5t246 60.5h434v-51q-88 -6 -108.5 -28.5t-20.5 -121.5v-489q0 -96 21.5 -121t111.5 -31v-53h-415v53q86 6 105 31t19 123v186h-67q-106 0 -152 -63 q-16 -23 -98 -197q-61 -133 -174 -133h-150zM346 643q0 -94 76 -143q57 -41 176 -41h61v307q0 39 -21.5 52t-82.5 13q-98 0 -153.5 -48t-55.5 -140z" />
<glyph unicode="&#x451;" horiz-adv-x="870" d="M76 412q0 211 135 358q137 150 299 150h2q125 0 215 -95.5t90 -216.5q0 -33 -9 -46t-38 -19q-111 -20 -532 -35q2 -195 93 -294t212 -99q122 0 233 102l31 -45q-84 -106 -176 -151.5t-158 -45.5q-180 0 -288.5 127t-108.5 310zM205 1200q0 43 29.5 71.5t70.5 28.5 t68.5 -28.5t27.5 -71.5q0 -41 -28.5 -69.5t-69.5 -28.5t-69.5 28.5t-28.5 69.5zM248 592q168 0 346 6q29 0 39 9t10 32q0 84 -50 144.5t-132 60.5q-72 0 -131.5 -65.5t-81.5 -186.5zM551 1200q0 43 28.5 71.5t69.5 28.5t68.5 -28.5t27.5 -71.5q0 -41 -27.5 -69.5 t-70.5 -28.5q-39 0 -67.5 29.5t-28.5 68.5z" />
<glyph unicode="&#x452;" horiz-adv-x="1024" d="M39 1100v74h141v108q0 41 -13 53.5t-75 18.5v47q131 18 250 59v-286h352v-74h-352v-277l129 66q66 33 121 33q164 0 259 -139.5t95 -358.5q0 -514 -508 -834l-39 58q369 260 369 747q0 213 -75 314.5t-183 101.5q-90 0 -168 -51v-543q0 -106 21.5 -131t115.5 -33v-53 h-436v53q92 8 114.5 34t22.5 130v883h-141z" />
<glyph unicode="&#x453;" horiz-adv-x="796" d="M61 842v53h687q0 -12 2 -65.5t5 -109.5t5 -89l-58 -6q-25 109 -53 155q-31 47 -131 47h-92q-41 0 -50 -11t-9 -56v-555q0 -92 24.5 -118t132.5 -34v-53h-456v53q94 10 115.5 34t21.5 118v504q0 82 -21.5 103.5t-122.5 29.5zM354 1036q16 37 48 110t59.5 139.5t32.5 74.5 q14 8 80.5 16t84.5 4l7 -20l-258 -350z" />
<glyph unicode="&#x454;" horiz-adv-x="919" d="M78 436q0 209 134 348.5t355 139.5q113 0 240 -52q10 -45 22.5 -119.5t16.5 -101.5l-55 -18q-45 117 -78 155q-61 68 -164 70q-123 2 -198 -95t-85 -253l422 16v-106l-422 16q0 -84 23.5 -168t90 -154.5t167.5 -70.5q137 0 209 129q39 66 75 66q18 0 32 -15.5t14 -38.5 q0 -49 -58 -106q-111 -102 -295 -103q-188 0 -317 122t-129 339z" />
<glyph unicode="&#x455;" horiz-adv-x="751" d="M84 287l55 10q29 -109 95.5 -181.5t154.5 -72.5q59 0 102.5 40t43.5 103.5t-40 105.5t-122 81q-57 25 -94 46t-79 55t-62.5 79t-20.5 100q0 111 87 189t224 78q98 0 180 -37q12 -31 26.5 -103.5t18.5 -113.5l-51 -15q-68 203 -211 203q-59 0 -96 -40t-37 -101.5 t45 -101.5t127 -74q129 -53 194.5 -117t65.5 -162q0 -131 -102.5 -207t-235.5 -76q-72 0 -138.5 21.5t-94.5 48.5q-10 23 -22.5 104.5t-12.5 137.5z" />
<glyph unicode="&#x456;" horiz-adv-x="548" d="M66 0v53q98 10 120.5 35t22.5 129v422q0 96 -18.5 118.5t-110.5 37.5v49q156 25 291 80v-707q0 -104 23.5 -129t121.5 -35v-53h-450zM174 1202q0 45 31 76t74 31t72.5 -31t29.5 -76q0 -43 -31 -73.5t-74 -30.5q-41 0 -71.5 31.5t-30.5 72.5z" />
<glyph unicode="&#x457;" horiz-adv-x="548" d="M6 1200q0 43 30 73t70 30q39 0 67 -30t28 -73q0 -41 -28 -69.5t-69 -28.5q-39 0 -68.5 28.5t-29.5 69.5zM68 0v53q96 10 119.5 37t23.5 131v410q0 102 -19.5 125.5t-109.5 38.5v49q158 25 289 80v-703q0 -106 23.5 -132t121.5 -36v-53h-448zM350 1200q0 43 30 73t71 30 t68.5 -30t27.5 -73q0 -41 -28.5 -69.5t-69.5 -28.5q-39 0 -69 28.5t-30 69.5z" />
<glyph unicode="&#x458;" horiz-adv-x="524" d="M-51 -436q0 39 43 47q111 29 147 78q37 45 51 147q16 117 17 395v400q0 104 -20.5 128t-116.5 38v47q170 25 299 80v-697q0 -199 -47 -329q-47 -135 -123 -247t-125 -155q-29 -23 -51.5 -22.5t-48 28t-25.5 62.5zM174 1202q0 45 31 76t74 31q41 0 70.5 -31t29.5 -76 q0 -43 -30 -73.5t-73 -30.5q-41 0 -71.5 31.5t-30.5 72.5z" />
<glyph unicode="&#x459;" horiz-adv-x="1378" d="M25 -10v35q111 90 178 243q90 195 90 453q0 68 -24.5 89t-133.5 32v53h809v-53q-106 -10 -129.5 -31.5t-23.5 -105.5v-166q74 6 143 6q184 0 280.5 -59.5t96.5 -194.5q0 -131 -109.5 -211t-322.5 -80h-396v53q104 8 127 34t23 124v524q0 57 -12.5 73.5t-61.5 16.5h-106 q-43 0 -54.5 -15t-11.5 -67q-12 -471 -180 -704q-45 -68 -94 -68q-55 0 -88 19zM791 166q0 -61 23.5 -83t86.5 -22q113 0 172.5 57.5t59.5 166.5q0 113 -68 154.5t-186 41.5q-31 0 -88 -4v-311z" />
<glyph unicode="&#x45a;" horiz-adv-x="1472" d="M70 844v51h411v-51q-78 -8 -96 -28.5t-18 -96.5v-187h376v177q0 86 -19 106.5t-103 28.5v51h411v-51q-92 -8 -111.5 -28.5t-19.5 -106.5v-177h133q180 0 274.5 -57t94.5 -190q0 -131 -99.5 -208t-306.5 -77h-372v53q82 8 100 29.5t18 103.5v279h-376v-279 q0 -82 18 -103.5t100 -29.5v-53h-411v53q88 8 109.5 30.5t21.5 102.5v529q0 82 -20.5 101.5t-114.5 27.5zM901 164q0 -59 20.5 -81t90.5 -22q100 0 156.5 57.5t56.5 155.5q0 190 -224 191h-100v-301z" />
<glyph unicode="&#x45b;" horiz-adv-x="1091" d="M37 1102v74h141v90q0 51 -15.5 64t-76.5 22v49q125 16 254 57v-282h322v-74h-322v-330q133 145 293 148q129 4 204.5 -82t75.5 -256v-371q0 -100 21.5 -125t114.5 -33v-53h-428v53q88 10 109.5 35t21.5 123v340q0 127 -47.5 188.5t-149.5 59.5q-133 0 -215 -101v-485 q0 -100 21.5 -126t109.5 -34v-53h-432v53q92 8 115.5 34t23.5 126v889h-141z" />
<glyph unicode="&#x45c;" horiz-adv-x="1024" d="M72 0v53q90 8 111.5 32t21.5 103v523q0 82 -19.5 103.5t-107.5 29.5v51h405v-51q-82 -8 -101.5 -30.5t-19.5 -102.5v-205q92 4 156 61q31 31 144 203q100 147 192 148q43 0 67.5 -19.5t24.5 -50.5q0 -61 -74 -62h-32q-51 0 -87 -32.5t-83 -104.5q-61 -92 -123 -137v-8 q82 -25 137 -103q25 -35 119 -194q53 -86 92 -118t100 -36v-53h-133q-68 0 -115 22.5t-90 94.5q-51 90 -122 233q-29 55 -67 74.5t-106 19.5v-256q0 -80 22 -103.5t112 -31.5v-53h-424zM467 1036q47 100 139 326q14 6 81 13t85 5l6 -18l-258 -352z" />
<glyph unicode="&#x45e;" horiz-adv-x="958" d="M-2 842v53h430v-53l-68 -17q-23 -6 -30.5 -16t-6.5 -26.5t11 -47.5l203 -528q123 309 188 532q12 45 2 60.5t-51 25.5l-72 17v53h371v-53q-74 -16 -103.5 -43t-68.5 -119q-35 -80 -232 -582q-166 -416 -225 -508q-74 -117 -131 -116q-43 0 -74.5 30.5t-34.5 75.5 q-4 43 39 49q156 37 234 201q39 82 55 133q10 25 -4 72q-78 219 -262 676q-29 70 -60.5 96.5t-109.5 34.5zM266 1212q0 37 22.5 65t55.5 28q39 0 55.5 -29t8.5 -57q-4 -8 -8.5 -37t22.5 -49.5t84 -20.5q55 0 81.5 21.5t20.5 48.5q0 6 -6 37q-10 33 8.5 59.5t55.5 26.5 q33 0 55 -27t22 -66q0 -76 -65.5 -123t-173.5 -47q-113 0 -175.5 46.5t-62.5 123.5z" />
<glyph unicode="&#x45f;" horiz-adv-x="1116" d="M68 0v53q92 8 114.5 33t22.5 107v512q0 84 -19.5 106.5t-103.5 30.5v53h393v-53q-74 -8 -91 -29.5t-17 -107.5v-541q0 -63 15 -79.5t73 -16.5h213q61 0 76.5 15t15.5 81v543q0 84 -20.5 105.5t-108.5 29.5v53h422v-53q-92 -8 -111.5 -29.5t-19.5 -107.5v-512 q0 -86 19.5 -109t105.5 -31v-53h-312q-51 0 -73.5 -13.5t-32.5 -60.5q-18 -82 -41 -254h-58q-25 178 -41 254q-10 47 -31.5 60.5t-68.5 13.5h-321z" />
<glyph unicode="&#x462;" horiz-adv-x="1411" d="M49 854q20 213 25 322h39q18 -35 36.5 -43.5t61.5 -8.5h307q0 98 -25.5 121t-134.5 31v55h494v-55q-113 -8 -138.5 -31.5t-25.5 -120.5h344q63 0 96 52h39q4 -172 23 -316l-60 -6q-20 76 -59 141q-23 35 -68 48.5t-155 13.5h-160v-322q96 10 182 10q463 0 463 -348 q0 -213 -186 -317q-143 -80 -377 -80h-434v55q70 4 100.5 11.5t52 33t25.5 64.5t4 121v772h-156q-98 0 -137 -16.5t-63 -57.5q-25 -45 -53 -129h-60zM688 266q0 -113 33 -152.5t125 -39.5q131 2 211 76.5t80 226.5q0 154 -85 225.5t-233 71.5q-76 0 -131 -8v-400z" />
<glyph unicode="&#x463;" horiz-adv-x="1120" d="M41 655q18 131 22 240h330v61q0 88 -22.5 111t-118.5 31v53h440v-53q-96 -8 -117.5 -31t-23.5 -111v-61h358q4 -109 23 -240l-58 -8q-23 74 -47 125q-18 33 -52 45t-109 12h-115v-317q94 8 129 8q371 0 371 -248q0 -129 -103.5 -200.5t-292.5 -71.5h-403v53 q98 8 119.5 34t21.5 120v622h-92q-121 0 -151 -53q-20 -35 -52 -129zM551 203q0 -84 23.5 -112t82.5 -28q90 0 153.5 49.5t63.5 153.5q0 186 -223 187q-57 -1 -100 -9v-241z" />
<glyph unicode="&#x472;" horiz-adv-x="1507" d="M88 651q0 133 46 259t130 227.5t218 163t298 61.5q262 0 451.5 -190.5t189.5 -487.5q0 -319 -191.5 -517t-488.5 -198q-281 0 -467 194.5t-186 487.5zM299 743h909q-25 262 -154.5 403.5t-326.5 141.5q-176 0 -299 -142.5t-129 -402.5zM301 647q12 -260 144.5 -432 t338.5 -172q186 0 307 148.5t123 414.5q0 25 -2 41h-911z" />
<glyph unicode="&#x473;" horiz-adv-x="1046" d="M74 426q0 160 74.5 276.5t175 167t204.5 50.5q190 0 317.5 -133.5t127.5 -329.5q0 -223 -136.5 -352.5t-310.5 -129.5q-203 0 -327.5 136.5t-124.5 314.5zM264 508h512q-18 160 -88 252t-186 92q-102 0 -169 -93t-69 -251zM268 422q14 -172 89 -275.5t194 -103.5 q70 0 119 37t71.5 98.5t31.5 119.5t9 124h-514z" />
<glyph unicode="&#x474;" horiz-adv-x="1392" d="M23 1276v55h509v-55l-67 -10q-55 -8 -69.5 -27.5t3.5 -71.5q25 -70 150 -392t196 -517q227 649 316 864q94 240 223 240q90 0 90 -76q0 -27 -21.5 -44t-49.5 -21l-19 -2q-39 -2 -73.5 -40t-86.5 -145q-106 -221 -405 -1065h-51q-193 524 -422 1106q-47 117 -88 155 t-135 46z" />
<glyph unicode="&#x475;" horiz-adv-x="956" d="M-10 844v51h418v-51l-66 -17q-45 -14 -23 -79q20 -51 89 -238.5t108 -282.5q98 285 150 435q49 133 95 194.5t107 61.5q37 0 58.5 -22t21.5 -50q0 -25 -16.5 -43.5t-42.5 -22.5l-19 -2q-37 -4 -63.5 -35.5t-63.5 -113.5q-55 -125 -247 -654h-52l-284 732q-29 59 -40 78.5 t-42 36t-88 22.5z" />
<glyph unicode="&#x490;" horiz-adv-x="976" d="M90 0v57q84 6 115 19.5t43 49.5t12 130v821q0 129 -24.5 159t-139.5 38v57h543q164 0 205 53q30 39 65 166l60 -4q-23 -258 -25 -284h-426q-59 0 -71.5 -10.5t-12.5 -65.5v-928q0 -72 4 -105.5t29 -56t56.5 -28t107.5 -11.5v-57h-541z" />
<glyph unicode="&#x491;" horiz-adv-x="749" d="M63 842v53h435q98 0 129 57q34 70 63 176l55 -8q-16 -227 -20 -293h-295q-45 0 -54 -10t-9 -53v-574q0 -84 22.5 -106.5t124.5 -30.5v-53h-444v53q92 8 113.5 32t21.5 105v517q0 80 -22.5 102t-119.5 33z" />
<glyph unicode="&#x4c0;" horiz-adv-x="698" d="M78 0v57q127 10 155.5 40t28.5 159v819q0 129 -28.5 159t-155.5 40v57h543v-57q-127 -10 -156 -40t-29 -159v-819q0 -131 29 -159.5t156 -39.5v-57h-543z" />
<glyph unicode="&#x4d9;" horiz-adv-x="876" d="M61 313q0 35 9.5 50.5t38.5 21.5q111 20 532 35q-2 188 -88 279.5t-213 91.5q-106 0 -231 -109l-35 45q80 100 173 146.5t154 46.5q182 0 291 -126t109 -307q0 -223 -137 -368q-59 -66 -139 -105t-156 -39q-129 0 -218.5 99.5t-89.5 238.5zM238 289q-2 -102 49 -170 t137 -68q72 0 132 74t77 213q-10 0 -348 -6q-27 0 -37 -9.5t-10 -33.5z" />
<glyph unicode="&#x1e80;" horiz-adv-x="1988" d="M33 1274v57h497v-57q-109 -14 -129 -38t7 -101q160 -553 249 -844h5q51 160 163.5 502t167.5 520h60q68 -201 358 -1024h4q178 567 232 821q25 92 1 121t-141 43v57h451v-57q-106 -14 -141 -46t-80 -159q-123 -358 -338 -1092h-64q-35 102 -358 1022h-4 q-55 -174 -168 -511.5t-166 -510.5h-64q-49 166 -335 1096q-37 123 -74 157t-133 44zM705 1538q6 23 37.5 67t50.5 50q257 -168 323 -211l-26 -51l-381 129z" />
<glyph unicode="&#x1e81;" horiz-adv-x="1402" d="M18 842v53h424v-53q-92 -14 -109.5 -35t5.5 -90q96 -305 151 -475h5q78 203 237 643h53q80 -227 246 -652h4q102 319 142 474q20 78 0.5 99t-119.5 36v53h368v-53q-76 -10 -103.5 -38t-57.5 -114q-74 -197 -246 -713h-60q-49 131 -142 366t-107 271q-27 -70 -112 -289 t-132 -348h-57q-145 469 -238 732q-27 80 -52.5 101t-99.5 32zM516 1333l6 17q16 8 78 19t82 7q20 -49 65.5 -173t63.5 -171l-55 -26q-133 184 -240 327z" />
<glyph unicode="&#x1e82;" horiz-adv-x="1988" d="M33 1274v57h497v-57q-109 -14 -129 -38t7 -101q160 -553 249 -844h5q51 160 163.5 502t167.5 520h60q68 -201 358 -1024h4q178 567 232 821q25 92 1 121t-141 43v57h451v-57q-106 -14 -141 -46t-80 -159q-123 -358 -338 -1092h-64q-35 102 -358 1022h-4 q-55 -174 -168 -511.5t-166 -510.5h-64q-49 166 -335 1096q-37 123 -74 157t-133 44zM903 1450q35 23 322 209q18 -2 51 -46t37 -67l-4 -16l-379 -131z" />
<glyph unicode="&#x1e83;" horiz-adv-x="1402" d="M18 842v53h424v-53q-92 -14 -109.5 -35t5.5 -90q96 -305 151 -475h5q78 203 237 643h53q80 -227 246 -652h4q102 319 142 474q20 78 0.5 99t-119.5 36v53h368v-53q-76 -10 -103.5 -38t-57.5 -114q-74 -197 -246 -713h-60q-49 131 -142 366t-107 271q-27 -70 -112 -289 t-132 -348h-57q-145 469 -238 732q-27 80 -52.5 101t-99.5 32zM682 1038q16 37 48 110t59.5 139.5t31.5 74.5q14 6 81 14t85 4l6 -18l-258 -350z" />
<glyph unicode="&#x1e84;" horiz-adv-x="1988" d="M33 1274v57h497v-57q-109 -14 -129 -38t7 -101q160 -553 249 -844h5q55 178 166.5 519t162.5 503h62q68 -201 358 -1024h4q178 567 232 821q25 92 1 121t-141 43v57h451v-57q-106 -14 -141 -46t-80 -159q-123 -358 -338 -1092h-64q-162 475 -358 1022h-4 q-55 -174 -168 -511.5t-166 -510.5h-64q-49 166 -335 1096q-37 123 -74 157t-133 44zM725 1520q0 43 28.5 72.5t69.5 29.5t69 -29.5t28 -72.5q0 -41 -29 -70t-70 -29q-39 0 -67.5 30t-28.5 69zM1116 1522q0 43 29 72.5t69.5 29.5t68.5 -29.5t28 -72.5q0 -41 -29 -70t-70 -29 q-39 0 -67.5 30t-28.5 69z" />
<glyph unicode="&#x1e85;" horiz-adv-x="1402" d="M18 842v53h422v-53q-90 -14 -106.5 -34t4.5 -91q37 -123 151 -475h5q45 115 131 351t106 292h53q80 -227 246 -652h4q102 319 142 474q20 80 -0.5 100t-120.5 35v53h370v-53q-76 -10 -103.5 -38t-57.5 -114q-55 -145 -248 -713h-58q-49 131 -142 366t-107 271 q-213 -551 -244 -637h-57q-123 397 -238 732q-27 80 -52.5 101t-99.5 32zM477 1202q0 43 29 72t69.5 29t68.5 -29t28 -72q0 -41 -29 -69.5t-70 -28.5q-39 0 -67.5 29.5t-28.5 68.5zM821 1202q0 43 29 72t70 29t68.5 -29t27.5 -72q0 -41 -28.5 -69.5t-69.5 -28.5 q-39 0 -68 29.5t-29 68.5z" />
<glyph unicode="&#x1ea0;" d="M41 0v57q102 14 140 48t89 165l424 1073l64 19q45 -127 183 -512t212 -586q47 -129 85 -162.5t140 -44.5v-57h-501v57q96 12 118.5 33t1.5 80q-14 41 -112 315h-436q-63 -180 -91 -264q-33 -96 -10 -124.5t139 -39.5v-57h-446zM479 573h377l-180 523h-4 q-33 -86 -96.5 -261.5t-96.5 -261.5zM588 -225q0 45 31.5 75.5t74.5 30.5t73 -30.5t30 -75.5q0 -43 -31 -75t-74 -32q-41 0 -72.5 32t-31.5 75z" />
<glyph unicode="&#x1ea1;" horiz-adv-x="899" d="M80 225q0 145 166 203q262 88 317 133v35q0 111 -47 171t-127 60q-57 0 -92 -38.5t-59 -135.5q-14 -47 -60 -47q-31 0 -59.5 26.5t-28.5 61.5t64 82q51 39 140 83t167 61q100 0 168 -56q92 -80 92 -252v-379q0 -123 72 -122q37 0 73 22l21 -53l-174 -105q-55 0 -97 41 q-33 33 -49 90q-10 -6 -49 -33.5t-55.5 -37.5t-47 -27.5t-51 -25t-38.5 -7.5q-106 0 -176 75t-70 175zM254 254q0 -72 46 -114t99 -42q39 0 86 21.5t78 52.5v320q-25 -12 -100.5 -47t-83.5 -39q-63 -29 -94 -64t-31 -88zM352 -225q0 45 31 75.5t74 30.5t72.5 -30.5 t29.5 -75.5q0 -43 -30.5 -74t-73.5 -31q-41 0 -72 32t-31 73z" />
<glyph unicode="&#x1ea2;" d="M41 0v57q102 14 140 48t89 165l424 1073l64 19q45 -127 183 -512t212 -586q47 -129 85 -162.5t140 -44.5v-57h-501v57q96 12 118.5 33t1.5 80q-14 41 -112 315h-436q-63 -180 -91 -264q-33 -96 -10 -124.5t139 -39.5v-57h-446zM479 573h377l-180 523h-4 q-33 -86 -96.5 -261.5t-96.5 -261.5zM530 1718q109 109 201 109q80 0 122 -48t42 -102q0 -49 -27.5 -90t-72 -82.5t-60.5 -72.5l-61 12q8 29 48 91t40 97q0 43 -27.5 67.5t-60.5 24.5q-53 0 -107 -65h-20z" />
<glyph unicode="&#x1ea3;" horiz-adv-x="899" d="M80 225q0 145 166 203q262 88 317 133v35q0 111 -47 171t-127 60q-57 0 -92 -38.5t-59 -135.5q-14 -47 -60 -47q-31 0 -59.5 26.5t-28.5 61.5t64 82q51 39 140 83t167 61q100 0 168 -56q92 -80 92 -252v-379q0 -123 72 -122q37 0 73 22l21 -53l-174 -105q-55 0 -97 41 q-33 33 -49 90q-10 -6 -49 -33.5t-55.5 -37.5t-47 -27.5t-51 -25t-38.5 -7.5q-106 0 -176 75t-70 175zM252 1288q86 113 190 113q78 0 118 -46t40 -100q0 -51 -27.5 -93t-68.5 -83.5t-55 -72.5l-54 12q4 27 44 94.5t40 101.5q0 43 -26.5 67t-59.5 24q-55 0 -102 -74h-25z M254 254q0 -72 46 -114t99 -42q39 0 86 21.5t78 52.5v320q-25 -12 -100.5 -47t-83.5 -39q-63 -29 -94 -64t-31 -88z" />
<glyph unicode="&#x1ea4;" d="M41 0v57q102 14 140 48t89 165l424 1073l64 19q45 -127 183 -512t212 -586q47 -129 85 -162.5t140 -44.5v-57h-501v57q96 12 118.5 33t1.5 80q-14 41 -112 315h-436q-63 -180 -91 -264q-33 -96 -10 -124.5t139 -39.5v-57h-446zM430 1483q160 117 262 221h47 q82 -86 262 -221l-32 -53q-152 66 -252 126q-139 -78 -254 -126zM479 573h377l-180 523h-4q-33 -86 -96.5 -261.5t-96.5 -261.5zM858 1659q51 37 139 106.5t133 102.5q16 -4 50 -50t39 -69l-5 -14l-321 -127z" />
<glyph unicode="&#x1ea5;" horiz-adv-x="899" d="M80 225q0 145 166 203q262 88 317 133v35q0 111 -47 171t-127 60q-57 0 -92 -38.5t-59 -135.5q-14 -47 -60 -47q-31 0 -59.5 26.5t-28.5 61.5t64 82q51 39 140 83t167 61q100 0 168 -56q92 -80 92 -252v-379q0 -123 72 -122q37 0 73 22l21 -53l-174 -105q-55 0 -97 41 q-33 33 -49 90q-10 -6 -49 -33.5t-55.5 -37.5t-47 -27.5t-51 -25t-38.5 -7.5q-106 0 -176 75t-70 175zM205 1032q100 147 203 334h49q85 -170 198 -334l-49 -33q-68 63 -176 197q-115 -139 -178 -197zM254 254q0 -72 46 -114t99 -42q39 0 86 21.5t78 52.5v320 q-25 -12 -100.5 -47t-83.5 -39q-63 -29 -94 -64t-31 -88zM580 1231q14 18 80.5 103t99.5 126q31 12 135 -20l4 -33l-274 -207z" />
<glyph unicode="&#x1ea6;" d="M41 0v57q102 14 140 48t89 165l424 1073l64 19q45 -127 183 -512t212 -586q47 -129 85 -162.5t140 -44.5v-57h-501v57q96 12 118.5 33t1.5 80q-14 41 -112 315h-436q-63 -180 -91 -264q-33 -96 -10 -124.5t139 -39.5v-57h-446zM436 1483q170 125 262 221h45 q85 -86 265 -221l-33 -53q-152 63 -254 126q-133 -76 -252 -126zM479 573h377l-180 523h-4q-33 -86 -96.5 -261.5t-96.5 -261.5zM852 1757q8 20 47 61.5t55 43.5l228 -263l-41 -45l-285 187z" />
<glyph unicode="&#x1ea7;" horiz-adv-x="899" d="M80 225q0 145 166 203q262 88 317 133v35q0 111 -47 171t-127 60q-57 0 -92 -38.5t-59 -135.5q-14 -47 -60 -47q-31 0 -59.5 26.5t-28.5 61.5t64 82q51 39 140 83t167 61q100 0 168 -56q92 -80 92 -252v-379q0 -123 72 -122q37 0 73 22l21 -53l-174 -105q-55 0 -97 41 q-33 33 -49 90q-10 -6 -49 -33.5t-55.5 -37.5t-47 -27.5t-51 -25t-38.5 -7.5q-106 0 -176 75t-70 175zM213 1032q106 156 201 334h49q95 -178 201 -334l-50 -33q-84 78 -176 197q-109 -133 -178 -197zM254 254q0 -72 46 -114t99 -42q39 0 86 21.5t78 52.5v320 q-25 -12 -100.5 -47t-83.5 -39q-63 -29 -94 -64t-31 -88zM571 1405l4 29q23 8 72 16t64 4l100 -264l-45 -31z" />
<glyph unicode="&#x1ea8;" d="M41 0v57q102 14 140 48t89 165l424 1073l64 19q45 -127 183 -512t212 -586q47 -129 85 -162.5t140 -44.5v-57h-501v57q96 12 118.5 33t1.5 80q-14 41 -112 315h-436q-63 -180 -91 -264q-33 -96 -10 -124.5t139 -39.5v-57h-446zM432 1483q170 125 262 221h45 q85 -86 265 -221l-33 -53q-152 63 -254 126q-133 -76 -252 -126zM479 573h377l-180 523h-4q-33 -86 -96.5 -261.5t-96.5 -261.5zM840 1804q96 100 182 101q74 0 111.5 -43t37.5 -93q0 -45 -24.5 -82.5t-64.5 -77.5t-54 -65l-59 10q4 20 43 80t39 95q0 80 -82 79 q-45 0 -90 -59h-19z" />
<glyph unicode="&#x1ea9;" horiz-adv-x="899" d="M80 225q0 145 166 203q262 88 317 133v35q0 111 -47 171t-127 60q-57 0 -92 -38.5t-59 -135.5q-14 -47 -60 -47q-31 0 -59.5 26.5t-28.5 61.5t64 82q51 39 140 83t167 61q100 0 168 -56q92 -80 92 -252v-379q0 -123 72 -122q37 0 73 22l21 -53l-174 -105q-55 0 -97 41 q-33 33 -49 90q-10 -6 -49 -33.5t-55.5 -37.5t-47 -27.5t-51 -25t-38.5 -7.5q-106 0 -176 75t-70 175zM211 1032q100 147 203 334h49q101 -191 199 -334l-48 -33q-70 63 -178 197q-115 -141 -176 -197zM254 254q0 -72 46 -114t99 -42q39 0 86 21.5t78 52.5v320 q-25 -12 -100.5 -47t-83.5 -39q-63 -29 -94 -64t-31 -88zM539 1395q84 102 182 102q76 0 113.5 -43t37.5 -90q0 -63 -67.5 -136t-75.5 -91l-53 10q4 25 42 86t38 92q0 39 -24.5 61.5t-55.5 22.5q-53 0 -101 -70l-22 2z" />
<glyph unicode="&#x1eaa;" d="M41 0v57q102 14 140 48t89 165l424 1073l64 19q45 -127 183 -512t212 -586q47 -129 85 -162.5t140 -44.5v-57h-501v57q96 12 118.5 33t1.5 80q-14 41 -112 315h-436q-63 -180 -91 -264q-33 -96 -10 -124.5t139 -39.5v-57h-446zM440 1485q141 96 256 205h47 q98 -92 256 -205l-32 -53q-115 45 -248 116q-119 -66 -246 -116zM446 1729q72 160 181 159q31 0 123 -33q68 -29 112 -28q55 0 101 76l49 -29q-66 -158 -174 -158q-47 0 -138 37q-63 25 -102 25q-55 0 -96 -80zM479 573h377l-180 523h-4q-33 -86 -96.5 -261.5t-96.5 -261.5z " />
<glyph unicode="&#x1eab;" horiz-adv-x="899" d="M80 225q0 145 166 203q262 88 317 133v35q0 111 -47 171t-127 60q-57 0 -92 -38.5t-59 -135.5q-14 -47 -60 -47q-31 0 -59.5 26.5t-28.5 61.5t64 82q51 39 140 83t167 61q100 0 168 -56q92 -80 92 -252v-379q0 -123 72 -122q37 0 73 22l21 -53l-174 -105q-55 0 -97 41 q-33 33 -49 90q-10 -6 -49 -33.5t-55.5 -37.5t-47 -27.5t-51 -25t-38.5 -7.5q-106 0 -176 75t-70 175zM190 1333q63 158 166 158q35 0 113 -33q63 -29 100 -28q45 0 88 75l48 -24q-57 -160 -160 -160q-41 0 -123 39q-59 25 -90 24q-51 1 -90 -81zM209 1034q102 109 209 260 h49q103 -149 205 -260l-43 -39q-104 74 -191 154q-98 -92 -186 -154zM254 254q0 -72 46 -114t99 -42q39 0 86 21.5t78 52.5v320q-25 -12 -100.5 -47t-83.5 -39q-63 -29 -94 -64t-31 -88z" />
<glyph unicode="&#x1eac;" d="M41 0v57q102 14 140 48t89 165l424 1073l64 19q45 -127 183 -512t212 -586q47 -129 85 -162.5t140 -44.5v-57h-501v57q96 12 118.5 33t1.5 80q-14 41 -112 315h-436q-63 -180 -91 -264q-33 -96 -10 -124.5t139 -39.5v-57h-446zM442 1452q190 145 258 219h45 q74 -78 256 -219l-32 -51q-104 43 -248 127q-162 -92 -246 -127zM479 573h377l-180 523h-4q-33 -86 -96.5 -261.5t-96.5 -261.5zM592 -225q0 45 31.5 75.5t74.5 30.5t73 -30.5t30 -75.5q0 -43 -31 -75t-74 -32q-41 0 -72.5 32t-31.5 75z" />
<glyph unicode="&#x1ead;" horiz-adv-x="899" d="M80 225q0 145 166 203q262 88 317 133v35q0 111 -47 171t-127 60q-57 0 -92 -38.5t-59 -135.5q-14 -47 -60 -47q-31 0 -59.5 26.5t-28.5 61.5t64 82q51 39 140 83t167 61q100 0 168 -56q92 -80 92 -252v-379q0 -123 72 -122q37 0 73 22l21 -53l-174 -105q-55 0 -97 41 q-33 33 -49 90q-10 -6 -49 -33.5t-55.5 -37.5t-47 -27.5t-51 -25t-38.5 -7.5q-106 0 -176 75t-70 175zM201 1042q100 139 207 334h51q90 -172 203 -334l-52 -34q-82 78 -178 198q-104 -129 -182 -198zM254 254q0 -72 46 -114t99 -42q39 0 86 21.5t78 52.5v320 q-25 -12 -100.5 -47t-83.5 -39q-63 -29 -94 -64t-31 -88zM352 -225q0 45 31 75.5t74 30.5t71.5 -30.5t28.5 -75.5q0 -43 -29.5 -74t-72.5 -31q-41 0 -72 32t-31 73z" />
<glyph unicode="&#x1eae;" d="M41 0v57q102 14 140 48t89 165l424 1073l64 19q45 -127 183 -512t212 -586q47 -129 85 -162.5t140 -44.5v-57h-501v57q96 12 118.5 33t1.5 80q-14 41 -112 315h-436q-63 -180 -91 -264q-33 -96 -10 -124.5t139 -39.5v-57h-446zM465 1671l59 4q41 -119 195 -119 q150 0 199 119l55 -6q-10 -106 -78 -168.5t-178 -62.5q-233 0 -252 233zM479 573h377l-180 523h-4q-33 -86 -96.5 -261.5t-96.5 -261.5zM623 1696q55 43 158.5 128t119.5 97q14 -2 49 -45t41 -66l-6 -14l-332 -151z" />
<glyph unicode="&#x1eaf;" horiz-adv-x="899" d="M80 225q0 145 166 203q262 88 317 133v35q0 111 -47 171t-127 60q-57 0 -92 -38.5t-59 -135.5q-14 -47 -60 -47q-31 0 -59.5 26.5t-28.5 61.5t64 82q51 39 140 83t167 61q100 0 168 -56q92 -80 92 -252v-379q0 -123 72 -122q37 0 73 22l21 -53l-174 -105q-55 0 -97 41 q-33 33 -49 90q-10 -6 -49 -33.5t-55.5 -37.5t-47 -27.5t-51 -25t-38.5 -7.5q-106 0 -176 75t-70 175zM205 1264h61q31 -133 172 -134q137 1 174 134h58q-8 -131 -74 -190.5t-162 -59.5q-219 0 -229 250zM254 254q0 -72 46 -114t99 -42q39 0 86 21.5t78 52.5v320 q-25 -12 -100.5 -47t-83.5 -39q-63 -29 -94 -64t-31 -88zM377 1255q12 25 38.5 77t48 95t30.5 64q16 4 69 5t74 -5q0 -8 4 -25q-37 -41 -109.5 -120.5t-109.5 -118.5q-8 4 -22.5 14t-22.5 14z" />
<glyph unicode="&#x1eb0;" d="M41 0v57q102 14 140 48t89 165l424 1073l64 19q45 -127 183 -512t212 -586q47 -129 85 -162.5t140 -44.5v-57h-501v57q96 12 118.5 33t1.5 80q-14 41 -112 315h-436q-63 -180 -91 -264q-33 -96 -10 -124.5t139 -39.5v-57h-446zM461 1808q4 23 39 66t51 47 q170 -143 272 -225l-28 -51l-330 147zM469 1671l59 4q37 -119 193 -119q154 0 199 119l57 -6q-10 -106 -78 -168.5t-178 -62.5q-233 0 -252 233zM479 573h377l-180 523h-4q-33 -86 -96.5 -261.5t-96.5 -261.5z" />
<glyph unicode="&#x1eb1;" horiz-adv-x="899" d="M80 225q0 145 166 203q262 88 317 133v35q0 111 -47 171t-127 60q-57 0 -92 -38.5t-59 -135.5q-14 -47 -60 -47q-31 0 -59.5 26.5t-28.5 61.5t64 82q51 39 140 83t167 61q100 0 168 -56q92 -80 92 -252v-379q0 -123 72 -122q37 0 73 22l21 -53l-174 -105q-55 0 -97 41 q-33 33 -49 90q-10 -6 -49 -33.5t-55.5 -37.5t-47 -27.5t-51 -25t-38.5 -7.5q-106 0 -176 75t-70 175zM197 1264h61q31 -133 172 -134q137 1 174 134h58q-8 -131 -74 -190.5t-162 -59.5q-219 0 -229 250zM229 1468l7 25q20 6 72 10t67 -2q14 -29 55.5 -116.5t61.5 -122.5 l-48 -31zM254 254q0 -72 46 -114t99 -42q39 0 86 21.5t78 52.5v320q-25 -12 -100.5 -47t-83.5 -39q-63 -29 -94 -64t-31 -88z" />
<glyph unicode="&#x1eb2;" d="M41 0v57q102 14 140 48t89 165l424 1073l64 19q45 -127 183 -512t212 -586q47 -129 85 -162.5t140 -44.5v-57h-501v57q96 12 118.5 33t1.5 80q-14 41 -112 315h-436q-63 -180 -91 -264q-33 -96 -10 -124.5t139 -39.5v-57h-446zM471 1671l59 4q37 -119 193 -119 q154 0 199 119l55 -6q-10 -106 -76.5 -168.5t-177.5 -62.5q-233 0 -252 233zM479 573h377l-180 523h-4q-33 -86 -96.5 -261.5t-96.5 -261.5zM543 1874q104 100 184 100q74 0 114 -44t40 -91q0 -45 -26 -83t-66 -77.5t-56 -64.5l-59 10q4 18 44 78.5t40 95.5q0 41 -25.5 60.5 t-58.5 19.5q-43 0 -90 -61l-21 2z" />
<glyph unicode="&#x1eb3;" horiz-adv-x="899" d="M80 225q0 145 166 203q262 88 317 133v35q0 111 -47 171t-127 60q-57 0 -92 -38.5t-59 -135.5q-14 -47 -60 -47q-31 0 -59.5 26.5t-28.5 61.5t64 82q51 39 140 83t167 61q100 0 168 -56q92 -80 92 -252v-379q0 -123 72 -122q37 0 73 22l21 -53l-174 -105q-55 0 -97 41 q-33 33 -49 90q-10 -6 -49 -33.5t-55.5 -37.5t-47 -27.5t-51 -25t-38.5 -7.5q-106 0 -176 75t-70 175zM199 1264h59q35 -133 174 -134q137 1 174 134h58q-8 -131 -74 -190.5t-162 -59.5q-219 0 -229 250zM250 1491q82 102 182 102q76 0 114 -42t38 -91q0 -61 -68 -134 t-76 -91l-53 10q4 25 42 86.5t38 91.5q0 39 -24.5 61.5t-55.5 22.5q-53 0 -100 -69h-23zM254 254q0 -72 46 -114t99 -42q39 0 86 21.5t78 52.5v320q-25 -12 -100.5 -47t-83.5 -39q-63 -29 -94 -64t-31 -88z" />
<glyph unicode="&#x1eb4;" d="M41 0v57q102 14 140 48t89 165l424 1073l64 19q45 -127 183 -512t212 -586q47 -129 85 -162.5t140 -44.5v-57h-501v57q96 12 118.5 33t1.5 80q-14 41 -112 315h-436q-63 -180 -91 -264q-33 -96 -10 -124.5t139 -39.5v-57h-446zM449 1733q70 158 176 157q31 0 123 -32 q76 -31 114 -31q51 0 96 76l50 -27q-68 -158 -172 -158q-41 0 -138 39q-63 25 -100 25q-51 0 -96 -80zM479 573h377l-180 523h-4q-33 -86 -96.5 -261.5t-96.5 -261.5zM487 1669l56 4q37 -117 176 -117q137 0 180 117l53 -6q-10 -106 -71.5 -166.5t-161.5 -60.5 q-213 0 -232 229z" />
<glyph unicode="&#x1eb5;" horiz-adv-x="899" d="M80 225q0 145 166 203q262 88 317 133v35q0 111 -47 171t-127 60q-57 0 -92 -38.5t-59 -135.5q-14 -47 -60 -47q-31 0 -59.5 26.5t-28.5 61.5t64 82q51 39 140 83t167 61q100 0 168 -56q92 -80 92 -252v-379q0 -123 72 -122q37 0 73 22l21 -53l-174 -105q-55 0 -97 41 q-33 33 -49 90q-10 -6 -49 -33.5t-55.5 -37.5t-47 -27.5t-51 -25t-38.5 -7.5q-106 0 -176 75t-70 175zM188 1329q61 156 166 156q33 0 111 -33q70 -27 102 -27q45 0 88 76l47 -26q-57 -160 -159 -160q-33 0 -125 39q-55 25 -88 24q-51 0 -90 -80zM227 1251h60 q14 -63 49 -88.5t102 -25.5q66 0 101 24t49 90h59q-10 -231 -213 -231q-199 0 -207 231zM254 254q0 -72 46 -114t99 -42q39 0 86 21.5t78 52.5v320q-25 -12 -100.5 -47t-83.5 -39q-63 -29 -94 -64t-31 -88z" />
<glyph unicode="&#x1eb6;" d="M41 0v57q102 14 140 48t89 165l424 1073l64 19q45 -127 183 -512t212 -586q47 -129 85 -162.5t140 -44.5v-57h-501v57q96 12 118.5 33t1.5 80q-14 41 -112 315h-436q-63 -180 -91 -264q-33 -96 -10 -124.5t139 -39.5v-57h-446zM479 573h377l-180 523h-4 q-33 -86 -96.5 -261.5t-96.5 -261.5zM479 1665h62q33 -125 178 -125t178 125h61q-2 -119 -66.5 -180.5t-173 -61.5t-173 61.5t-66.5 180.5zM590 -225q0 45 31.5 75.5t76.5 30.5q43 0 73 -30.5t30 -75.5q0 -43 -31 -75t-74 -32t-74.5 32t-31.5 75z" />
<glyph unicode="&#x1eb7;" horiz-adv-x="899" d="M80 225q0 145 166 203q262 88 317 133v35q0 111 -47 171t-127 60q-57 0 -92 -38.5t-59 -135.5q-14 -47 -60 -47q-31 0 -59.5 26.5t-28.5 61.5t64 82q51 39 140 83t167 61q100 0 168 -56q92 -80 92 -252v-379q0 -123 72 -122q37 0 73 22l21 -53l-174 -105q-55 0 -97 41 q-33 33 -49 90q-10 -6 -49 -33.5t-55.5 -37.5t-47 -27.5t-51 -25t-38.5 -7.5q-106 0 -176 75t-70 175zM209 1327h61q23 -162 164 -162q145 0 168 162h62q0 -150 -63.5 -215t-166.5 -65q-100 0 -162.5 65.5t-62.5 214.5zM254 254q0 -72 46 -114t99 -42q39 0 86 21.5t78 52.5 v320q-25 -12 -100.5 -47t-83.5 -39q-63 -29 -94 -64t-31 -88zM344 -225q0 45 32 75.5t75 30.5q41 0 70.5 -30.5t29.5 -75.5q0 -43 -29.5 -74t-72.5 -31q-41 0 -73 31t-32 74z" />
<glyph unicode="&#x1eb8;" horiz-adv-x="1163" d="M59 0v57q139 10 171 41t32 158v815q0 135 -26.5 164t-149.5 39v57h913q0 -16 17 -295l-60 -8q-23 104 -65 174q-23 35 -72 47.5t-160 12.5h-155q-47 0 -57.5 -10.5t-10.5 -55.5v-467h193q137 0 169.5 24.5t51.5 129.5h59v-391h-59q-20 111 -53 134t-166 23h-195v-387 q0 -133 49 -166q39 -27 213 -26q117 0 170.5 14t87.5 55q58 68 103 193l59 -8q-37 -205 -71 -324h-988zM500 -225q0 45 31.5 75.5t76.5 30.5q43 0 73 -30.5t30 -75.5q0 -43 -31 -75t-74 -32t-74.5 32t-31.5 75z" />
<glyph unicode="&#x1eb9;" horiz-adv-x="870" d="M76 412q0 211 135 358q137 150 299 150h2q125 0 216 -95.5t91 -216.5q0 -33 -9 -46t-38 -19q-111 -20 -536 -35q2 -195 94 -294t213 -99q124 0 235 102l31 -45q-86 -106 -178 -151.5t-156 -45.5q-182 0 -290.5 127t-108.5 310zM246 592q170 0 348 6q29 0 39 9t10 32 q2 84 -48 144.5t-134 60.5q-72 0 -132.5 -66.5t-82.5 -185.5zM369 -225q0 45 31.5 75.5t74.5 30.5q41 0 70.5 -30.5t29.5 -75.5q0 -43 -29.5 -74t-72.5 -31q-41 0 -72.5 32t-31.5 73z" />
<glyph unicode="&#x1eba;" horiz-adv-x="1163" d="M59 0v57q139 10 171 41t32 158v815q0 135 -26.5 164t-149.5 39v57h913q0 -16 17 -295l-60 -8q-23 104 -65 174q-23 35 -72 47.5t-160 12.5h-155q-47 0 -57.5 -10.5t-10.5 -55.5v-467h193q137 0 169.5 24.5t51.5 129.5h59v-391h-59q-20 111 -53 134t-166 23h-195v-387 q0 -133 49 -166q39 -27 213 -26q117 0 170.5 14t87.5 55q58 68 103 193l59 -8q-37 -205 -71 -324h-988zM403 1716q106 111 203 111q80 0 122 -49t42 -103q0 -49 -27.5 -90t-72 -82.5t-62.5 -72.5l-59 12q8 31 48 93t40 97q0 43 -27.5 66.5t-60.5 23.5q-53 0 -107 -63h-20z " />
<glyph unicode="&#x1ebb;" horiz-adv-x="870" d="M76 412q0 211 135 358q137 150 299 150h2q125 0 216 -95.5t91 -216.5q0 -33 -9 -46t-38 -19q-111 -20 -536 -35q2 -195 94 -294t213 -99q124 0 235 102l31 -45q-86 -106 -178 -151.5t-156 -45.5q-182 0 -290.5 127t-108.5 310zM246 592q170 0 348 6q29 0 39 9t10 32 q2 84 -48 144.5t-134 60.5q-72 0 -132.5 -66.5t-82.5 -185.5zM287 1288q86 113 190 113q78 0 119 -46t41 -100q0 -68 -71 -147t-81 -102l-55 12q4 27 44 94.5t40 101.5q0 43 -26.5 67t-59.5 24q-55 0 -102 -76h-23z" />
<glyph unicode="&#x1ebc;" horiz-adv-x="1163" d="M59 0v57q139 10 171 41t32 158v815q0 135 -26.5 164t-149.5 39v57h913q0 -16 17 -295l-60 -8q-23 104 -65 174q-23 35 -72 47.5t-160 12.5h-155q-47 0 -57.5 -10.5t-10.5 -55.5v-467h193q137 0 169.5 24.5t51.5 129.5h59v-391h-59q-20 111 -53 134t-166 23h-195v-387 q0 -133 49 -166q39 -27 213 -26q117 0 170.5 14t87.5 55q58 68 103 193l59 -8q-37 -205 -71 -324h-988zM319 1446q68 168 166 168q45 0 125 -39q72 -33 113 -33q55 0 94 88l51 -28q-57 -174 -168 -175q-49 0 -143 46q-57 29 -90 28q-49 0 -98 -90z" />
<glyph unicode="&#x1ebd;" horiz-adv-x="870" d="M76 412q0 211 135 358q137 150 299 150h2q125 0 216 -95.5t91 -216.5q0 -33 -9 -46t-38 -19q-111 -20 -536 -35q2 -195 94 -294t213 -99q124 0 235 102l31 -45q-86 -106 -178 -151.5t-156 -45.5q-182 0 -290.5 127t-108.5 310zM213 1100q59 184 166 184q39 0 119 -41 q74 -39 108 -39q45 0 88 92l51 -26q-57 -184 -161 -185q-45 0 -135 48q-55 33 -93 32q-49 0 -90 -98zM246 592q170 0 348 6q29 0 39 9t10 32q2 84 -48 144.5t-134 60.5q-72 0 -132.5 -66.5t-82.5 -185.5z" />
</font>
</defs>
</svg>
